<?xml version="1.0"?>

<!-- Generator: Adobe Illustrator 19.1.0, SVG Export Plug-In . SVG Version: 6.00 Build 0)  -->
<svg version="1.1" id="Layer_1" xmlns="http://www.w3.org/2000/svg" xmlns:xlink="http://www.w3.org/1999/xlink" x="0px" y="0px" width="89px" height="89px" viewBox="-255 256 89 89" enable-background="new -255 256 89 89" xml:space="preserve">
<path d="M-202.643,336.046h-15.714c-6.065,0-11-4.935-11-11v-49.092c0-6.065,4.935-11,11-11h15.715c6.065,0,11,4.935,11,11v49.092
	C-191.643,331.111-196.577,336.046-202.643,336.046z M-218.357,266.954c-4.962,0-9,4.037-9,9v49.092c0,4.963,4.038,9,9,9h15.715
	c4.962,0,9-4.037,9-9v-49.092c0-4.963-4.038-9-9-9H-218.357z"></path>
<path d="M-228.357,319.413h35.715v1h-35.715V319.413z"></path>
<path d="M-228.357,274.743h35.715v1h-35.715V274.743z"></path>
<path d="M-228.357,326.065h35.715v1h-35.715V326.065z"></path>
<path d="M-220.107,324.753c-0.826,0-1.498-0.673-1.498-1.499s0.672-1.498,1.498-1.498c0.826,0,1.499,0.672,1.499,1.498
	S-219.281,324.753-220.107,324.753z M-220.107,322.756c-0.274,0-0.498,0.224-0.498,0.498c0,0.275,0.224,0.499,0.498,0.499
	c0.275,0,0.499-0.224,0.499-0.499C-219.609,322.979-219.833,322.756-220.107,322.756z"></path>
<path d="M-209.254,324.753h-2.492c-0.586,0-1.063-0.478-1.063-1.063v-0.627c0-0.829,1.79-1.307,2.358-1.307
	c0.671,0,2.26,0.507,2.26,1.307v0.627C-208.191,324.275-208.668,324.753-209.254,324.753z M-211.809,323.204v0.485l2.555,0.063
	c0.034,0,0.063-0.029,0.063-0.063v-0.496c-0.21-0.162-0.86-0.438-1.26-0.438C-210.847,322.756-211.568,323.03-211.809,323.204z"></path>
<path d="M-200.893,324.753c-0.826,0-1.499-0.673-1.499-1.499s0.672-1.498,1.499-1.498s1.498,0.672,1.498,1.498
	S-200.066,324.753-200.893,324.753z M-200.893,322.756c-0.275,0-0.499,0.224-0.499,0.498c0,0.275,0.224,0.499,0.499,0.499
	c0.274,0,0.498-0.224,0.498-0.499S-200.618,322.756-200.893,322.756z"></path>
<g>
	<path d="M-201.578,286.732l-14.184,9.528c-0.225,0.153-0.283,0.458-0.13,0.683c0.095,0.141,0.249,0.218,0.406,0.218
		c0.098,0,0.193-0.028,0.279-0.085l14.185-9.528c0.225-0.153,0.285-0.458,0.133-0.683
		C-201.044,286.639-201.351,286.579-201.578,286.732"></path>
	<path d="M-208.739,295.23l-11.238,7.59c-0.225,0.153-0.287,0.46-0.132,0.685c0.094,0.141,0.249,0.218,0.408,0.218
		c0.095,0,0.193-0.029,0.277-0.085l11.235-7.592c0.227-0.153,0.287-0.46,0.133-0.685
		C-208.208,295.136-208.516,295.077-208.739,295.23"></path>
</g>
<path d="M-213.728,270.007h6.455c0.394,0,0.714-0.32,0.714-0.714s-0.321-0.714-0.714-0.714h-6.455c-0.395,0-0.715,0.32-0.715,0.714
	C-214.442,269.687-214.122,270.007-213.728,270.007"></path>
<path d="M-201.335,270.346c0.258,0,0.505-0.096,0.676-0.276c0.18-0.173,0.276-0.419,0.276-0.676c0-0.248-0.096-0.496-0.276-0.667
	c-0.342-0.352-0.981-0.362-1.343,0c-0.18,0.18-0.286,0.419-0.286,0.667c0,0.257,0.105,0.504,0.286,0.676
	C-201.83,270.25-201.582,270.346-201.335,270.346"></path>
</svg>
