<?xml version="1.0"?>

<!-- Generator: Adobe Illustrator 19.1.0, SVG Export Plug-In . SVG Version: 6.00 Build 0)  -->
<svg version="1.1" id="Layer_1" xmlns="http://www.w3.org/2000/svg" xmlns:xlink="http://www.w3.org/1999/xlink" x="0px" y="0px" width="89px" height="89px" viewBox="0 0 89 89" enable-background="new 0 0 89 89" xml:space="preserve">
<path d="M80.26,66.64l-7.055-8.805c-0.09-0.97-0.565-1.825-1.262-2.43c0.773-0.673,1.274-1.653,1.274-2.756V21.794
	c0-2.023-1.644-3.669-3.667-3.669H20.028c-2.023,0-3.667,1.646-3.667,3.669v30.855c0,1.103,0.498,2.083,1.273,2.756
	c-0.692,0.6-1.163,1.448-1.257,2.411L8.76,66.613c-0.142,0.165-0.22,0.375-0.22,0.593c0,2.434,0.93,3.669,2.763,3.669h66.395
	c1.832,0,2.763-1.235,2.763-3.669C80.46,67.001,80.389,66.801,80.26,66.64z M18.173,52.648V21.794c0-1.023,0.833-1.857,1.855-1.857
	H69.55c1.023,0,1.855,0.834,1.855,1.857v30.855c0,1.023-0.832,1.855-1.855,1.855H20.028C19.005,54.503,18.173,53.671,18.173,52.648z
	 M77.697,69.063H11.303c-0.397,0-0.885,0-0.946-1.526l7.595-8.772c0.142-0.165,0.221-0.375,0.221-0.593
	c0-1.025,0.833-1.857,1.855-1.857H69.55c1.023,0,1.855,0.832,1.855,1.857c0,0.205,0.071,0.405,0.2,0.566l7.037,8.779
	C78.586,69.063,78.096,69.063,77.697,69.063z M67.124,22.033h-20.92c0.007-0.062,0.018-0.122,0.018-0.186
	c0-0.788-0.637-1.427-1.425-1.427c-0.789,0-1.426,0.639-1.426,1.427c0,0.064,0.009,0.124,0.018,0.186h-20.92
	c-1.247,0-2.263,1.087-2.263,2.419v25.89c0,1.335,1.016,2.419,2.263,2.419h44.656c1.248,0,2.262-1.085,2.262-2.419v-25.89
	C69.386,23.12,68.372,22.033,67.124,22.033z M68.026,50.342c0,0.584-0.405,1.06-0.903,1.06H22.467c-0.497,0-0.904-0.476-0.904-1.06
	v-25.89c0-0.584,0.406-1.06,0.904-1.06h44.656c0.497,0,0.903,0.476,0.903,1.06V50.342z M19.611,58.583
	c0-0.251,0.203-0.453,0.453-0.453h49.549c0.25,0,0.453,0.202,0.453,0.453c0,0.25-0.204,0.453-0.453,0.453H20.064
	C19.813,59.036,19.611,58.833,19.611,58.583z M17.99,61.641c0-0.251,0.203-0.453,0.453-0.453h52.555
	c0.248,0,0.453,0.202,0.453,0.453c0,0.25-0.205,0.453-0.453,0.453H18.443C18.193,62.095,17.99,61.891,17.99,61.641z M15.786,64.247
	h56.963c0.251,0,0.453,0.202,0.453,0.453c0,0.25-0.202,0.453-0.453,0.453H15.786c-0.251,0-0.453-0.204-0.453-0.453
	C15.333,64.449,15.535,64.247,15.786,64.247z M62.134,29.969c0.14,0.207,0.085,0.488-0.122,0.628l-13.044,8.761
	c-0.078,0.051-0.166,0.078-0.257,0.078c-0.143,0-0.285-0.071-0.373-0.2c-0.14-0.207-0.087-0.488,0.12-0.628l13.044-8.761
	C61.711,29.707,61.993,29.762,62.134,29.969z M55.545,37.781c0.142,0.207,0.087,0.49-0.122,0.63l-10.331,6.981
	c-0.078,0.051-0.168,0.078-0.255,0.078c-0.145,0-0.288-0.071-0.375-0.2c-0.142-0.207-0.086-0.488,0.122-0.63l10.333-6.979
	C55.122,37.521,55.405,37.574,55.545,37.781z"></path>
</svg>
