<?xml version="1.0"?>

<!-- Generator: Adobe Illustrator 17.1.0, SVG Export Plug-In . SVG Version: 6.00 Build 0)  -->

<svg id="Layer_1" xmlns="http://www.w3.org/2000/svg" xml:space="preserve" viewBox="0 0 216 216" version="1.1" y="0px" x="0px" xmlns:xlink="http://www.w3.org/1999/xlink" enable-background="new 0 0 216 216" width="216" height="216">
	<path d="m85.888 103.46c-4.066-0.574-7.506-1.299-10.227-2.153-0.268-0.085-0.545 0.063-0.627 0.326-0.084 0.264 0.062 0.545 0.326 0.627 2.773 0.871 6.268 1.608 10.387 2.19 0.023 0.003 0.047 0.005 0.07 0.005 0.246 0 0.459-0.18 0.494-0.43 0.04-0.28-0.15-0.53-0.423-0.57z"></path>
	<path d="m138.53 102.36c0.395-0.129 0.607-0.553 0.479-0.946-0.129-0.393-0.555-0.608-0.947-0.478-6.861 2.256-18.586 3.604-31.365 3.604-4.15 0-8.226-0.143-12.113-0.423-0.412-0.025-0.773 0.28-0.803 0.694-0.029 0.413 0.281 0.772 0.693 0.802 3.924 0.283 8.037 0.427 12.223 0.427 12.93 0.01 24.83-1.36 31.83-3.67z"></path>
	<path d="m145.2 120.32v-22.926c0-5.841-19.369-8.897-38.504-8.897-19.133 0-38.502 3.056-38.502 8.897v22.924c0 5.842 19.369 8.898 38.502 8.898 19.13 0 38.5-3.06 38.5-8.9zm-75.004 0v-22.926c0-2.88 13.887-6.897 36.502-6.897 22.617 0 36.504 4.017 36.504 6.897v22.924c0 2.881-13.887 6.898-36.504 6.898s-36.504-4.02-36.504-6.9z"></path>
	<path d="m123.96 86.455c0.653 0.067 1.307 0.139 1.96 0.216 0.03 0.004 0.061 0.005 0.09 0.005 0.375 0 0.698-0.28 0.744-0.662 0.049-0.411-0.245-0.784-0.656-0.833-0.661-0.079-1.324-0.151-1.985-0.219-0.399-0.037-0.779 0.258-0.822 0.669-0.03 0.413 0.27 0.782 0.68 0.824z"></path>
	<path d="m101.75 132c-0.641-0.016-1.3-0.035-1.975-0.059-0.422-0.045-0.762 0.308-0.776 0.722-0.015 0.414 0.309 0.762 0.723 0.776 0.681 0.025 1.346 0.045 1.993 0.061h0.019c0.406 0 0.739-0.324 0.749-0.731 0.01-0.41-0.32-0.75-0.74-0.77z"></path>
	<path d="m111.65 132h-0.019c-0.681 0.017-1.342 0.029-1.978 0.039-0.414 0.007-0.744 0.348-0.738 0.762 0.007 0.41 0.341 0.738 0.75 0.738h0.012c0.64-0.01 1.305-0.022 1.991-0.039 0.414-0.011 0.741-0.354 0.731-0.769 0-0.4-0.33-0.73-0.74-0.73z"></path>
	<path d="m106.7 132.07c-0.621 0-1.282-0.003-1.979-0.01-0.427 0.028-0.753 0.328-0.757 0.742-0.004 0.415 0.329 0.754 0.743 0.758 0.702 0.007 1.368 0.01 1.993 0.01 0.414 0 0.75-0.336 0.75-0.75 0.01-0.42-0.33-0.75-0.74-0.75z"></path>
	<path d="m116.57 131.82c-0.669 0.035-1.327 0.065-1.972 0.091-0.414 0.016-0.736 0.364-0.72 0.778 0.016 0.404 0.348 0.721 0.748 0.721 0.011 0 0.021 0 0.03-0.001 0.65-0.025 1.316-0.056 1.991-0.091 0.414-0.021 0.731-0.375 0.71-0.788-0.03-0.42-0.39-0.74-0.79-0.71z"></path>
	<path d="m121.49 131.49c-0.66 0.055-1.316 0.105-1.968 0.15-0.413 0.028-0.725 0.386-0.696 0.8 0.027 0.395 0.356 0.698 0.747 0.698 0.018 0 0.035-0.001 0.053-0.002 0.657-0.045 1.321-0.096 1.989-0.152 0.413-0.034 0.72-0.396 0.685-0.809-0.03-0.42-0.4-0.73-0.81-0.69z"></path>
	<path d="m91.891 131.48c-0.652-0.055-1.308-0.114-1.966-0.178-0.415-0.052-0.779 0.262-0.819 0.673-0.04 0.413 0.262 0.779 0.674 0.819 0.664 0.065 1.327 0.125 1.986 0.18 0.021 0.002 0.043 0.003 0.063 0.003 0.386 0 0.714-0.296 0.747-0.688 0.034-0.4-0.272-0.76-0.685-0.8z"></path>
	<path d="m77.326 129.24c-0.643-0.164-1.27-0.338-1.88-0.522-0.392-0.121-0.814 0.105-0.935 0.501-0.12 0.396 0.104 0.816 0.501 0.935 0.63 0.19 1.279 0.37 1.942 0.54 0.062 0.016 0.125 0.023 0.187 0.023 0.334 0 0.64-0.226 0.726-0.564 0.102-0.41-0.139-0.82-0.541-0.92z"></path>
	<path d="m82.12 130.26c-0.65-0.115-1.294-0.237-1.929-0.366-0.402-0.085-0.802 0.179-0.885 0.584-0.083 0.406 0.179 0.803 0.585 0.885 0.647 0.133 1.304 0.257 1.968 0.374 0.044 0.008 0.088 0.012 0.131 0.012 0.357 0 0.673-0.256 0.738-0.619 0.072-0.4-0.2-0.79-0.608-0.86z"></path>
	<path d="m126.4 130.98c-0.652 0.08-1.306 0.155-1.959 0.224-0.412 0.044-0.711 0.413-0.668 0.824 0.041 0.386 0.366 0.672 0.745 0.672 0.026 0 0.053-0.001 0.079-0.004 0.663-0.07 1.326-0.146 1.986-0.228 0.411-0.051 0.703-0.425 0.652-0.836-0.06-0.39-0.43-0.69-0.84-0.64z"></path>
	<path d="m96.817 131.82c-0.649-0.034-1.308-0.072-1.973-0.113-0.406-0.049-0.77 0.288-0.795 0.701-0.026 0.413 0.288 0.77 0.702 0.795 0.67 0.043 1.334 0.081 1.989 0.115 0.013 0.001 0.026 0.001 0.039 0.001 0.396 0 0.728-0.311 0.748-0.711 0.022-0.42-0.296-0.77-0.71-0.79z"></path>
	<path d="m86.987 130.98c-0.653-0.081-1.305-0.167-1.953-0.259-0.411-0.071-0.79 0.227-0.848 0.637s0.227 0.79 0.637 0.848c0.657 0.094 1.318 0.182 1.981 0.263 0.031 0.004 0.062 0.006 0.093 0.006 0.373 0 0.697-0.278 0.743-0.658 0.05-0.41-0.242-0.79-0.653-0.84z"></path>
	<path d="m140.7 127.77c-0.586 0.23-1.195 0.449-1.827 0.656-0.394 0.13-0.607 0.554-0.479 0.947 0.104 0.315 0.397 0.516 0.713 0.516 0.077 0 0.156-0.012 0.234-0.037 0.659-0.217 1.296-0.445 1.907-0.686 0.386-0.151 0.575-0.587 0.424-0.973-0.14-0.39-0.58-0.58-0.96-0.43z"></path>
	<path d="m148.8 111.83c-0.414 0-0.75 0.336-0.75 0.75v1.98c0 0.414 0.336 0.75 0.75 0.75s0.75-0.336 0.75-0.75v-1.98c0-0.42-0.33-0.75-0.75-0.75z"></path>
	<path d="m148.8 106.88c-0.414 0-0.75 0.336-0.75 0.75v1.981c0 0.414 0.336 0.75 0.75 0.75s0.75-0.336 0.75-0.75v-1.981c0-0.42-0.33-0.75-0.75-0.75z"></path>
	<path d="m148.8 116.78c-0.414 0-0.75 0.336-0.75 0.75v1.98c0 0.414 0.336 0.75 0.75 0.75s0.75-0.336 0.75-0.75v-1.98c0-0.41-0.33-0.75-0.75-0.75z"></path>
	<path d="m142.89 90.933c0.595 0.307 1.145 0.628 1.634 0.957 0.128 0.086 0.273 0.127 0.417 0.127 0.242 0 0.48-0.116 0.624-0.332 0.23-0.344 0.139-0.81-0.205-1.041-0.537-0.361-1.137-0.712-1.782-1.044-0.371-0.191-0.82-0.045-1.011 0.323-0.19 0.368-0.05 0.82 0.32 1.01z"></path>
	<path d="m148.8 96.971c-0.414 0-0.75 0.336-0.75 0.75v1.981c0 0.414 0.336 0.75 0.75 0.75s0.75-0.336 0.75-0.75v-1.981c0-0.412-0.33-0.748-0.75-0.748z"></path>
	<path d="m144.9 125.56c-0.476 0.344-1.014 0.681-1.599 1-0.363 0.199-0.496 0.654-0.298 1.019 0.137 0.249 0.394 0.39 0.659 0.39 0.121 0 0.245-0.029 0.359-0.092 0.639-0.35 1.229-0.72 1.757-1.1 0.335-0.243 0.411-0.712 0.169-1.048-0.24-0.33-0.71-0.41-1.05-0.17z"></path>
	<path d="m148.69 121.72c-0.387-0.143-0.82 0.056-0.963 0.445-0.192 0.522-0.475 1.035-0.844 1.521-0.25 0.331-0.184 0.801 0.146 1.051 0.136 0.103 0.294 0.151 0.451 0.151 0.228 0 0.452-0.103 0.6-0.298 0.456-0.605 0.811-1.247 1.055-1.908 0.14-0.38-0.06-0.81-0.45-0.95z"></path>
	<path d="m72.694 127.77c-0.624-0.247-1.217-0.507-1.764-0.772-0.373-0.179-0.821-0.025-1.003 0.347-0.181 0.373-0.025 0.821 0.347 1.003 0.58 0.282 1.209 0.557 1.868 0.817 0.091 0.036 0.184 0.053 0.276 0.053 0.298 0 0.581-0.18 0.697-0.475 0.153-0.39-0.036-0.82-0.421-0.97z"></path>
	<path d="m136.06 129.24c-0.623 0.159-1.26 0.309-1.906 0.452-0.404 0.09-0.659 0.489-0.57 0.895 0.077 0.35 0.388 0.588 0.731 0.588 0.054 0 0.108-0.006 0.163-0.018 0.662-0.146 1.314-0.301 1.953-0.464 0.401-0.103 0.644-0.511 0.541-0.912-0.09-0.4-0.5-0.64-0.9-0.54z"></path>
	<path d="m131.27 130.26c-0.641 0.113-1.288 0.22-1.94 0.319-0.409 0.062-0.69 0.445-0.628 0.854 0.057 0.371 0.376 0.637 0.74 0.637 0.038 0 0.076-0.003 0.114-0.009 0.664-0.102 1.323-0.21 1.975-0.325 0.407-0.072 0.68-0.461 0.607-0.869-0.07-0.41-0.45-0.68-0.86-0.61z"></path>
	<path d="m148.25 95.599c0.105 0 0.212-0.022 0.313-0.069 0.376-0.173 0.541-0.618 0.368-0.995-0.291-0.632-0.688-1.244-1.18-1.82-0.27-0.315-0.743-0.351-1.058-0.083-0.314 0.269-0.352 0.743-0.083 1.058 0.402 0.471 0.725 0.966 0.957 1.472 0.12 0.275 0.39 0.437 0.68 0.437z"></path>
	<path d="m148.8 101.92c-0.414 0-0.75 0.336-0.75 0.75v1.981c0 0.414 0.336 0.75 0.75 0.75s0.75-0.336 0.75-0.75v-1.981c0-0.41-0.33-0.75-0.75-0.75z"></path>
	<path d="m84.441 87.067c0.037 0 0.074-0.003 0.111-0.008 0.646-0.095 1.296-0.185 1.948-0.269 0.411-0.053 0.701-0.429 0.648-0.839-0.052-0.411-0.425-0.705-0.839-0.648-0.662 0.085-1.321 0.175-1.976 0.273-0.41 0.06-0.693 0.442-0.632 0.851 0.054 0.373 0.375 0.64 0.74 0.64z"></path>
	<path d="m109.17 85.662c0.633 0.008 1.293 0.019 1.976 0.035h0.018c0.406 0 0.74-0.324 0.75-0.732 0.01-0.414-0.318-0.758-0.733-0.768-0.688-0.016-1.354-0.027-1.993-0.035-0.462-0.014-0.754 0.327-0.759 0.741-0.02 0.414 0.32 0.754 0.73 0.759z"></path>
	<path d="m104.22 85.662h0.009c0.693-0.009 1.354-0.013 1.978-0.015 0.414-0.001 0.749-0.337 0.748-0.752-0.001-0.414-0.336-0.748-0.75-0.748h-0.002c-0.629 0.001-1.295 0.006-1.993 0.015-0.415 0.005-0.746 0.345-0.741 0.759-0.01 0.411 0.33 0.741 0.74 0.741z"></path>
	<path d="m89.36 86.459c0.025 0 0.051-0.002 0.077-0.004 0.656-0.067 1.312-0.128 1.964-0.186 0.413-0.036 0.718-0.399 0.682-0.812s-0.41-0.724-0.812-0.682c-0.66 0.057-1.323 0.12-1.987 0.188-0.412 0.042-0.712 0.41-0.67 0.822 0.041 0.386 0.366 0.674 0.746 0.674z"></path>
	<path d="m94.304 86.044c0.017 0 0.034-0.001 0.051-0.001 0.664-0.045 1.322-0.085 1.971-0.12 0.413-0.023 0.73-0.377 0.708-0.79-0.023-0.413-0.363-0.723-0.79-0.708-0.655 0.036-1.319 0.076-1.99 0.121-0.414 0.028-0.726 0.386-0.698 0.799 0.027 0.396 0.357 0.699 0.748 0.699z"></path>
	<path d="m99.257 85.786h0.029c0.674-0.026 1.333-0.047 1.975-0.065 0.414-0.011 0.741-0.356 0.729-0.77-0.011-0.414-0.376-0.771-0.77-0.729-0.647 0.018-1.312 0.039-1.992 0.065-0.414 0.016-0.736 0.364-0.721 0.778 0.017 0.404 0.349 0.721 0.75 0.721z"></path>
	<path d="m133.69 87.921c0.648 0.137 1.285 0.283 1.91 0.437 0.061 0.015 0.121 0.022 0.181 0.022 0.337 0 0.644-0.229 0.728-0.571 0.099-0.402-0.147-0.809-0.549-0.907-0.641-0.158-1.294-0.307-1.959-0.448-0.401-0.082-0.804 0.173-0.889 0.578-0.09 0.405 0.17 0.803 0.58 0.889z"></path>
	<path d="m138.42 89.143c0.633 0.199 1.246 0.41 1.838 0.631 0.086 0.033 0.175 0.048 0.263 0.048 0.304 0 0.59-0.186 0.702-0.487 0.145-0.388-0.051-0.82-0.439-0.965-0.615-0.231-1.254-0.45-1.914-0.657-0.394-0.129-0.816 0.096-0.94 0.491-0.13 0.394 0.09 0.815 0.49 0.939z"></path>
	<path d="m114.11 85.786c0.646 0.024 1.306 0.053 1.975 0.085 0.012 0.001 0.024 0.001 0.037 0.001 0.397 0 0.728-0.312 0.748-0.713 0.02-0.414-0.299-0.766-0.713-0.786-0.675-0.033-1.339-0.062-1.99-0.086-0.415-0.023-0.763 0.307-0.777 0.721-0.01 0.414 0.31 0.762 0.72 0.778z"></path>
	<path d="m128.85 87.061c0.652 0.096 1.3 0.199 1.941 0.309 0.043 0.007 0.086 0.011 0.128 0.011 0.358 0 0.676-0.258 0.738-0.624 0.07-0.408-0.204-0.796-0.612-0.866-0.653-0.112-1.312-0.216-1.977-0.314-0.412-0.061-0.791 0.223-0.851 0.633-0.06 0.409 0.22 0.79 0.63 0.851z"></path>
	<path d="m119.04 86.043c0.65 0.043 1.308 0.092 1.969 0.145 0.021 0.002 0.04 0.002 0.061 0.002 0.387 0 0.715-0.297 0.747-0.69 0.032-0.413-0.275-0.774-0.688-0.808-0.667-0.054-1.33-0.102-1.988-0.146-0.383-0.017-0.771 0.285-0.798 0.698-0.02 0.413 0.29 0.771 0.7 0.799z"></path>
	<path d="m64.596 108.37c0.414 0 0.75-0.336 0.75-0.75v-1.981c0-0.414-0.336-0.75-0.75-0.75s-0.75 0.336-0.75 0.75v1.981c0 0.41 0.336 0.75 0.75 0.75z"></path>
	<path d="m64.596 113.32c0.414 0 0.75-0.336 0.75-0.75v-1.981c0-0.414-0.336-0.75-0.75-0.75s-0.75 0.336-0.75 0.75v1.981c0 0.41 0.336 0.75 0.75 0.75z"></path>
	<path d="m67.091 124.36c-0.287-0.299-0.761-0.308-1.061-0.021-0.299 0.286-0.309 0.762-0.022 1.061 0.458 0.478 0.996 0.94 1.598 1.375 0.133 0.097 0.287 0.143 0.439 0.143 0.232 0 0.461-0.107 0.608-0.311 0.243-0.336 0.167-0.805-0.168-1.047-0.529-0.39-0.998-0.79-1.394-1.2z"></path>
	<path d="m64.596 118.27c0.414 0 0.75-0.336 0.75-0.75v-1.981c0-0.414-0.336-0.75-0.75-0.75s-0.75 0.336-0.75 0.75v1.981c0 0.42 0.336 0.75 0.75 0.75z"></path>
	<path d="m65.348 120.47c-0.011-0.414-0.368-0.747-0.77-0.729-0.414 0.012-0.741 0.356-0.729 0.771 0.02 0.741 0.157 1.467 0.41 2.155 0.111 0.304 0.398 0.492 0.704 0.492 0.085 0 0.173-0.015 0.258-0.046 0.389-0.142 0.589-0.573 0.446-0.962-0.196-0.52-0.303-1.09-0.319-1.67z"></path>
	<path d="m66.791 93.688c0.369-0.431 0.814-0.852 1.326-1.252 0.326-0.255 0.383-0.727 0.128-1.053-0.256-0.326-0.726-0.383-1.053-0.128-0.589 0.461-1.107 0.952-1.541 1.458-0.269 0.314-0.232 0.788 0.082 1.058 0.142 0.121 0.315 0.18 0.487 0.18 0.212-0.001 0.423-0.09 0.571-0.263z"></path>
	<path d="m70.164 91.014c0.116 0 0.233-0.027 0.343-0.083 0.536-0.276 1.123-0.547 1.744-0.805 0.383-0.159 0.564-0.598 0.405-0.98-0.16-0.382-0.599-0.565-0.98-0.405-0.659 0.274-1.283 0.562-1.855 0.856-0.368 0.19-0.513 0.642-0.324 1.01 0.133 0.259 0.395 0.407 0.667 0.407z"></path>
	<path d="m79.559 87.936c0.052 0 0.104-0.005 0.157-0.016 0.633-0.135 1.275-0.261 1.925-0.38 0.408-0.075 0.678-0.465 0.603-0.873s-0.468-0.68-0.873-0.603c-0.664 0.121-1.32 0.251-1.967 0.388-0.405 0.086-0.664 0.484-0.578 0.89 0.075 0.352 0.386 0.594 0.733 0.594z"></path>
	<path d="m74.76 89.176c0.074 0 0.15-0.011 0.225-0.034 0.607-0.191 1.233-0.372 1.874-0.542 0.4-0.107 0.638-0.518 0.531-0.918s-0.518-0.638-0.918-0.531c-0.662 0.177-1.309 0.363-1.937 0.56-0.395 0.124-0.615 0.545-0.491 0.94 0.101 0.32 0.397 0.525 0.716 0.525z"></path>
	<path d="m64.596 103.41c0.414 0 0.75-0.336 0.75-0.75v-1.98c0-0.414-0.336-0.75-0.75-0.75s-0.75 0.336-0.75 0.75v1.98c0 0.42 0.336 0.75 0.75 0.75z"></path>
	<path d="m64.596 98.461c0.414 0 0.75-0.336 0.75-0.75v-0.317c0-0.491 0.064-0.971 0.19-1.426 0.111-0.399-0.124-0.812-0.522-0.923-0.4-0.11-0.812 0.123-0.923 0.522-0.163 0.586-0.245 1.201-0.245 1.827v0.317c0 0.415 0.336 0.75 0.75 0.75z"></path>
</svg>
