<?xml version="1.0"?>

<!-- Generator: Adobe Illustrator 17.1.0, SVG Export Plug-In . SVG Version: 6.00 Build 0)  -->

<svg id="Layer_1" xmlns="http://www.w3.org/2000/svg" xml:space="preserve" viewBox="0 0 216 216" version="1.1" y="0px" x="0px" xmlns:xlink="http://www.w3.org/1999/xlink" enable-background="new 0 0 216 216" width="216" height="216">
<path d="m86.537 136.01c-1.024 0-1.987-0.399-2.712-1.124l-2.567-2.568c-1.507-1.508-1.523-3.977-0.036-5.504l18.302-18.773c0.539-0.552 0.986-1.016 1.314-1.358-0.31-0.312-0.747-0.755-1.37-1.386l-18.24-18.485c-1.5-1.52-1.492-3.985 0.019-5.496l2.552-2.552c1.462-1.463 4.025-1.456 5.479 0.017l18.338 18.563c0.52 0.526 0.997 1.009 1.358 1.374 0.343-0.33 0.805-0.78 1.354-1.321l18.793-18.466c0.731-0.718 1.703-1.114 2.737-1.114 1.047 0 2.027 0.404 2.762 1.139l1.99 1.989c1.506 1.506 1.527 3.978 0.049 5.511l-18.191 18.845c-0.573 0.594-1.003 1.039-1.331 1.372 0.354 0.36 0.822 0.835 1.333 1.353l18.364 18.608c1.5 1.52 1.492 3.985-0.018 5.495l-2.553 2.553c-1.464 1.464-4.025 1.455-5.479-0.017l-18.461-18.687c-0.56-0.566-1.03-1.036-1.375-1.378-0.332 0.332-0.787 0.793-1.347 1.37l-18.312 18.875c-0.716 0.77-1.694 1.19-2.741 1.19zm16.373-30.08c0.179 0.168 0.292 0.398 0.312 0.646 0.041 0.493 0.041 0.493-2.268 2.86l-18.302 18.773c-0.728 0.747-0.72 1.955 0.018 2.693l2.567 2.568c0.703 0.702 1.927 0.691 2.617-0.02l18.311-18.875c2.292-2.361 2.292-2.361 2.784-2.361 0.058 0 0.115 0.005 0.172 0.015 0.377 0.066 0.377 0.066 2.624 2.341l18.461 18.686c0.699 0.709 1.938 0.715 2.643 0.009l2.553-2.553c0.735-0.735 0.739-1.937 0.009-2.677l-18.364-18.608c-2.485-2.519-2.485-2.519-2.227-3.138 0.054-0.129 0.133-0.242 0.23-0.335 0.114-0.116 0.962-0.991 1.979-2.045l18.19-18.845c0.727-0.753 0.716-1.968-0.023-2.707l-1.99-1.989c-0.709-0.709-1.97-0.715-2.683-0.012l-18.78 18.453c-2.329 2.289-2.329 2.289-2.779 2.289-0.21 0-0.414-0.066-0.585-0.189-0.087-0.062-0.096-0.069-2.174-2.174l-18.335-18.563c-0.701-0.708-1.938-0.712-2.642-0.008l-2.552 2.552c-0.736 0.736-0.74 1.937-0.009 2.677l18.24 18.485c1.04 1.05 1.91 1.92 2.02 2.04z"></path>
</svg>
