<?xml version="1.0"?>

<!-- Generator: Adobe Illustrator 17.1.0, SVG Export Plug-In . SVG Version: 6.00 Build 0)  -->

<svg id="Layer_1" xmlns="http://www.w3.org/2000/svg" xml:space="preserve" viewBox="0 0 216 216" version="1.1" y="0px" x="0px" xmlns:xlink="http://www.w3.org/1999/xlink" enable-background="new 0 0 216 216" width="216" height="216">
		<path d="m139.04 103.88c-2.93-9.574-11.859-16.211-21.922-16.211-10.088 0-18.943 6.576-21.9 16.121-1.645-0.586-3.361-0.883-5.119-0.883-7.135 0-13.274 4.908-14.891 11.783-6.375 0.234-11.746 4.662-13.166 10.932-0.062 0.281 0.004 0.578 0.186 0.805 0.18 0.225 0.453 0.357 0.742 0.357h32.793c-0.147 1.019-0.227 2.058-0.227 3.116 0 11.957 9.727 21.686 21.683 21.686 11.959 0 21.688-9.729 21.688-21.686 0-1.059-0.08-2.098-0.228-3.116h14.321c0.463 0 0.859-0.334 0.938-0.791 0.201-1.164 0.299-2.236 0.299-3.277-0.01-9.09-6.36-16.92-15.2-18.83zm-21.82 45.71c-10.854 0-19.683-8.831-19.683-19.686 0-10.854 8.83-19.685 19.683-19.685 10.855 0 19.688 8.831 19.688 19.685-0.01 10.86-8.84 19.69-19.69 19.69zm34.96-24.71h-13.87c-2.271-9.545-10.863-16.667-21.095-16.667-10.229 0-18.82 7.122-21.091 16.667h-31.914c1.637-4.941 6.215-8.295 11.586-8.295h0.008l0.146 0.006c0.482 0.045 0.875-0.32 0.959-0.781 1.154-6.375 6.697-11.002 13.18-11.002 1.736 0 3.422 0.344 5.027 0.996 0.992 0.482 3.113 1.709 4.422 3.908 0.156 0.26 0.451 0.387 0.738 0.336 0.082-0.016 0.164-0.043 0.24-0.09 0.338-0.201 0.449-0.639 0.248-0.977-1.127-1.891-2.729-3.137-3.949-3.877 2.471-9.156 10.781-15.535 20.293-15.535 9.141 0 17.201 5.844 19.965 14.49-2.455-0.016-4.279 0.871-4.389 0.916-0.361 0.15-0.537 0.566-0.385 0.932 0.15 0.363 0.566 0.537 0.93 0.387 0.027-0.012 2.541-1.012 5.4-0.539 7.965 1.721 13.695 8.76 13.695 16.959 0.01 0.69-0.04 1.41-0.14 2.16z"></path>
		<path d="m127.54 137.31v-6.059c1.085-0.232 1.902-1.196 1.902-2.349 0-1.324-1.078-2.402-2.402-2.402-1.152 0-2.117 0.817-2.349 1.902h-5.131c-0.197-0.924-0.925-1.651-1.849-1.849v-5.93c1.085-0.231 1.902-1.196 1.902-2.349 0-1.324-1.078-2.402-2.402-2.402s-2.402 1.078-2.402 2.402c0 1.152 0.817 2.117 1.902 2.349v5.93c-0.924 0.197-1.651 0.925-1.849 1.849h-5.396c-0.231-1.085-1.196-1.902-2.349-1.902-1.325 0-2.402 1.078-2.402 2.402 0 1.152 0.817 2.117 1.902 2.349v6.059c-1.085 0.231-1.902 1.196-1.902 2.349 0 1.324 1.078 2.402 2.402 2.402s2.402-1.078 2.402-2.402c0-1.152-0.817-2.117-1.902-2.349v-6.059c0.924-0.197 1.651-0.925 1.849-1.849h5.396c0.197 0.924 0.925 1.651 1.849 1.849v6.059c-1.085 0.231-1.902 1.196-1.902 2.349 0 1.324 1.078 2.402 2.402 2.402s2.402-1.078 2.402-2.402c0-1.152-0.817-2.117-1.902-2.349v-6.059c0.924-0.197 1.651-0.925 1.849-1.849h5.131c0.197 0.924 0.925 1.651 1.849 1.849v6.059c-1.085 0.231-1.902 1.196-1.902 2.349 0 1.324 1.078 2.402 2.402 2.402s2.402-1.078 2.402-2.402c0.01-1.15-0.81-2.12-1.9-2.35zm-19.02 2.35c0 0.773-0.629 1.402-1.402 1.402s-1.402-0.629-1.402-1.402 0.629-1.402 1.402-1.402c0.78 0 1.4 0.62 1.4 1.4zm-1.4-9.36c-0.773 0-1.402-0.629-1.402-1.402s0.629-1.402 1.402-1.402 1.402 0.629 1.402 1.402c0 0.78-0.62 1.4-1.4 1.4zm8.69-12.02c0-0.773 0.629-1.402 1.402-1.402s1.402 0.629 1.402 1.402-0.629 1.402-1.402 1.402-1.4-0.63-1.4-1.4zm2.81 21.38c0 0.773-0.629 1.402-1.402 1.402s-1.402-0.629-1.402-1.402c0-0.773 0.629-1.402 1.402-1.402s1.4 0.62 1.4 1.4zm-1.4-9.36c-0.773 0-1.402-0.629-1.402-1.402s0.629-1.402 1.402-1.402 1.402 0.629 1.402 1.402c0 0.78-0.63 1.4-1.4 1.4zm8.42-1.4c0-0.773 0.629-1.402 1.402-1.402s1.402 0.629 1.402 1.402-0.629 1.402-1.402 1.402c-0.77 0-1.4-0.62-1.4-1.4zm1.4 12.16c-0.773 0-1.402-0.629-1.402-1.402s0.629-1.402 1.402-1.402 1.402 0.629 1.402 1.402c0.01 0.77-0.62 1.4-1.4 1.4z"></path>
</svg>
