<?xml version="1.0"?>

<!-- Generator: Adobe Illustrator 17.1.0, SVG Export Plug-In . SVG Version: 6.00 Build 0)  -->

<svg id="Layer_1" xmlns="http://www.w3.org/2000/svg" xml:space="preserve" viewBox="0 0 216 216" version="1.1" y="0px" x="0px" xmlns:xlink="http://www.w3.org/1999/xlink" enable-background="new 0 0 216 216" width="216" height="216">
	<path d="m78.844 75.888c-0.464 0.198-0.684 0.703-0.557 1.176-0.023 0.085-0.052 0.167-0.052 0.259v33.118c0 0.023 0.011 0.043 0.014 0.066-0.003 0.023-0.014 0.041-0.014 0.064v33.121c0 0.551 0.446 0.998 1 0.998h57.528c0.554 0 1.001-0.447 1.001-0.998v-33.121c0-0.023-0.013-0.041-0.015-0.064 0.002-0.023 0.015-0.043 0.015-0.066v-33.117c0-0.094-0.03-0.177-0.054-0.262 0.12-0.452-0.071-0.937-0.508-1.151l-9.195-4.5c-0.137-0.066-0.287-0.102-0.438-0.102h-37.742c-0.135 0-0.268 0.027-0.392 0.079l-10.582 4.501zm56.916 66.802h-55.53v-14.561h55.53v14.56zm0-16.55h-55.53v-14.562h55.53v14.56zm0-16.7h-55.53v-14.558h55.53v14.558zm0-24.961v8.405h-55.53v-14.561h55.53v6.156zm-45.739-11.171h37.317l6.16 3.014h-50.568l7.089-3.014z"></path>
	<circle cy="85.36" cx="85.291" r="1.375"></circle>
	<circle cy="85.36" cx="90.17" r="1.375"></circle>
	<circle cy="102.36" cx="85.291" r="1.375"></circle>
	<circle cy="102.36" cx="90.17" r="1.375"></circle>
	<circle cy="118.36" cx="85.291" r="1.374"></circle>
	<circle cy="118.36" cx="90.17" r="1.374"></circle>
	<circle cy="135.36" cx="85.291" r="1.375"></circle>
	<circle cy="135.36" cx="90.17" r="1.375"></circle>
	<path d="m129.5 90h2.998c0.276 0 0.501-0.224 0.501-0.5v-8c0-0.276-0.225-0.5-0.501-0.5h-2.998c-0.276 0-0.501 0.224-0.501 0.5v8c0 0.276 0.22 0.5 0.5 0.5zm0.5-8h2v7h-2v-7z"></path>
	<path d="m123.5 90h3c0.276 0 0.5-0.224 0.5-0.5v-8c0-0.276-0.224-0.5-0.5-0.5h-3c-0.276 0-0.5 0.224-0.5 0.5v8c0 0.276 0.22 0.5 0.5 0.5zm0.5-8h2v7h-2v-7z"></path>
	<path d="m129.5 107h2.998c0.276 0 0.501-0.224 0.501-0.5v-8c0-0.276-0.225-0.5-0.501-0.5h-2.998c-0.276 0-0.501 0.224-0.501 0.5v8c0 0.28 0.22 0.5 0.5 0.5zm0.5-8h2v7h-2v-7z"></path>
	<path d="m123.5 107h3c0.276 0 0.5-0.224 0.5-0.5v-8c0-0.276-0.224-0.5-0.5-0.5h-3c-0.276 0-0.5 0.224-0.5 0.5v8c0 0.28 0.22 0.5 0.5 0.5zm0.5-8h2v7h-2v-7z"></path>
	<path d="m129.5 123h2.998c0.276 0 0.501-0.412 0.501-0.689v-8c0-0.275-0.225-0.311-0.501-0.311h-2.998c-0.276 0-0.501 0.035-0.501 0.311v8c0 0.28 0.22 0.69 0.5 0.69zm0.5-8h2v7h-2v-7z"></path>
	<path d="m123.5 123h3c0.276 0 0.5-0.412 0.5-0.689v-8c0-0.275-0.224-0.311-0.5-0.311h-3c-0.276 0-0.5 0.035-0.5 0.311v8c0 0.28 0.22 0.69 0.5 0.69zm0.5-8h2v7h-2v-7z"></path>
	<path d="m129.5 140h2.998c0.276 0 0.501-0.412 0.501-0.689v-8c0-0.275-0.225-0.311-0.501-0.311h-2.998c-0.276 0-0.501 0.035-0.501 0.311v8c0 0.28 0.22 0.69 0.5 0.69zm0.5-8h2v7h-2v-7z"></path>
	<path d="m123.5 140h3c0.276 0 0.5-0.412 0.5-0.689v-8c0-0.275-0.224-0.311-0.5-0.311h-3c-0.276 0-0.5 0.035-0.5 0.311v8c0 0.28 0.22 0.69 0.5 0.69zm0.5-8h2v7h-2v-7z"></path>
	<path d="m74.851 73.764c-0.436 0.635-0.735 1.372-0.867 2.131-0.071 0.408 0.202 0.796 0.61 0.867 0.043 0.008 0.086 0.011 0.129 0.011 0.358 0 0.674-0.257 0.738-0.622 0.096-0.548 0.312-1.081 0.627-1.54 0.234-0.342 0.147-0.809-0.194-1.043-0.342-0.231-0.809-0.146-1.043 0.196z"></path>
	<path d="m129.21 147.54h-1.997c-0.414 0-0.75 0.336-0.75 0.75s0.336 0.75 0.75 0.75h1.997c0.414 0 0.75-0.336 0.75-0.75 0-0.41-0.33-0.75-0.75-0.75z"></path>
	<path d="m124.22 147.54h-1.997c-0.414 0-0.75 0.336-0.75 0.75s0.336 0.75 0.75 0.75h1.997c0.414 0 0.75-0.336 0.75-0.75 0-0.41-0.34-0.75-0.75-0.75z"></path>
	<path d="m114.23 147.54h-1.997c-0.414 0-0.75 0.336-0.75 0.75s0.336 0.75 0.75 0.75h1.997c0.414 0 0.75-0.336 0.75-0.75 0-0.41-0.33-0.75-0.75-0.75z"></path>
	<path d="m119.23 147.54h-1.997c-0.414 0-0.75 0.336-0.75 0.75s0.336 0.75 0.75 0.75h1.997c0.414 0 0.75-0.336 0.75-0.75 0-0.41-0.34-0.75-0.75-0.75z"></path>
	<path d="m138.71 147.01c-0.486 0.285-1.017 0.456-1.577 0.511-0.413 0.039-0.715 0.405-0.675 0.817 0.037 0.389 0.363 0.679 0.745 0.679 0.024 0 0.048-0.001 0.072-0.004 0.78-0.074 1.518-0.312 2.192-0.708 0.357-0.21 0.478-0.669 0.269-1.026-0.21-0.36-0.67-0.48-1.02-0.27z"></path>
	<path d="m134.21 147.54h-1.997c-0.414 0-0.75 0.336-0.75 0.75s0.336 0.75 0.75 0.75h1.997c0.414 0 0.75-0.336 0.75-0.75 0-0.41-0.34-0.75-0.75-0.75z"></path>
	<path d="m109.24 147.54h-1.997c-0.414 0-0.75 0.336-0.75 0.75s0.336 0.75 0.75 0.75h1.997c0.414 0 0.75-0.336 0.75-0.75 0-0.41-0.34-0.75-0.75-0.75z"></path>
	<path d="m94.26 147.54h-1.997c-0.414 0-0.75 0.336-0.75 0.75s0.336 0.75 0.75 0.75h1.997c0.414 0 0.75-0.336 0.75-0.75 0-0.41-0.336-0.75-0.75-0.75z"></path>
	<path d="m89.267 147.54h-1.997c-0.414 0-0.75 0.336-0.75 0.75s0.336 0.75 0.75 0.75h1.997c0.414 0 0.75-0.336 0.75-0.75 0-0.41-0.336-0.75-0.75-0.75z"></path>
	<path d="m84.274 147.54h-1.998c-0.414 0-0.75 0.336-0.75 0.75s0.336 0.75 0.75 0.75h1.998c0.414 0 0.75-0.336 0.75-0.75 0-0.41-0.336-0.75-0.75-0.75z"></path>
	<path d="m99.253 147.54h-1.997c-0.414 0-0.75 0.336-0.75 0.75s0.336 0.75 0.75 0.75h1.997c0.414 0 0.75-0.336 0.75-0.75 0-0.41-0.332-0.75-0.747-0.75z"></path>
	<path d="m104.25 147.54h-1.997c-0.414 0-0.75 0.336-0.75 0.75s0.336 0.75 0.75 0.75h1.997c0.414 0 0.75-0.336 0.75-0.75 0-0.41-0.34-0.75-0.75-0.75z"></path>
	<path d="m141.36 142.74c-0.414 0-0.75 0.336-0.75 0.75v0.203c0 0.505-0.097 0.997-0.288 1.463-0.158 0.383 0.025 0.821 0.408 0.979 0.093 0.039 0.189 0.057 0.285 0.057 0.295 0 0.574-0.175 0.693-0.465 0.267-0.647 0.401-1.331 0.401-2.033v-0.203c0-0.41-0.33-0.75-0.75-0.75z"></path>
	<path d="m141.36 137.75c-0.414 0-0.75 0.336-0.75 0.75v1.997c0 0.414 0.336 0.75 0.75 0.75s0.75-0.336 0.75-0.75v-1.997c0-0.42-0.33-0.75-0.75-0.75z"></path>
	<path d="m141.36 87.815c-0.414 0-0.75 0.336-0.75 0.75v1.997c0 0.414 0.336 0.75 0.75 0.75s0.75-0.336 0.75-0.75v-1.997c0-0.415-0.33-0.75-0.75-0.75z"></path>
	<path d="m141.36 92.808c-0.414 0-0.75 0.336-0.75 0.75v1.997c0 0.414 0.336 0.75 0.75 0.75s0.75-0.336 0.75-0.75v-1.997c0-0.414-0.33-0.75-0.75-0.75z"></path>
	<path d="m141.36 97.801c-0.414 0-0.75 0.336-0.75 0.75v1.997c0 0.414 0.336 0.75 0.75 0.75s0.75-0.336 0.75-0.75v-1.997c0-0.416-0.33-0.752-0.75-0.752z"></path>
	<path d="m79.235 147.54c-0.565 0-1.109-0.12-1.618-0.356-0.376-0.176-0.821-0.013-0.997 0.363-0.174 0.376-0.012 0.821 0.364 0.996 0.709 0.33 1.466 0.497 2.251 0.497h0.045c0.414 0 0.728-0.336 0.728-0.75 0-0.41-0.359-0.75-0.773-0.75z"></path>
	<path d="m141.36 102.79c-0.414 0-0.75 0.336-0.75 0.75v1.998c0 0.414 0.336 0.75 0.75 0.75s0.75-0.336 0.75-0.75v-1.998c0-0.41-0.33-0.75-0.75-0.75z"></path>
	<path d="m141.36 82.821c-0.414 0-0.75 0.336-0.75 0.75v1.998c0 0.414 0.336 0.75 0.75 0.75s0.75-0.336 0.75-0.75v-1.998c0-0.414-0.33-0.75-0.75-0.75z"></path>
	<path d="m141.36 77.828c-0.414 0-0.75 0.336-0.75 0.75v1.998c0 0.414 0.336 0.75 0.75 0.75s0.75-0.336 0.75-0.75v-1.998c0-0.414-0.33-0.75-0.75-0.75z"></path>
	<path d="m141.36 122.77c-0.414 0-0.75 0.336-0.75 0.75v1.998c0 0.414 0.336 0.75 0.75 0.75s0.75-0.336 0.75-0.75v-1.998c0-0.42-0.33-0.75-0.75-0.75z"></path>
	<path d="m141.36 127.76c-0.414 0-0.75 0.336-0.75 0.75v1.998c0 0.414 0.336 0.75 0.75 0.75s0.75-0.336 0.75-0.75v-1.998c0-0.41-0.33-0.75-0.75-0.75z"></path>
	<path d="m141.36 107.79c-0.414 0-0.75 0.336-0.75 0.75v1.997c0 0.414 0.336 0.75 0.75 0.75s0.75-0.336 0.75-0.75v-1.997c0-0.42-0.33-0.75-0.75-0.75z"></path>
	<path d="m141.36 132.75c-0.414 0-0.75 0.336-0.75 0.75v1.998c0 0.414 0.336 0.75 0.75 0.75s0.75-0.336 0.75-0.75v-1.998c0-0.41-0.33-0.75-0.75-0.75z"></path>
	<path d="m141.36 117.77c-0.414 0-0.75 0.336-0.75 0.75v1.997c0 0.414 0.336 0.75 0.75 0.75s0.75-0.336 0.75-0.75v-1.997c0-0.41-0.33-0.75-0.75-0.75z"></path>
	<path d="m141.36 112.78c-0.414 0-0.75 0.336-0.75 0.75v1.997c0 0.414 0.336 0.75 0.75 0.75s0.75-0.336 0.75-0.75v-1.997c0-0.41-0.33-0.75-0.75-0.75z"></path>
	<path d="m101.85 68.458h1.997c0.414 0 0.75-0.336 0.75-0.75s-0.336-0.75-0.75-0.75h-1.997c-0.414 0-0.75 0.336-0.75 0.75s0.34 0.75 0.75 0.75z"></path>
	<path d="m91.866 68.458h1.998c0.414 0 0.75-0.336 0.75-0.75s-0.336-0.75-0.75-0.75h-1.998c-0.414 0-0.75 0.336-0.75 0.75s0.336 0.75 0.75 0.75z"></path>
	<path d="m106.85 68.458h1.998c0.414 0 0.75-0.336 0.75-0.75s-0.336-0.75-0.75-0.75h-1.998c-0.414 0-0.75 0.336-0.75 0.75s0.33 0.75 0.75 0.75z"></path>
	<path d="m140.46 75.794c0.091 0.334 0.393 0.554 0.724 0.554 0.065 0 0.131-0.008 0.196-0.026 0.4-0.108 0.636-0.521 0.527-0.92-0.202-0.746-0.57-1.452-1.064-2.042-0.268-0.32-0.739-0.361-1.057-0.094-0.317 0.266-0.359 0.739-0.094 1.056 0.35 0.425 0.62 0.934 0.76 1.472z"></path>
	<path d="m96.859 68.458h1.998c0.414 0 0.75-0.336 0.75-0.75s-0.336-0.75-0.75-0.75h-1.998c-0.414 0-0.75 0.336-0.75 0.75s0.336 0.75 0.75 0.75z"></path>
	<path d="m87.01 69.253c0.098 0 0.197-0.019 0.293-0.06l1.003-0.427c0.239-0.1 0.482-0.176 0.724-0.227 0.405-0.085 0.665-0.482 0.58-0.888-0.084-0.406-0.485-0.668-0.888-0.58-0.334 0.07-0.668 0.174-0.999 0.312l-1.008 0.429c-0.381 0.162-0.559 0.603-0.396 0.983 0.122 0.287 0.399 0.458 0.691 0.458z"></path>
	<path d="m82.415 71.207c0.098 0 0.197-0.019 0.293-0.059l1.838-0.782c0.381-0.162 0.559-0.603 0.397-0.984s-0.603-0.559-0.984-0.397l-1.838 0.782c-0.381 0.162-0.559 0.603-0.397 0.984 0.122 0.285 0.399 0.456 0.691 0.456z"></path>
	<path d="m77.82 73.162c0.098 0 0.197-0.019 0.293-0.06l1.838-0.782c0.381-0.162 0.559-0.603 0.396-0.983-0.161-0.381-0.601-0.56-0.983-0.396l-1.838 0.782c-0.381 0.162-0.559 0.603-0.396 0.983 0.121 0.285 0.398 0.456 0.69 0.456z"></path>
	<path d="m111.84 68.458h1.998c0.414 0 0.75-0.336 0.75-0.75s-0.336-0.75-0.75-0.75h-1.998c-0.414 0-0.75 0.336-0.75 0.75s0.33 0.75 0.75 0.75z"></path>
	<path d="m131.19 69.795l1.794 0.878c0.106 0.052 0.219 0.076 0.329 0.076 0.277 0 0.545-0.154 0.675-0.42 0.182-0.372 0.028-0.821-0.344-1.003l-1.794-0.878c-0.374-0.181-0.822-0.027-1.004 0.344-0.18 0.372-0.03 0.821 0.34 1.003z"></path>
	<path d="m135.68 71.99l1.794 0.878c0.106 0.052 0.219 0.076 0.329 0.076 0.277 0 0.545-0.154 0.675-0.42 0.182-0.372 0.028-0.821-0.344-1.003l-1.794-0.878c-0.375-0.182-0.822-0.028-1.004 0.344-0.2 0.372-0.05 0.821 0.33 1.003z"></path>
	<path d="m75.39 143.89c-0.021-0.414-0.363-0.732-0.788-0.711-0.414 0.021-0.731 0.374-0.71 0.787 0.04 0.783 0.246 1.531 0.612 2.222 0.134 0.255 0.395 0.399 0.663 0.399 0.119 0 0.239-0.028 0.351-0.087 0.366-0.194 0.505-0.648 0.312-1.014-0.264-0.5-0.411-1.04-0.44-1.6z"></path>
	<path d="m116.83 68.458h1.998c0.414 0 0.75-0.336 0.75-0.75s-0.336-0.75-0.75-0.75h-1.998c-0.414 0-0.75 0.336-0.75 0.75s0.34 0.75 0.75 0.75z"></path>
	<path d="m121.83 68.458h1.997c0.414 0 0.75-0.336 0.75-0.75s-0.336-0.75-0.75-0.75h-1.997c-0.414 0-0.75 0.336-0.75 0.75s0.33 0.75 0.75 0.75z"></path>
	<path d="m126.82 68.458h0.751c0.345 0 0.691 0.047 1.031 0.142 0.066 0.018 0.134 0.027 0.199 0.027 0.329 0 0.631-0.218 0.723-0.55 0.11-0.399-0.124-0.812-0.523-0.923-0.47-0.129-0.95-0.195-1.43-0.195h-0.751c-0.414 0-0.75 0.336-0.75 0.75 0 0.413 0.33 0.749 0.75 0.749z"></path>
	<path d="m74.635 131.7c0.414 0 0.75-0.336 0.75-0.75v-1.997c0-0.414-0.336-0.75-0.75-0.75s-0.75 0.336-0.75 0.75v1.997c0 0.41 0.336 0.75 0.75 0.75z"></path>
	<path d="m74.635 126.7c0.414 0 0.75-0.336 0.75-0.75v-1.997c0-0.414-0.336-0.75-0.75-0.75s-0.75 0.336-0.75 0.75v1.997c0 0.42 0.336 0.75 0.75 0.75z"></path>
	<path d="m74.635 121.71c0.414 0 0.75-0.336 0.75-0.75v-1.997c0-0.414-0.336-0.75-0.75-0.75s-0.75 0.336-0.75 0.75v1.997c0 0.41 0.336 0.75 0.75 0.75z"></path>
	<path d="m74.635 136.69c0.414 0 0.75-0.336 0.75-0.75v-1.997c0-0.414-0.336-0.75-0.75-0.75s-0.75 0.336-0.75 0.75v1.997c0 0.41 0.336 0.75 0.75 0.75z"></path>
	<path d="m74.635 141.68c0.414 0 0.75-0.336 0.75-0.75v-1.997c0-0.414-0.336-0.75-0.75-0.75s-0.75 0.336-0.75 0.75v1.997c0 0.42 0.336 0.75 0.75 0.75z"></path>
	<path d="m74.635 116.72c0.414 0 0.75-0.336 0.75-0.75v-1.998c0-0.414-0.336-0.75-0.75-0.75s-0.75 0.336-0.75 0.75v1.998c0 0.41 0.336 0.75 0.75 0.75z"></path>
	<path d="m74.635 106.73c0.414 0 0.75-0.336 0.75-0.75v-1.997c0-0.414-0.336-0.75-0.75-0.75s-0.75 0.336-0.75 0.75v1.997c0 0.41 0.336 0.75 0.75 0.75z"></path>
	<path d="m74.635 96.743c0.414 0 0.75-0.336 0.75-0.75v-1.998c0-0.414-0.336-0.75-0.75-0.75s-0.75 0.336-0.75 0.75v1.998c0 0.414 0.336 0.75 0.75 0.75z"></path>
	<path d="m74.635 91.75c0.414 0 0.75-0.336 0.75-0.75v-1.998c0-0.414-0.336-0.75-0.75-0.75s-0.75 0.336-0.75 0.75v1.998c0 0.414 0.336 0.75 0.75 0.75z"></path>
	<path d="m74.635 86.756c0.414 0 0.75-0.336 0.75-0.75v-1.997c0-0.414-0.336-0.75-0.75-0.75s-0.75 0.336-0.75 0.75v1.997c0 0.414 0.336 0.75 0.75 0.75z"></path>
	<path d="m74.635 101.74c0.414 0 0.75-0.336 0.75-0.75v-1.997c0-0.414-0.336-0.75-0.75-0.75s-0.75 0.336-0.75 0.75v1.997c0 0.41 0.336 0.75 0.75 0.75z"></path>
	<path d="m74.635 81.763c0.414 0 0.75-0.336 0.75-0.75v-1.997c0-0.414-0.336-0.75-0.75-0.75s-0.75 0.336-0.75 0.75v1.997c0 0.414 0.336 0.75 0.75 0.75z"></path>
	<path d="m74.635 111.72c0.414 0 0.75-0.336 0.75-0.75v-1.998c0-0.414-0.336-0.75-0.75-0.75s-0.75 0.336-0.75 0.75v1.998c0 0.42 0.336 0.75 0.75 0.75z"></path>
</svg>
