<?xml version="1.0"?>

<!-- Generator: Adobe Illustrator 17.1.0, SVG Export Plug-In . SVG Version: 6.00 Build 0)  -->

<svg id="Layer_1" xmlns="http://www.w3.org/2000/svg" xml:space="preserve" viewBox="0 0 216 216" version="1.1" y="0px" x="0px" xmlns:xlink="http://www.w3.org/1999/xlink" enable-background="new 0 0 216 216" width="216" height="216">
	<path d="m99.7 104.29c2.932 0.25 6.016 0.376 9.164 0.376 8.695 0 16.869-0.993 21.867-2.656 0.393-0.131 0.605-0.556 0.475-0.949-0.131-0.393-0.553-0.604-0.949-0.475-4.853 1.615-12.85 2.58-21.392 2.58-3.107 0-6.146-0.125-9.037-0.37-0.41-0.036-0.775 0.271-0.811 0.684-0.029 0.43 0.276 0.79 0.688 0.82z"></path>
	<path d="m86.042 101.4c1.934 0.753 4.473 1.39 7.545 1.893 0.027 0.005 0.055 0.007 0.082 0.007 0.24 0 0.453-0.174 0.492-0.419 0.045-0.272-0.139-0.53-0.412-0.574-2.963-0.485-5.502-1.121-7.344-1.838-0.258-0.101-0.547 0.027-0.648 0.284-0.1 0.26 0.027 0.55 0.285 0.65z"></path>
	<path d="m86.017 79.99c1.93 0.751 4.469 1.388 7.545 1.893 0.027 0.005 0.055 0.007 0.082 0.007 0.24 0 0.453-0.174 0.492-0.419 0.045-0.272-0.139-0.529-0.412-0.574-2.967-0.487-5.506-1.123-7.344-1.838-0.258-0.101-0.547 0.027-0.646 0.284-0.102 0.257 0.025 0.547 0.283 0.647z"></path>
	<path d="m99.675 82.88c2.943 0.25 6.027 0.376 9.164 0.376 8.693 0 16.867-0.993 21.867-2.657 0.393-0.131 0.605-0.556 0.475-0.949-0.131-0.394-0.555-0.603-0.949-0.475-4.855 1.616-12.852 2.581-21.393 2.581-3.096 0-6.135-0.125-9.037-0.37-0.402-0.031-0.775 0.271-0.811 0.684s0.271 0.775 0.683 0.81z"></path>
	<path d="m93.749 123.64c-2.967-0.488-5.506-1.123-7.344-1.838-0.258-0.102-0.547 0.027-0.648 0.283-0.1 0.258 0.027 0.549 0.285 0.648 1.93 0.75 4.469 1.387 7.545 1.893 0.027 0.004 0.055 0.006 0.082 0.006 0.24 0 0.453-0.174 0.492-0.418 0.045-0.27-0.139-0.52-0.412-0.57z"></path>
	<path d="m135.69 135.65v-15.244c0-1.18-0.848-2.188-2.275-3.045 1.428-0.855 2.275-1.863 2.275-3.045v-15.246c0-1.202-0.881-2.226-2.357-3.092 1.461-0.863 2.33-1.883 2.33-3.078v-15.243c0-5.206-16.346-7.096-27.332-7.096-10.988 0-27.334 1.89-27.334 7.096v15.243c0 1.202 0.881 2.226 2.357 3.092-1.463 0.863-2.332 1.883-2.332 3.078v15.243c0 1.182 0.848 2.189 2.275 3.045-1.428 0.857-2.275 1.865-2.275 3.045v15.244c0 5.207 16.346 7.096 27.334 7.096 10.98 0.01 27.33-1.88 27.33-7.09zm-52.691-42.746v-15.243c0-1.778 8.701-5.096 25.334-5.096s25.332 3.317 25.332 5.096v15.243c0 0.567-0.893 1.29-2.637 2.013-0.877 0.364-1.986 0.726-3.295 1.069-4.252 1.113-10.74 2.015-19.4 2.015-8.643 0-15.123-0.898-19.375-2.009-1.311-0.342-2.416-0.702-3.295-1.065-1.747-0.726-2.651-1.454-2.651-2.023zm0.025 21.416v-15.246c0-0.567 0.895-1.29 2.639-2.013 5.658 2.099 15.35 2.94 22.67 2.94 7.33 0 17.041-0.843 22.695-2.949 1.76 0.726 2.664 1.453 2.664 2.022v15.243c0 0.559-0.859 1.268-2.547 1.978-0.861 0.363-1.963 0.723-3.254 1.066-4.248 1.131-10.779 2.051-19.533 2.051s-15.287-0.92-19.535-2.051c-1.291-0.344-2.391-0.703-3.252-1.066-1.679-0.72-2.539-1.42-2.539-1.98zm50.666 21.33c0 1.777-8.701 5.096-25.334 5.096s-25.334-3.318-25.334-5.096v-15.244c0-0.557 0.859-1.266 2.547-1.976 5.641 2.131 15.416 2.982 22.787 2.982 7.369 0 17.145-0.852 22.787-2.982 1.688 0.711 2.547 1.42 2.547 1.976v15.24z"></path>
	<path d="m130.26 121.92c-4.855 1.615-12.851 2.58-21.392 2.58-3.096 0-6.135-0.125-9.037-0.369-0.41-0.037-0.775 0.271-0.811 0.684-0.033 0.412 0.271 0.775 0.684 0.811 2.943 0.25 6.027 0.375 9.164 0.375 8.693 0 16.867-0.992 21.867-2.656 0.393-0.131 0.605-0.557 0.475-0.949-0.14-0.39-0.57-0.6-0.96-0.47z"></path>
	<path d="m78.656 116.19c-0.146-0.389-0.58-0.584-0.967-0.436-0.388 0.146-0.583 0.579-0.437 0.966 0.082 0.217 0.175 0.431 0.279 0.64-0.104 0.21-0.198 0.424-0.279 0.64-0.146 0.387 0.049 0.819 0.437 0.966 0.087 0.033 0.177 0.049 0.265 0.049 0.303 0 0.588-0.185 0.702-0.485 0.102-0.271 0.229-0.538 0.376-0.797 0.132-0.23 0.132-0.514 0-0.744-0.147-0.27-0.273-0.53-0.376-0.81z"></path>
	<path d="m78.315 113.23v-2.182c0-0.414-0.336-0.75-0.75-0.75s-0.75 0.336-0.75 0.75v2.182c0 0.414 0.336 0.75 0.75 0.75s0.75-0.34 0.75-0.75z"></path>
	<path d="m78.315 100.14c0-0.414-0.336-0.75-0.75-0.75s-0.75 0.336-0.75 0.75v2.182c0 0.414 0.336 0.75 0.75 0.75s0.75-0.336 0.75-0.75v-2.18z"></path>
	<path d="m78.315 105.59c0-0.414-0.336-0.75-0.75-0.75s-0.75 0.336-0.75 0.75v2.182c0 0.414 0.336 0.75 0.75 0.75s0.75-0.336 0.75-0.75v-2.18z"></path>
	<path d="m78.653 94.838c-0.151-0.386-0.585-0.577-0.971-0.426-0.386 0.15-0.577 0.585-0.426 0.971 0.083 0.213 0.178 0.424 0.283 0.631-0.104 0.207-0.197 0.419-0.278 0.633-0.147 0.387 0.047 0.82 0.435 0.968 0.088 0.033 0.178 0.049 0.267 0.049 0.302 0 0.587-0.184 0.701-0.483 0.103-0.271 0.23-0.539 0.378-0.795 0.135-0.234 0.134-0.521-0.002-0.754-0.152-0.258-0.282-0.525-0.387-0.794z"></path>
	<path d="m139.4 89.245c-0.414 0-0.75 0.336-0.75 0.75v2.045c0 0.414 0.336 0.75 0.75 0.75s0.75-0.336 0.75-0.75v-2.045c0.01-0.414-0.33-0.75-0.75-0.75z"></path>
	<path d="m140.16 79.769c0-0.414-0.336-0.75-0.75-0.75s-0.75 0.336-0.75 0.75v2.045c0 0.414 0.336 0.75 0.75 0.75s0.75-0.336 0.75-0.75v-2.045z"></path>
	<path d="m138.59 76.822c0.058 0.37 0.377 0.635 0.74 0.635 0.038 0 0.077-0.003 0.116-0.009 0.409-0.064 0.689-0.447 0.626-0.856-0.117-0.752-0.366-1.479-0.741-2.16-0.2-0.363-0.657-0.496-1.019-0.295-0.363 0.2-0.495 0.656-0.296 1.019 0.29 0.526 0.48 1.087 0.57 1.666z"></path>
	<path d="m140.16 84.882c0-0.414-0.336-0.75-0.75-0.75s-0.75 0.336-0.75 0.75v2.045c0 0.414 0.336 0.75 0.75 0.75s0.75-0.336 0.75-0.75v-2.045z"></path>
	<path d="m94.651 68.547c0.033 0 0.066-0.002 0.1-0.006 0.672-0.09 1.345-0.17 2.015-0.242 0.412-0.044 0.71-0.414 0.665-0.826-0.044-0.412-0.42-0.709-0.826-0.666-0.683 0.073-1.368 0.155-2.053 0.246-0.411 0.055-0.699 0.432-0.645 0.843 0.052 0.377 0.374 0.651 0.744 0.651z"></path>
	<path d="m77.495 77.502c0.037 0.006 0.074 0.008 0.111 0.008 0.366 0 0.686-0.268 0.741-0.64 0.086-0.582 0.274-1.146 0.559-1.673 0.196-0.365 0.06-0.82-0.305-1.016-0.364-0.194-0.819-0.06-1.016 0.305-0.367 0.682-0.609 1.41-0.721 2.165-0.062 0.409 0.221 0.79 0.631 0.851z"></path>
	<path d="m99.745 68.027c0.019 0 0.038 0 0.056-0.002 0.689-0.051 1.368-0.094 2.031-0.13 0.414-0.023 0.73-0.376 0.708-0.79-0.023-0.414-0.389-0.728-0.79-0.708-0.673 0.037-1.36 0.081-2.059 0.132-0.413 0.031-0.723 0.39-0.693 0.803 0.029 0.395 0.358 0.695 0.747 0.695z"></path>
	<path d="m89.607 69.423c0.054 0 0.108-0.006 0.163-0.017 0.65-0.144 1.312-0.276 1.98-0.398 0.408-0.074 0.678-0.464 0.604-0.872s-0.469-0.681-0.872-0.604c-0.688 0.124-1.368 0.26-2.037 0.408-0.404 0.09-0.66 0.49-0.57 0.895 0.078 0.351 0.388 0.588 0.732 0.588z"></path>
	<path d="m77.54 82.614c0.414 0 0.75-0.336 0.75-0.75v-2.046c0-0.414-0.336-0.75-0.75-0.75s-0.75 0.336-0.75 0.75v2.046c0 0.414 0.336 0.75 0.75 0.75z"></path>
	<path d="m134.61 72.018c0.596 0.336 1.132 0.696 1.596 1.068 0.139 0.111 0.305 0.165 0.47 0.165 0.219 0 0.437-0.096 0.585-0.28 0.259-0.323 0.208-0.795-0.115-1.055-0.526-0.423-1.131-0.828-1.797-1.204-0.359-0.204-0.817-0.076-1.022 0.284-0.19 0.361-0.07 0.819 0.29 1.022z"></path>
	<path d="m80.224 73.286c0.166 0 0.333-0.055 0.472-0.167 0.462-0.374 0.998-0.736 1.591-1.075 0.36-0.205 0.485-0.663 0.28-1.023-0.205-0.359-0.663-0.484-1.023-0.28-0.664 0.379-1.267 0.787-1.793 1.212-0.322 0.261-0.372 0.733-0.111 1.055 0.149 0.183 0.365 0.278 0.584 0.278z"></path>
	<path d="m77.54 92.841c0.414 0 0.75-0.336 0.75-0.75v-2.045c0-0.414-0.336-0.75-0.75-0.75s-0.75 0.336-0.75 0.75v2.045c0 0.414 0.336 0.75 0.75 0.75z"></path>
	<path d="m77.54 87.728c0.414 0 0.75-0.336 0.75-0.75v-2.045c0-0.414-0.336-0.75-0.75-0.75s-0.75 0.336-0.75 0.75v2.045c0 0.414 0.336 0.75 0.75 0.75z"></path>
	<path d="m84.697 70.852c0.089 0 0.179-0.016 0.267-0.049 0.589-0.225 1.225-0.44 1.89-0.641 0.396-0.12 0.621-0.539 0.501-0.935s-0.539-0.621-0.935-0.5c-0.697 0.211-1.367 0.438-1.988 0.674-0.387 0.147-0.582 0.581-0.435 0.968 0.113 0.299 0.398 0.483 0.7 0.483z"></path>
	<path d="m115.06 67.891c0.663 0.036 1.342 0.079 2.029 0.129 0.019 0.002 0.037 0.002 0.056 0.002 0.389 0 0.718-0.301 0.747-0.695 0.03-0.413-0.28-0.772-0.693-0.803-0.697-0.051-1.386-0.095-2.058-0.131-0.409-0.015-0.767 0.294-0.789 0.708-0.03 0.414 0.29 0.768 0.7 0.79z"></path>
	<path d="m125.14 69c0.668 0.12 1.33 0.251 1.98 0.394 0.055 0.012 0.108 0.018 0.162 0.018 0.345 0 0.654-0.239 0.731-0.589 0.089-0.405-0.167-0.805-0.571-0.894-0.67-0.147-1.35-0.282-2.037-0.406-0.405-0.071-0.798 0.198-0.871 0.605-0.07 0.408 0.2 0.798 0.61 0.872z"></path>
	<path d="m120.13 68.293c0.67 0.072 1.343 0.151 2.015 0.241 0.033 0.004 0.066 0.006 0.1 0.006 0.37 0 0.692-0.274 0.742-0.651 0.055-0.411-0.234-0.788-0.645-0.842-0.686-0.09-1.37-0.172-2.052-0.245-0.424-0.05-0.782 0.254-0.826 0.666-0.04 0.411 0.26 0.781 0.67 0.825z"></path>
	<path d="m130.04 70.147c0.665 0.2 1.302 0.415 1.89 0.638 0.087 0.033 0.177 0.049 0.266 0.049 0.303 0 0.588-0.185 0.701-0.484 0.146-0.387-0.048-0.82-0.436-0.967-0.62-0.235-1.29-0.461-1.989-0.672-0.394-0.119-0.814 0.106-0.934 0.502s0.1 0.814 0.5 0.934z"></path>
	<path d="m104.86 67.767c0.007 0 0.015 0 0.022-0.001 0.713-0.02 1.395-0.034 2.038-0.042 0.414-0.005 0.746-0.345 0.74-0.76-0.005-0.411-0.34-0.74-0.75-0.74h-0.01c-0.649 0.008-1.339 0.022-2.061 0.043-0.414 0.012-0.74 0.357-0.728 0.771 0.01 0.407 0.35 0.729 0.75 0.729z"></path>
	<path d="m109.98 67.725c0.642 0.008 1.322 0.021 2.036 0.041 0.008 0.001 0.015 0.001 0.021 0.001 0.404 0 0.738-0.322 0.75-0.729 0.012-0.414-0.314-0.759-0.729-0.771-0.722-0.021-1.412-0.034-2.062-0.042-0.439-0.046-0.754 0.327-0.759 0.741-0.01 0.414 0.32 0.754 0.74 0.759z"></path>
	<path d="m138.32 97.139c0.115 0.296 0.399 0.477 0.698 0.477 0.091 0 0.184-0.017 0.273-0.051 0.386-0.151 0.576-0.586 0.425-0.972-0.082-0.212-0.178-0.422-0.283-0.63 0.103-0.206 0.195-0.417 0.277-0.632 0.148-0.387-0.046-0.82-0.433-0.968-0.387-0.149-0.82 0.046-0.968 0.433-0.105 0.274-0.232 0.542-0.379 0.796-0.135 0.234-0.134 0.521 0.002 0.754 0.14 0.258 0.27 0.525 0.38 0.793z"></path>
	<path d="m139.43 99.35c-0.414 0-0.75 0.336-0.75 0.75v2.188c0 0.414 0.336 0.75 0.75 0.75s0.75-0.336 0.75-0.75v-2.19c0-0.414-0.33-0.75-0.75-0.75z"></path>
	<path d="m139.43 104.82c-0.414 0-0.75 0.336-0.75 0.75v2.188c0 0.415 0.336 0.75 0.75 0.75s0.75-0.335 0.75-0.75v-2.188c0-0.41-0.33-0.75-0.75-0.75z"></path>
	<path d="m139.43 110.29c-0.414 0-0.75 0.336-0.75 0.75v2.188c0 0.414 0.336 0.75 0.75 0.75s0.75-0.336 0.75-0.75v-2.188c0-0.42-0.33-0.75-0.75-0.75z"></path>
	<path d="m138.34 118.53c0.113 0.301 0.398 0.486 0.702 0.486 0.088 0 0.177-0.016 0.264-0.048 0.388-0.147 0.584-0.578 0.438-0.966-0.081-0.216-0.175-0.43-0.279-0.641 0.104-0.211 0.198-0.425 0.279-0.641 0.146-0.388-0.051-0.819-0.438-0.966-0.385-0.144-0.819 0.051-0.966 0.438-0.102 0.269-0.227 0.537-0.376 0.796-0.132 0.23-0.132 0.514 0 0.744 0.16 0.26 0.29 0.53 0.39 0.8z"></path>
	<path d="m122.18 144.78c-0.672 0.089-1.344 0.169-2.014 0.24-0.411 0.044-0.71 0.414-0.666 0.826 0.041 0.385 0.367 0.67 0.745 0.67 0.026 0 0.054-0.001 0.081-0.004 0.682-0.073 1.366-0.155 2.051-0.246 0.41-0.054 0.699-0.431 0.645-0.842s-0.43-0.71-0.84-0.65z"></path>
	<path d="m139.43 130.76c-0.414 0-0.75 0.336-0.75 0.75v2.044c0 0.414 0.336 0.75 0.75 0.75s0.75-0.336 0.75-0.75v-2.044c0-0.42-0.33-0.75-0.75-0.75z"></path>
	<path d="m136.24 140.22c-0.464 0.371-1 0.73-1.596 1.068-0.36 0.204-0.486 0.662-0.282 1.023 0.138 0.243 0.392 0.38 0.653 0.38 0.125 0 0.252-0.031 0.369-0.098 0.665-0.377 1.269-0.782 1.793-1.203 0.323-0.259 0.376-0.731 0.116-1.054-0.25-0.32-0.73-0.38-1.05-0.12z"></path>
	<path d="m139.43 120.54c-0.414 0-0.75 0.336-0.75 0.75v2.044c0 0.414 0.336 0.75 0.75 0.75s0.75-0.336 0.75-0.75v-2.044c0-0.41-0.33-0.75-0.75-0.75z"></path>
	<path d="m139.48 135.86c-0.403-0.059-0.793 0.215-0.857 0.625-0.091 0.58-0.284 1.141-0.573 1.665-0.199 0.363-0.067 0.819 0.295 1.02 0.115 0.062 0.239 0.093 0.361 0.093 0.265 0 0.521-0.14 0.658-0.388 0.373-0.678 0.622-1.403 0.741-2.157 0.06-0.39-0.22-0.77-0.62-0.84z"></path>
	<path d="m139.43 125.65c-0.414 0-0.75 0.336-0.75 0.75v2.043c0 0.414 0.336 0.75 0.75 0.75s0.75-0.336 0.75-0.75v-2.043c0-0.42-0.33-0.75-0.75-0.75z"></path>
	<path d="m131.97 142.52c-0.593 0.225-1.229 0.438-1.889 0.637-0.396 0.119-0.622 0.538-0.503 0.935 0.098 0.324 0.395 0.534 0.719 0.534 0.071 0 0.144-0.01 0.216-0.031 0.693-0.209 1.363-0.435 1.988-0.672 0.388-0.146 0.582-0.579 0.436-0.967-0.16-0.39-0.6-0.58-0.98-0.44z"></path>
	<path d="m127.16 143.92c-0.649 0.144-1.31 0.275-1.979 0.395-0.407 0.073-0.679 0.463-0.605 0.871 0.066 0.362 0.381 0.617 0.737 0.617 0.044 0 0.089-0.004 0.134-0.012 0.688-0.124 1.368-0.259 2.037-0.406 0.404-0.089 0.659-0.489 0.57-0.895-0.09-0.42-0.5-0.67-0.9-0.58z"></path>
	<path d="m101.89 145.42c-0.662-0.036-1.34-0.078-2.028-0.13-0.406-0.024-0.772 0.278-0.804 0.692-0.031 0.413 0.279 0.772 0.692 0.804 0.698 0.052 1.386 0.096 2.058 0.132 0.014 0.001 0.027 0.001 0.041 0.001 0.396 0 0.727-0.309 0.749-0.709 0.02-0.4-0.3-0.76-0.71-0.78z"></path>
	<path d="m82.357 141.3c-0.594-0.337-1.131-0.696-1.596-1.068-0.324-0.258-0.795-0.205-1.054 0.117-0.259 0.323-0.206 0.796 0.117 1.055 0.527 0.422 1.131 0.826 1.795 1.201 0.117 0.066 0.244 0.098 0.369 0.098 0.261 0 0.515-0.137 0.653-0.381 0.204-0.36 0.077-0.82-0.284-1.02z"></path>
	<path d="m117.14 145.29c-0.689 0.051-1.367 0.093-2.03 0.13-0.413 0.023-0.729 0.377-0.707 0.791 0.022 0.399 0.354 0.708 0.748 0.708 0.015 0 0.028 0 0.043-0.001 0.671-0.037 1.358-0.081 2.056-0.132 0.413-0.03 0.724-0.39 0.693-0.803-0.03-0.42-0.39-0.71-0.8-0.7z"></path>
	<path d="m77.565 134.3c0.414 0 0.75-0.336 0.75-0.75v-2.044c0-0.414-0.336-0.75-0.75-0.75s-0.75 0.336-0.75 0.75v2.044c0 0.42 0.336 0.75 0.75 0.75z"></path>
	<path d="m77.565 125.65c-0.414 0-0.75 0.336-0.75 0.75v2.043c0 0.414 0.336 0.75 0.75 0.75s0.75-0.336 0.75-0.75v-2.04c0-0.41-0.336-0.75-0.75-0.75z"></path>
	<path d="m78.315 121.29c0-0.414-0.336-0.75-0.75-0.75s-0.75 0.336-0.75 0.75v2.044c0 0.414 0.336 0.75 0.75 0.75s0.75-0.336 0.75-0.75v-2.04z"></path>
	<path d="m78.38 136.5c-0.065-0.409-0.448-0.686-0.858-0.624-0.409 0.065-0.688 0.449-0.623 0.858 0.119 0.753 0.369 1.477 0.743 2.156 0.137 0.248 0.393 0.388 0.657 0.388 0.123 0 0.247-0.03 0.361-0.093 0.363-0.2 0.495-0.656 0.295-1.02-0.289-0.54-0.483-1.1-0.575-1.68z"></path>
	<path d="m112.06 145.55c-0.713 0.021-1.393 0.034-2.034 0.042-0.414 0.005-0.746 0.345-0.741 0.759 0.005 0.411 0.34 0.741 0.75 0.741h0.009c0.649-0.008 1.339-0.021 2.06-0.042 0.414-0.012 0.74-0.357 0.729-0.771-0.02-0.42-0.32-0.72-0.78-0.73z"></path>
	<path d="m106.97 145.59c-0.641-0.008-1.322-0.021-2.035-0.042-0.422-0.003-0.759 0.314-0.771 0.729-0.012 0.414 0.314 0.76 0.728 0.771 0.722 0.02 1.411 0.034 2.06 0.042h0.009c0.41 0 0.745-0.33 0.75-0.741 0-0.42-0.33-0.76-0.75-0.76z"></path>
	<path d="m86.924 143.16c-0.659-0.197-1.294-0.412-1.89-0.637-0.385-0.143-0.82 0.05-0.966 0.438s0.049 0.82 0.437 0.967c0.627 0.236 1.296 0.462 1.987 0.67 0.072 0.021 0.145 0.031 0.216 0.031 0.322 0 0.62-0.209 0.718-0.534 0.12-0.4-0.105-0.82-0.502-0.94z"></path>
	<path d="m96.829 145.02c-0.669-0.071-1.341-0.151-2.012-0.24-0.419-0.061-0.788 0.234-0.842 0.645s0.234 0.788 0.645 0.842c0.684 0.091 1.369 0.173 2.05 0.246 0.027 0.003 0.054 0.004 0.081 0.004 0.378 0 0.704-0.285 0.745-0.67 0.044-0.41-0.255-0.78-0.667-0.82z"></path>
	<path d="m91.819 144.31c-0.667-0.12-1.328-0.251-1.978-0.394-0.403-0.085-0.805 0.167-0.894 0.57-0.089 0.405 0.166 0.805 0.571 0.895 0.668 0.147 1.348 0.282 2.035 0.406 0.045 0.008 0.089 0.012 0.134 0.012 0.356 0 0.672-0.254 0.737-0.617 0.074-0.4-0.197-0.8-0.605-0.87z"></path>
</svg>
