<?xml version="1.0"?>

<!-- Generator: Adobe Illustrator 17.1.0, SVG Export Plug-In . SVG Version: 6.00 Build 0)  -->

<svg id="Layer_1" xmlns="http://www.w3.org/2000/svg" xml:space="preserve" viewBox="0 0 144 144" version="1.1" y="0px" x="0px" xmlns:xlink="http://www.w3.org/1999/xlink" enable-background="new 0 0 144 144" width="144" height="144">
		<path d="m83.003 67.183h-10.223v-26.56c0-0.493-0.36-0.913-0.848-0.988-0.489-0.073-0.957 0.217-1.105 0.688l-10.783 34.138c-0.097 0.304-0.042 0.635 0.146 0.892s0.488 0.409 0.807 0.409h9.365v26.103c0 0.488 0.353 0.905 0.834 0.986 0.056 0.009 0.111 0.014 0.167 0.014 0.42 0 0.803-0.266 0.944-0.674l11.641-33.681c0.106-0.305 0.057-0.643-0.131-0.906-0.187-0.264-0.491-0.42-0.814-0.42zm-10.641 28.726v-21.147c0-0.553-0.447-1-1-1h-9.001l8.419-26.652v21.073c0 0.553 0.447 1 1 1h9.82l-9.238 26.726z"></path>
</svg>
