<?xml version="1.0"?>

<!-- Generator: Adobe Illustrator 18.1.1, SVG Export Plug-In . SVG Version: 6.00 Build 0)  -->
<svg id="icon" xmlns="http://www.w3.org/2000/svg" xml:space="preserve" viewBox="0 0 144 144" version="1.1" y="0px" x="0px" xmlns:xlink="http://www.w3.org/1999/xlink" enable-background="new 0 0 144 144" width="144" height="144">
<circle cy="72" cx="72" r="54" display="none" fill="#E6E7E8"></circle>
<path stroke="#000" stroke-width="2" stroke-miterlimit="10" d="m79.9 107.2h-15.8c-5.5 0-10-4.5-10-10v-49.1c0-5.5 4.5-10 10-10h15.7c5.5 0 10 4.5 10 10v49.1c0.1 5.5-4.4 10-9.9 10z" fill="none"></path>
<line y2="92" x2="89.9" stroke="#000" stroke-miterlimit="10" y1="92" x1="54.1" fill="none"></line>
<line y2="47.4" x2="89.9" stroke="#000" stroke-miterlimit="10" y1="47.4" x1="54.1" fill="none"></line>
<line y2="98.7" x2="89.9" stroke="#000" stroke-miterlimit="10" y1="98.7" x1="54.1" fill="none"></line>
<path stroke="#000" stroke-miterlimit="10" d="m62.4 96.4c-0.5 0-1-0.4-1-1 0-0.5 0.4-1 1-1 0.5 0 1 0.4 1 1 0 0.5-0.5 1-1 1z" fill="none"></path>
<path stroke="#000" stroke-miterlimit="10" d="m73.2 96.4h-2.5c-0.3 0-0.6-0.3-0.6-0.6v-0.6c0-0.3 1.2-0.8 1.9-0.8 0.6 0 1.8 0.5 1.8 0.8v0.6c0 0.3-0.2 0.6-0.6 0.6z" fill="none"></path>
<path stroke="#000" stroke-miterlimit="10" d="m81.6 96.4c-0.5 0-1-0.4-1-1 0-0.5 0.4-1 1-1 0.5 0 1 0.4 1 1 0 0.5-0.4 1-1 1z" fill="none"></path>
	<path d="m80.9 58.9l-14.2 9.5c-0.2 0.2-0.3 0.5-0.1 0.7 0.1 0.1 0.2 0.2 0.4 0.2 0.1 0 0.2 0 0.3-0.1l14.2-9.5c0.2-0.2 0.3-0.5 0.1-0.7-0.1-0.2-0.5-0.3-0.7-0.1"></path>
	<path d="m73.8 67.4l-11.2 7.6c-0.2 0.2-0.3 0.5-0.1 0.7 0.1 0.1 0.2 0.2 0.4 0.2 0.1 0 0.2 0 0.3-0.1l11.2-7.6c0.2-0.2 0.3-0.5 0.1-0.7s-0.5-0.3-0.7-0.1"></path>
<path d="m68.8 42.1h6.5c0.4 0 0.7-0.3 0.7-0.7s-0.3-0.7-0.7-0.7h-6.5c-0.4 0-0.7 0.3-0.7 0.7s0.3 0.7 0.7 0.7"></path>
<path d="m81.2 42.5c0.3 0 0.5-0.1 0.7-0.3s0.3-0.4 0.3-0.7c0-0.2-0.1-0.5-0.3-0.7-0.3-0.4-1-0.4-1.3 0-0.2 0.2-0.3 0.4-0.3 0.7s0.1 0.5 0.3 0.7c0.1 0.2 0.3 0.3 0.6 0.3"></path>
</svg>
