<?xml version="1.0"?>

<!-- Generator: Adobe Illustrator 17.1.0, SVG Export Plug-In . SVG Version: 6.00 Build 0)  -->

<svg id="Layer_1" xmlns="http://www.w3.org/2000/svg" xml:space="preserve" viewBox="0 0 108 108" version="1.1" y="0px" x="0px" xmlns:xlink="http://www.w3.org/1999/xlink" enable-background="new 0 0 108 108" width="108" height="108">
	<path d="m17.417 33.668v47.344h72.333v-47.344h-72.333zm1.5 1.625c7.928 5.949 18.923 13.909 26.459 18.75-7.742 6.469-18.938 17.044-26.459 24.415v-43.165zm27.127 19.493c2.087 1.191 3.577 1.957 4.667 2.452 1.723 0.907 2.407 1.056 2.776 1.056 0.397 0 1.126-0.155 2.929-1.104 1.26-0.57 2.847-1.402 4.793-2.518 7.716 6.427 18.946 16.949 26.483 24.261-0.352 0.194-0.758 0.298-1.184 0.298h-66.086c-0.257 0-0.509-0.039-0.748-0.115 7.516-7.363 18.673-17.901 26.37-24.33zm15.077-1.58c-0.451 0.292-0.888 0.567-1.312 0.833-1.699 1.066-2.955 1.79-3.883 2.279-1.355 0.61-2.071 0.79-2.439 0.79-0.297 0-0.96-0.144-2.419-0.81-0.878-0.469-2.051-1.148-3.629-2.132l-0.157-0.098c-0.377-0.237-0.768-0.482-1.169-0.739-7.239-4.635-17.795-12.254-25.694-18.16h66.05c-7.74 5.841-18.117 13.389-25.348 18.037zm0.741 0.711c7.579-4.889 18.488-12.853 26.265-18.749h0.123v42.914c-7.545-7.316-18.693-17.755-26.388-24.165z"></path>
</svg>
