<?xml version="1.0"?>

<!-- Generator: Adobe Illustrator 17.1.0, SVG Export Plug-In . SVG Version: 6.00 Build 0)  -->

<svg id="Layer_1" xmlns="http://www.w3.org/2000/svg" xml:space="preserve" viewBox="0 0 216 216" version="1.1" y="0px" x="0px" xmlns:xlink="http://www.w3.org/1999/xlink" enable-background="new 0 0 216 216" width="216" height="216">
	<path d="m20.452 76.079c-0.022 0.085-0.052 0.167-0.052 0.259v33.119c0 0.023 0.012 0.043 0.014 0.065-0.002 0.023-0.014 0.043-0.014 0.066v33.119c0 0.552 0.447 1 1 1h57.527c0.01 0 0.019-0.006 0.028-0.006 0.01 0 0.019 0.006 0.028 0.006h57.528c0.024 0 0.045-0.013 0.069-0.014 0.024 0.001 0.045 0.014 0.069 0.014h57.528c0.553 0 1-0.448 1-1v-33.119c0-0.023-0.012-0.043-0.014-0.066 0.002-0.022 0.014-0.042 0.014-0.065v-33.122c0-0.093-0.029-0.177-0.053-0.262 0.119-0.452-0.072-0.938-0.508-1.15l-26.195-4.5c-0.136-0.068-1.286-0.103-1.438-0.103h-117.88c-0.135 0-1.267 0.027-1.392 0.079l-26.699 4.5c-0.463 0.199-0.683 0.704-0.556 1.177zm115.06 55.861v9.77h-55.526v-14.559h55.528v4.79zm0-16.2v9.403h-55.526v-14.56h55.528v5.16zm0-17.053v9.769h-55.526v-14.562h55.528v4.789zm0-16.193v9.403h-55.526v-14.56h55.528v5.157zm57.67 49.446v9.77h-55.528v-14.559h55.528v4.79zm0-16.2v9.403h-55.528v-14.56h55.528v5.16zm0-17.053v9.769h-55.528v-14.562h55.528v4.789zm0-16.193v9.403h-55.528v-14.56h55.528v5.157zm-25.43-10.171l17.966 3.015h-48.157l-6.018-3.015h36.21zm-40.16 0l5.653 3.015h-50.558l6.507-3.015h38.401zm-79.287 0h36.752l-6.803 3.015h-47.866l17.917-3.015zm-25.903 5.015h55.527v14.559h-55.527v-14.559zm0 16.56h55.527v14.558h-55.527v-14.562zm0 16.692h55.527v14.559h-55.527v-14.56zm0 16.56h55.527v14.559h-55.527v-14.56z"></path>
	<circle cy="84.991" cx="27.424" r="1.375"></circle>
	<circle cy="84.991" cx="32.303" r="1.375"></circle>
	<path d="m74.499 80h-2.998c-0.276 0-0.501 0.224-0.501 0.5v8c0 0.276 0.225 0.5 0.501 0.5h2.998c0.276 0 0.501-0.224 0.501-0.5v-8c0-0.276-0.225-0.5-0.501-0.5zm-0.499 8h-2v-7h2v7z"></path>
	<path d="m68.5 80h-3c-0.276 0-0.5 0.224-0.5 0.5v8c0 0.276 0.224 0.5 0.5 0.5h3c0.276 0 0.5-0.224 0.5-0.5v-8c0-0.276-0.224-0.5-0.5-0.5zm-0.5 8h-2v-7h2v7z"></path>
	<circle cy="101.99" cx="27.424" r="1.375"></circle>
	<circle cy="101.99" cx="32.303" r="1.375"></circle>
	<path d="m74.499 97h-2.998c-0.276 0-0.501 0.224-0.501 0.5v8c0 0.276 0.225 0.5 0.501 0.5h2.998c0.276 0 0.501-0.224 0.501-0.5v-8c0-0.276-0.225-0.5-0.501-0.5zm-0.499 8h-2v-7h2v7z"></path>
	<path d="m68.5 97h-3c-0.276 0-0.5 0.224-0.5 0.5v8c0 0.276 0.224 0.5 0.5 0.5h3c0.276 0 0.5-0.224 0.5-0.5v-8c0-0.276-0.224-0.5-0.5-0.5zm-0.5 8h-2v-7h2v7z"></path>
	<circle cy="117.99" cx="27.424" r="1.375"></circle>
	<circle cy="117.99" cx="32.303" r="1.375"></circle>
	<path d="m74.499 113h-2.998c-0.276 0-0.501 0.224-0.501 0.5v8c0 0.276 0.225 0.5 0.501 0.5h2.998c0.276 0 0.501-0.224 0.501-0.5v-8c0-0.28-0.225-0.5-0.501-0.5zm-0.499 8h-2v-7h2v7z"></path>
	<path d="m68.5 113h-3c-0.276 0-0.5 0.224-0.5 0.5v8c0 0.276 0.224 0.5 0.5 0.5h3c0.276 0 0.5-0.224 0.5-0.5v-8c0-0.28-0.224-0.5-0.5-0.5zm-0.5 8h-2v-7h2v7z"></path>
	<circle cy="134.99" cx="27.424" r="1.375"></circle>
	<circle cy="134.99" cx="32.303" r="1.375"></circle>
	<path d="m74.499 130h-2.998c-0.276 0-0.501 0.224-0.501 0.5v8c0 0.276 0.225 0.5 0.501 0.5h2.998c0.276 0 0.501-0.224 0.501-0.5v-8c0-0.28-0.225-0.5-0.501-0.5zm-0.499 8h-2v-7h2v7z"></path>
	<path d="m68.5 130h-3c-0.276 0-0.5 0.224-0.5 0.5v8c0 0.276 0.224 0.5 0.5 0.5h3c0.276 0 0.5-0.224 0.5-0.5v-8c0-0.28-0.224-0.5-0.5-0.5zm-0.5 8h-2v-7h2v7z"></path>
	<circle cy="84.991" cx="85.424" r="1.375"></circle>
	<circle cy="84.991" cx="90.303" r="1.375"></circle>
	<path d="m129.5 89h2.998c0.276 0 0.501-0.224 0.501-0.5v-8c0-0.276-0.225-0.5-0.501-0.5h-2.998c-0.276 0-0.501 0.224-0.501 0.5v8c0 0.276 0.22 0.5 0.5 0.5zm0.5-8h2v7h-2v-7z"></path>
	<path d="m123.5 89h3c0.276 0 0.5-0.224 0.5-0.5v-8c0-0.276-0.224-0.5-0.5-0.5h-3c-0.276 0-0.5 0.224-0.5 0.5v8c0 0.276 0.22 0.5 0.5 0.5zm0.5-8h2v7h-2v-7z"></path>
	<circle cy="101.99" cx="85.424" r="1.375"></circle>
	<circle cy="101.99" cx="90.303" r="1.375"></circle>
	<path d="m129.5 106h2.998c0.276 0 0.501-0.224 0.501-0.5v-8c0-0.276-0.225-0.5-0.501-0.5h-2.998c-0.276 0-0.501 0.224-0.501 0.5v8c0 0.28 0.22 0.5 0.5 0.5zm0.5-8h2v7h-2v-7z"></path>
	<path d="m123.5 106h3c0.276 0 0.5-0.224 0.5-0.5v-8c0-0.276-0.224-0.5-0.5-0.5h-3c-0.276 0-0.5 0.224-0.5 0.5v8c0 0.28 0.22 0.5 0.5 0.5zm0.5-8h2v7h-2v-7z"></path>
	<circle cy="117.99" cx="85.424" r="1.375"></circle>
	<circle cy="117.99" cx="90.303" r="1.375"></circle>
	<path d="m129.5 122h2.998c0.276 0 0.501-0.224 0.501-0.5v-8c0-0.276-0.225-0.5-0.501-0.5h-2.998c-0.276 0-0.501 0.224-0.501 0.5v8c0 0.28 0.22 0.5 0.5 0.5zm0.5-8h2v7h-2v-7z"></path>
	<path d="m123.5 122h3c0.276 0 0.5-0.224 0.5-0.5v-8c0-0.276-0.224-0.5-0.5-0.5h-3c-0.276 0-0.5 0.224-0.5 0.5v8c0 0.28 0.22 0.5 0.5 0.5zm0.5-8h2v7h-2v-7z"></path>
	<circle cy="134.99" cx="85.424" r="1.375"></circle>
	<circle cy="134.99" cx="90.303" r="1.375"></circle>
	<path d="m129.5 139h2.998c0.276 0 0.501-0.224 0.501-0.5v-8c0-0.276-0.225-0.5-0.501-0.5h-2.998c-0.276 0-0.501 0.224-0.501 0.5v8c0 0.28 0.22 0.5 0.5 0.5zm0.5-8h2v7h-2v-7z"></path>
	<path d="m123.5 139h3c0.276 0 0.5-0.224 0.5-0.5v-8c0-0.276-0.224-0.5-0.5-0.5h-3c-0.276 0-0.5 0.224-0.5 0.5v8c0 0.28 0.22 0.5 0.5 0.5zm0.5-8h2v7h-2v-7z"></path>
	<circle cy="84.991" cx="142.42" r="1.375"></circle>
	<circle cy="84.991" cx="147.3" r="1.375"></circle>
	<path d="m186.5 89h2.998c0.276 0 0.501-0.224 0.501-0.5v-8c0-0.276-0.225-0.5-0.501-0.5h-2.998c-0.276 0-0.501 0.224-0.501 0.5v8c0 0.276 0.22 0.5 0.5 0.5zm0.5-8h2v7h-2v-7z"></path>
	<path d="m180.5 89h3c0.276 0 0.5-0.224 0.5-0.5v-8c0-0.276-0.224-0.5-0.5-0.5h-3c-0.276 0-0.5 0.224-0.5 0.5v8c0 0.276 0.22 0.5 0.5 0.5zm0.5-8h2v7h-2v-7z"></path>
	<circle cy="101.99" cx="142.42" r="1.375"></circle>
	<circle cy="101.99" cx="147.3" r="1.375"></circle>
	<path d="m186.5 106h2.998c0.276 0 0.501-0.224 0.501-0.5v-8c0-0.276-0.225-0.5-0.501-0.5h-2.998c-0.276 0-0.501 0.224-0.501 0.5v8c0 0.28 0.22 0.5 0.5 0.5zm0.5-8h2v7h-2v-7z"></path>
	<path d="m180.5 106h3c0.276 0 0.5-0.224 0.5-0.5v-8c0-0.276-0.224-0.5-0.5-0.5h-3c-0.276 0-0.5 0.224-0.5 0.5v8c0 0.28 0.22 0.5 0.5 0.5zm0.5-8h2v7h-2v-7z"></path>
	<circle cy="117.99" cx="142.42" r="1.375"></circle>
	<circle cy="117.99" cx="147.3" r="1.375"></circle>
	<path d="m186.5 122h2.998c0.276 0 0.501-0.224 0.501-0.5v-8c0-0.276-0.225-0.5-0.501-0.5h-2.998c-0.276 0-0.501 0.224-0.501 0.5v8c0 0.28 0.22 0.5 0.5 0.5zm0.5-8h2v7h-2v-7z"></path>
	<path d="m180.5 122h3c0.276 0 0.5-0.224 0.5-0.5v-8c0-0.276-0.224-0.5-0.5-0.5h-3c-0.276 0-0.5 0.224-0.5 0.5v8c0 0.28 0.22 0.5 0.5 0.5zm0.5-8h2v7h-2v-7z"></path>
	<circle cy="134.99" cx="142.42" r="1.375"></circle>
	<circle cy="134.99" cx="147.3" r="1.375"></circle>
	<path d="m186.5 139h2.998c0.276 0 0.501-0.224 0.501-0.5v-8c0-0.276-0.225-0.5-0.501-0.5h-2.998c-0.276 0-0.501 0.224-0.501 0.5v8c0 0.28 0.22 0.5 0.5 0.5zm2.5-1h-2v-7h2v7z"></path>
	<path d="m180.5 139h3c0.276 0 0.5-0.224 0.5-0.5v-8c0-0.276-0.224-0.5-0.5-0.5h-3c-0.276 0-0.5 0.224-0.5 0.5v8c0 0.28 0.22 0.5 0.5 0.5zm0.5-8h2v7h-2v-7z"></path>
	<path d="m86.303 146.56h-1.996c-0.414 0-0.75 0.336-0.75 0.75s0.336 0.75 0.75 0.75h1.996c0.414 0 0.75-0.336 0.75-0.75 0-0.42-0.336-0.75-0.75-0.75z"></path>
	<path d="m111.25 146.56h-1.996c-0.414 0-0.75 0.336-0.75 0.75s0.336 0.75 0.75 0.75h1.996c0.414 0 0.75-0.336 0.75-0.75 0-0.42-0.34-0.75-0.75-0.75z"></path>
	<path d="m101.27 146.56h-1.996c-0.414 0-0.75 0.336-0.75 0.75s0.336 0.75 0.75 0.75h1.996c0.414 0 0.75-0.336 0.75-0.75 0-0.42-0.33-0.75-0.75-0.75z"></path>
	<path d="m96.282 146.56h-1.996c-0.414 0-0.75 0.336-0.75 0.75s0.336 0.75 0.75 0.75h1.996c0.414 0 0.75-0.336 0.75-0.75 0-0.42-0.336-0.75-0.75-0.75z"></path>
	<path d="m116.24 146.56h-1.996c-0.414 0-0.75 0.336-0.75 0.75s0.336 0.75 0.75 0.75h1.996c0.414 0 0.75-0.336 0.75-0.75 0-0.42-0.34-0.75-0.75-0.75z"></path>
	<path d="m91.293 146.56h-1.996c-0.414 0-0.75 0.336-0.75 0.75s0.336 0.75 0.75 0.75h1.996c0.414 0 0.75-0.336 0.75-0.75 0-0.42-0.336-0.75-0.75-0.75z"></path>
	<path d="m106.26 146.56h-1.996c-0.414 0-0.75 0.336-0.75 0.75s0.336 0.75 0.75 0.75h1.996c0.414 0 0.75-0.336 0.75-0.75 0-0.42-0.33-0.75-0.75-0.75z"></path>
	<path d="m141.19 146.56h-1.996c-0.414 0-0.75 0.336-0.75 0.75s0.336 0.75 0.75 0.75h1.996c0.414 0 0.75-0.336 0.75-0.75 0-0.42-0.34-0.75-0.75-0.75z"></path>
	<path d="m136.2 146.56h-1.995c-0.414 0-0.75 0.336-0.75 0.75s0.336 0.75 0.75 0.75h1.995c0.414 0 0.75-0.336 0.75-0.75 0-0.42-0.34-0.75-0.75-0.75z"></path>
	<path d="m126.22 146.56h-1.996c-0.414 0-0.75 0.336-0.75 0.75s0.336 0.75 0.75 0.75h1.996c0.414 0 0.75-0.336 0.75-0.75 0-0.42-0.34-0.75-0.75-0.75z"></path>
	<path d="m121.23 146.56h-1.996c-0.414 0-0.75 0.336-0.75 0.75s0.336 0.75 0.75 0.75h1.996c0.414 0 0.75-0.336 0.75-0.75 0-0.42-0.34-0.75-0.75-0.75z"></path>
	<path d="m131.21 146.56h-1.995c-0.414 0-0.75 0.336-0.75 0.75s0.336 0.75 0.75 0.75h1.995c0.414 0 0.75-0.336 0.75-0.75-0.01-0.42-0.35-0.75-0.76-0.75z"></path>
	<path d="m146.18 146.56h-1.996c-0.414 0-0.75 0.336-0.75 0.75s0.336 0.75 0.75 0.75h1.996c0.414 0 0.75-0.336 0.75-0.75 0-0.42-0.34-0.75-0.75-0.75z"></path>
	<path d="m51.377 146.56h-1.996c-0.414 0-0.75 0.336-0.75 0.75s0.336 0.75 0.75 0.75h1.996c0.414 0 0.75-0.336 0.75-0.75 0-0.42-0.335-0.75-0.75-0.75z"></path>
	<path d="m41.398 146.56h-1.996c-0.414 0-0.75 0.336-0.75 0.75s0.336 0.75 0.75 0.75h1.996c0.414 0 0.75-0.336 0.75-0.75 0-0.42-0.336-0.75-0.75-0.75z"></path>
	<path d="m46.388 146.56h-1.996c-0.414 0-0.75 0.336-0.75 0.75s0.336 0.75 0.75 0.75h1.996c0.414 0 0.75-0.336 0.75-0.75 0-0.42-0.336-0.75-0.75-0.75z"></path>
	<path d="m36.409 146.56h-1.996c-0.414 0-0.75 0.336-0.75 0.75s0.336 0.75 0.75 0.75h1.996c0.414 0 0.75-0.336 0.75-0.75 0-0.42-0.336-0.75-0.75-0.75z"></path>
	<path d="m31.419 146.56h-1.996c-0.414 0-0.75 0.336-0.75 0.75s0.336 0.75 0.75 0.75h1.996c0.414 0 0.75-0.336 0.75-0.75 0-0.42-0.336-0.75-0.75-0.75z"></path>
	<path d="m56.367 146.56h-1.996c-0.414 0-0.75 0.336-0.75 0.75s0.336 0.75 0.75 0.75h1.996c0.414 0 0.75-0.336 0.75-0.75 0-0.42-0.336-0.75-0.75-0.75z"></path>
	<path d="m76.325 146.56h-1.996c-0.414 0-0.75 0.336-0.75 0.75s0.336 0.75 0.75 0.75h1.996c0.414 0 0.75-0.336 0.75-0.75 0-0.42-0.336-0.75-0.75-0.75z"></path>
	<path d="m71.335 146.56h-1.996c-0.414 0-0.75 0.336-0.75 0.75s0.336 0.75 0.75 0.75h1.996c0.414 0 0.75-0.336 0.75-0.75 0-0.42-0.336-0.75-0.75-0.75z"></path>
	<path d="m61.356 146.56h-1.996c-0.414 0-0.75 0.336-0.75 0.75s0.336 0.75 0.75 0.75h1.996c0.414 0 0.75-0.336 0.75-0.75 0-0.42-0.335-0.75-0.75-0.75z"></path>
	<path d="m66.346 146.56h-1.996c-0.414 0-0.75 0.336-0.75 0.75s0.336 0.75 0.75 0.75h1.996c0.414 0 0.75-0.336 0.75-0.75 0-0.42-0.336-0.75-0.75-0.75z"></path>
	<path d="m81.314 146.56h-1.996c-0.414 0-0.75 0.336-0.75 0.75s0.336 0.75 0.75 0.75h1.996c0.414 0 0.75-0.336 0.75-0.75 0-0.42-0.336-0.75-0.75-0.75z"></path>
	<path d="m198.78 102.39c-0.414 0-0.75 0.336-0.75 0.75v1.996c0 0.414 0.336 0.75 0.75 0.75s0.75-0.336 0.75-0.75v-1.996c0-0.42-0.34-0.75-0.75-0.75z"></path>
	<path d="m198.78 112.36c-0.414 0-0.75 0.336-0.75 0.75v1.995c0 0.414 0.336 0.75 0.75 0.75s0.75-0.336 0.75-0.75v-1.995c0-0.4-0.34-0.74-0.75-0.74z"></path>
	<path d="m198.78 117.35c-0.414 0-0.75 0.336-0.75 0.75v1.995c0 0.414 0.336 0.75 0.75 0.75s0.75-0.336 0.75-0.75v-1.995c0-0.41-0.34-0.75-0.75-0.75z"></path>
	<path d="m198.78 107.38c-0.414 0-0.75 0.336-0.75 0.75v1.996c0 0.414 0.336 0.75 0.75 0.75s0.75-0.336 0.75-0.75v-1.996c0-0.42-0.34-0.75-0.75-0.75z"></path>
	<path d="m198.78 122.34c-0.414 0-0.75 0.336-0.75 0.75v1.996c0 0.414 0.336 0.75 0.75 0.75s0.75-0.336 0.75-0.75v-1.996c0-0.41-0.34-0.75-0.75-0.75z"></path>
	<path d="m198.78 127.33c-0.414 0-0.75 0.336-0.75 0.75v1.996c0 0.414 0.336 0.75 0.75 0.75s0.75-0.336 0.75-0.75v-1.996c0-0.41-0.34-0.75-0.75-0.75z"></path>
	<path d="m21.4 146.56c-0.565 0-1.109-0.12-1.617-0.355-0.376-0.175-0.821-0.013-0.997 0.363-0.174 0.376-0.012 0.821 0.364 0.996 0.708 0.329 1.464 0.496 2.25 0.496h0.041c0.414 0 0.73-0.336 0.73-0.75 0-0.42-0.356-0.75-0.771-0.75z"></path>
	<path d="m198.78 82.428c-0.414 0-0.75 0.336-0.75 0.75v1.996c0 0.414 0.336 0.75 0.75 0.75s0.75-0.336 0.75-0.75v-1.996c0-0.414-0.34-0.75-0.75-0.75z"></path>
	<path d="m198.78 77.439c-0.414 0-0.75 0.336-0.75 0.75v1.996c0 0.414 0.336 0.75 0.75 0.75s0.75-0.336 0.75-0.75v-1.996c0-0.414-0.34-0.75-0.75-0.75z"></path>
	<path d="m198.78 132.32c-0.414 0-0.75 0.336-0.75 0.75v1.996c0 0.414 0.336 0.75 0.75 0.75s0.75-0.336 0.75-0.75v-1.996c0-0.41-0.34-0.75-0.75-0.75z"></path>
	<path d="m198.78 87.418c-0.414 0-0.75 0.336-0.75 0.75v1.996c0 0.414 0.336 0.75 0.75 0.75s0.75-0.336 0.75-0.75v-1.996c0-0.415-0.34-0.75-0.75-0.75z"></path>
	<path d="m198.78 92.407c-0.414 0-0.75 0.336-0.75 0.75v1.996c0 0.414 0.336 0.75 0.75 0.75s0.75-0.336 0.75-0.75v-1.996c0-0.414-0.34-0.75-0.75-0.75z"></path>
	<path d="m198.78 97.396c-0.414 0-0.75 0.336-0.75 0.75v1.996c0 0.414 0.336 0.75 0.75 0.75s0.75-0.336 0.75-0.75v-1.996c0-0.412-0.34-0.748-0.75-0.748z"></path>
	<path d="m166.14 146.56h-1.996c-0.414 0-0.75 0.336-0.75 0.75s0.336 0.75 0.75 0.75h1.996c0.414 0 0.75-0.336 0.75-0.75-0.01-0.42-0.34-0.75-0.75-0.75z"></path>
	<path d="m171.12 146.56h-1.996c-0.414 0-0.75 0.336-0.75 0.75s0.336 0.75 0.75 0.75h1.996c0.414 0 0.75-0.336 0.75-0.75 0-0.42-0.33-0.75-0.75-0.75z"></path>
	<path d="m176.11 146.56h-1.996c-0.414 0-0.75 0.336-0.75 0.75s0.336 0.75 0.75 0.75h1.996c0.414 0 0.75-0.336 0.75-0.75 0-0.42-0.33-0.75-0.75-0.75z"></path>
	<path d="m181.1 146.56h-1.996c-0.414 0-0.75 0.336-0.75 0.75s0.336 0.75 0.75 0.75h1.996c0.414 0 0.75-0.336 0.75-0.75 0-0.42-0.33-0.75-0.75-0.75z"></path>
	<path d="m151.17 146.56h-1.996c-0.414 0-0.75 0.336-0.75 0.75s0.336 0.75 0.75 0.75h1.996c0.414 0 0.75-0.336 0.75-0.75 0-0.42-0.34-0.75-0.75-0.75z"></path>
	<path d="m156.16 146.56h-1.995c-0.414 0-0.75 0.336-0.75 0.75s0.336 0.75 0.75 0.75h1.995c0.414 0 0.75-0.336 0.75-0.75-0.01-0.42-0.34-0.75-0.75-0.75z"></path>
	<path d="m161.14 146.56h-1.995c-0.414 0-0.75 0.336-0.75 0.75s0.336 0.75 0.75 0.75h1.995c0.414 0 0.75-0.336 0.75-0.75 0.01-0.42-0.33-0.75-0.75-0.75z"></path>
	<path d="m198.78 137.31c-0.414 0-0.75 0.336-0.75 0.75v1.995c0 0.414 0.336 0.75 0.75 0.75s0.75-0.336 0.75-0.75v-1.995c0-0.41-0.34-0.75-0.75-0.75z"></path>
	<path d="m186.09 146.56h-1.995c-0.414 0-0.75 0.336-0.75 0.75s0.336 0.75 0.75 0.75h1.995c0.414 0 0.75-0.336 0.75-0.75-0.01-0.42-0.34-0.75-0.76-0.75z"></path>
	<path d="m198.72 75.947c0.034 0 0.068-0.003 0.102-0.007 0.41-0.056 0.697-0.435 0.642-0.845-0.104-0.764-0.378-1.511-0.791-2.16-0.222-0.35-0.686-0.454-1.035-0.23-0.35 0.222-0.453 0.686-0.23 1.035 0.298 0.468 0.495 1.007 0.57 1.559 0.05 0.376 0.37 0.648 0.74 0.648z"></path>
	<path d="m198.82 142.3c-0.402-0.016-0.773 0.279-0.804 0.692-0.042 0.561-0.202 1.094-0.478 1.584-0.202 0.361-0.074 0.818 0.287 1.021 0.116 0.064 0.242 0.096 0.366 0.096 0.263 0 0.518-0.138 0.655-0.383 0.383-0.684 0.607-1.426 0.665-2.207 0.02-0.41-0.28-0.77-0.7-0.8z"></path>
	<path d="m191.08 146.56h-1.995c-0.414 0-0.75 0.336-0.75 0.75s0.336 0.75 0.75 0.75h1.995c0.414 0 0.75-0.336 0.75-0.75 0-0.42-0.33-0.75-0.75-0.75z"></path>
	<path d="m195.72 146.23c-0.486 0.213-1.004 0.32-1.538 0.321h-0.104c-0.414 0-0.75 0.336-0.75 0.75s0.336 0.75 0.75 0.75h0.105c0.742-0.001 1.461-0.151 2.137-0.446 0.38-0.166 0.554-0.608 0.388-0.987-0.17-0.37-0.61-0.54-0.99-0.38z"></path>
	<path d="m26.43 146.56h-1.996c-0.414 0-0.75 0.336-0.75 0.75s0.336 0.75 0.75 0.75h1.996c0.414 0 0.75-0.336 0.75-0.75 0-0.42-0.336-0.75-0.75-0.75z"></path>
	<path d="m114.33 67.473h1.995c0.414 0 0.75-0.336 0.75-0.75s-0.336-0.75-0.75-0.75h-1.995c-0.414 0-0.75 0.336-0.75 0.75 0.01 0.414 0.35 0.75 0.76 0.75z"></path>
	<path d="m119.32 67.473h1.995c0.414 0 0.75-0.336 0.75-0.75s-0.336-0.75-0.75-0.75h-1.995c-0.414 0-0.75 0.336-0.75 0.75s0.34 0.75 0.75 0.75z"></path>
	<path d="m109.34 67.473h1.996c0.414 0 0.75-0.336 0.75-0.75s-0.336-0.75-0.75-0.75h-1.996c-0.414 0-0.75 0.336-0.75 0.75s0.34 0.75 0.75 0.75z"></path>
	<path d="m16.978 72.835c-0.427 0.641-0.718 1.381-0.84 2.141-0.066 0.409 0.212 0.794 0.621 0.859 0.04 0.007 0.081 0.01 0.12 0.01 0.362 0 0.68-0.262 0.739-0.631 0.088-0.549 0.298-1.083 0.607-1.547 0.23-0.344 0.137-0.81-0.208-1.04-0.344-0.229-0.809-0.136-1.039 0.208z"></path>
	<path d="m104.35 67.473h1.996c0.414 0 0.75-0.336 0.75-0.75s-0.336-0.75-0.75-0.75h-1.996c-0.414 0-0.75 0.336-0.75 0.75s0.34 0.75 0.75 0.75z"></path>
	<path d="m129.3 67.473h1.996c0.414 0 0.75-0.336 0.75-0.75s-0.336-0.75-0.75-0.75h-1.996c-0.414 0-0.75 0.336-0.75 0.75s0.34 0.75 0.75 0.75z"></path>
	<path d="m124.31 67.473h1.996c0.414 0 0.75-0.336 0.75-0.75s-0.336-0.75-0.75-0.75h-1.996c-0.414 0-0.75 0.336-0.75 0.75s0.34 0.75 0.75 0.75z"></path>
	<path d="m99.364 67.473h1.996c0.414 0 0.75-0.336 0.75-0.75s-0.336-0.75-0.75-0.75h-1.996c-0.414 0-0.75 0.336-0.75 0.75s0.336 0.75 0.75 0.75z"></path>
	<path d="m79.407 67.473h1.996c0.414 0 0.75-0.336 0.75-0.75s-0.336-0.75-0.75-0.75h-1.996c-0.414 0-0.75 0.336-0.75 0.75s0.336 0.75 0.75 0.75z"></path>
	<path d="m84.396 67.473h1.996c0.414 0 0.75-0.336 0.75-0.75s-0.336-0.75-0.75-0.75h-1.996c-0.414 0-0.75 0.336-0.75 0.75s0.336 0.75 0.75 0.75z"></path>
	<path d="m94.375 67.473h1.996c0.414 0 0.75-0.336 0.75-0.75s-0.336-0.75-0.75-0.75h-1.996c-0.414 0-0.75 0.336-0.75 0.75s0.336 0.75 0.75 0.75z"></path>
	<path d="m89.385 67.473h1.996c0.414 0 0.75-0.336 0.75-0.75s-0.336-0.75-0.75-0.75h-1.996c-0.414 0-0.75 0.336-0.75 0.75s0.336 0.75 0.75 0.75z"></path>
	<path d="m171.17 67.995c0.358 0 0.676-0.258 0.738-0.623 0.07-0.408-0.204-0.796-0.612-0.866l-1.896-0.325-0.032-0.007-0.166 0.731-0.095 0.747 1.935 0.333c0.05 0.007 0.09 0.01 0.13 0.01z"></path>
	<path d="m178.91 69.335l1.967 0.338c0.043 0.007 0.086 0.011 0.128 0.011 0.358 0 0.676-0.258 0.738-0.623 0.07-0.408-0.204-0.796-0.612-0.866l-1.967-0.338c-0.407-0.067-0.797 0.205-0.866 0.612-0.07 0.408 0.2 0.796 0.61 0.866z"></path>
	<path d="m183.83 70.18l1.967 0.338c0.043 0.007 0.086 0.011 0.128 0.011 0.358 0 0.676-0.258 0.738-0.623 0.07-0.408-0.204-0.796-0.612-0.866l-1.967-0.338c-0.408-0.069-0.797 0.204-0.866 0.612-0.07 0.408 0.2 0.796 0.61 0.866z"></path>
	<path d="m74.417 67.473h1.996c0.414 0 0.75-0.336 0.75-0.75s-0.336-0.75-0.75-0.75h-1.996c-0.414 0-0.75 0.336-0.75 0.75s0.336 0.75 0.75 0.75z"></path>
	<path d="m173.99 68.491l1.967 0.338c0.043 0.007 0.086 0.011 0.128 0.011 0.358 0 0.676-0.258 0.738-0.623 0.07-0.408-0.204-0.796-0.612-0.866l-1.967-0.338c-0.41-0.07-0.796 0.204-0.866 0.612s0.21 0.796 0.61 0.866z"></path>
	<path d="m188.75 71.025l1.967 0.338c0.043 0.007 0.086 0.011 0.128 0.011 0.358 0 0.676-0.258 0.738-0.623 0.07-0.408-0.204-0.796-0.612-0.866l-1.967-0.338c-0.409-0.066-0.796 0.204-0.866 0.612-0.08 0.408 0.2 0.796 0.61 0.866z"></path>
	<path d="m193.66 71.87l1.872 0.322c0.07 0.021 0.143 0.032 0.214 0.032 0.273 0 0.535-0.154 0.667-0.418 0.185-0.37 0.026-0.825-0.345-1.011l-2.154-0.403c-0.41-0.068-0.796 0.205-0.866 0.612-0.06 0.408 0.22 0.795 0.62 0.866z"></path>
	<path d="m159.24 67.473h1.996c0.414 0 0.75-0.336 0.75-0.75s-0.336-0.75-0.75-0.75h-1.996c-0.414 0-0.75 0.336-0.75 0.75s0.33 0.75 0.75 0.75z"></path>
	<path d="m144.27 67.473h1.995c0.414 0 0.75-0.336 0.75-0.75s-0.336-0.75-0.75-0.75h-1.995c-0.414 0-0.75 0.336-0.75 0.75 0.01 0.414 0.35 0.75 0.76 0.75z"></path>
	<path d="m149.26 67.473h1.995c0.414 0 0.75-0.336 0.75-0.75s-0.336-0.75-0.75-0.75h-1.995c-0.414 0-0.75 0.336-0.75 0.75s0.33 0.75 0.75 0.75z"></path>
	<path d="m139.28 67.473h1.996c0.414 0 0.75-0.336 0.75-0.75s-0.336-0.75-0.75-0.75h-1.996c-0.414 0-0.75 0.336-0.75 0.75s0.33 0.75 0.75 0.75z"></path>
	<path d="m164.23 67.473h1.996c0.414 0 0.75-0.336 0.75-0.75s-0.336-0.75-0.75-0.75h-1.996c-0.414 0-0.75 0.336-0.75 0.75s0.33 0.75 0.75 0.75z"></path>
	<path d="m154.25 67.473h1.996c0.414 0 0.75-0.336 0.75-0.75s-0.336-0.75-0.75-0.75h-1.996c-0.414 0-0.75 0.336-0.75 0.75s0.33 0.75 0.75 0.75z"></path>
	<path d="m134.29 67.473h1.996c0.414 0 0.75-0.336 0.75-0.75s-0.336-0.75-0.75-0.75h-1.996c-0.414 0-0.75 0.336-0.75 0.75s0.34 0.75 0.75 0.75z"></path>
	<path d="m16.8 110.77c0.414 0 0.75-0.336 0.75-0.75v-1.995c0-0.414-0.336-0.75-0.75-0.75s-0.75 0.336-0.75 0.75v1.995c0 0.41 0.336 0.75 0.75 0.75z"></path>
	<path d="m16.8 115.76c0.414 0 0.75-0.336 0.75-0.75v-1.995c0-0.414-0.336-0.75-0.75-0.75s-0.75 0.336-0.75 0.75v1.995c0 0.4 0.336 0.74 0.75 0.74z"></path>
	<path d="m16.8 90.809c0.414 0 0.75-0.336 0.75-0.75v-1.996c0-0.414-0.336-0.75-0.75-0.75s-0.75 0.336-0.75 0.75v1.996c0 0.414 0.336 0.75 0.75 0.75z"></path>
	<path d="m16.8 95.798c0.414 0 0.75-0.336 0.75-0.75v-1.996c0-0.414-0.336-0.75-0.75-0.75s-0.75 0.336-0.75 0.75v1.996c0 0.414 0.336 0.75 0.75 0.75z"></path>
	<path d="m16.8 120.75c0.414 0 0.75-0.336 0.75-0.75v-2c0-0.414-0.336-0.75-0.75-0.75s-0.75 0.336-0.75 0.75v1.996c0 0.41 0.336 0.75 0.75 0.75z"></path>
	<path d="m16.8 100.79c0.414 0 0.75-0.336 0.75-0.75v-1.996c0-0.414-0.336-0.75-0.75-0.75s-0.75 0.336-0.75 0.75v1.996c0 0.41 0.336 0.75 0.75 0.75z"></path>
	<path d="m16.8 105.78c0.414 0 0.75-0.336 0.75-0.75v-1.996c0-0.414-0.336-0.75-0.75-0.75s-0.75 0.336-0.75 0.75v1.996c0 0.41 0.336 0.75 0.75 0.75z"></path>
	<path d="m16.8 140.7c0.414 0 0.75-0.336 0.75-0.75v-1.995c0-0.414-0.336-0.75-0.75-0.75s-0.75 0.336-0.75 0.75v1.995c0 0.41 0.336 0.74 0.75 0.74z"></path>
	<path d="m17.556 142.91c-0.021-0.414-0.386-0.743-0.788-0.71-0.414 0.021-0.731 0.374-0.71 0.788 0.041 0.782 0.247 1.529 0.614 2.221 0.135 0.254 0.395 0.398 0.663 0.398 0.119 0 0.239-0.028 0.351-0.088 0.366-0.193 0.505-0.648 0.311-1.014-0.264-0.5-0.412-1.04-0.441-1.6z"></path>
	<path d="m16.8 125.74c0.414 0 0.75-0.336 0.75-0.75v-1.996c0-0.414-0.336-0.75-0.75-0.75s-0.75 0.336-0.75 0.75v1.996c0 0.41 0.336 0.75 0.75 0.75z"></path>
	<path d="m16.8 130.72c0.414 0 0.75-0.336 0.75-0.75v-1.996c0-0.414-0.336-0.75-0.75-0.75s-0.75 0.336-0.75 0.75v1.996c0 0.42 0.336 0.75 0.75 0.75z"></path>
	<path d="m16.8 135.71c0.414 0 0.75-0.336 0.75-0.75v-1.995c0-0.414-0.336-0.75-0.75-0.75s-0.75 0.336-0.75 0.75v1.995c0 0.42 0.336 0.75 0.75 0.75z"></path>
	<path d="m34.684 69.696c0.042 0 0.083-0.003 0.125-0.01l1.968-0.331c0.409-0.069 0.684-0.456 0.615-0.864-0.069-0.409-0.462-0.684-0.864-0.615l-1.968 0.332c-0.409 0.069-0.684 0.456-0.615 0.864 0.062 0.365 0.379 0.624 0.739 0.624z"></path>
	<path d="m54.459 67.473h1.996c0.414 0 0.75-0.336 0.75-0.75s-0.336-0.75-0.75-0.75h-1.996c-0.414 0-0.75 0.336-0.75 0.75s0.336 0.75 0.75 0.75z"></path>
	<path d="m39.604 68.867c0.042 0 0.083-0.003 0.126-0.01l1.968-0.332c0.408-0.069 0.684-0.456 0.615-0.865s-0.454-0.684-0.865-0.615l-1.968 0.332c-0.408 0.069-0.684 0.456-0.615 0.865 0.062 0.366 0.379 0.625 0.739 0.625z"></path>
	<path d="m16.8 85.82c0.414 0 0.75-0.336 0.75-0.75v-1.996c0-0.414-0.336-0.75-0.75-0.75s-0.75 0.336-0.75 0.75v1.996c0 0.414 0.336 0.75 0.75 0.75z"></path>
	<path d="m49.47 67.473h1.996c0.414 0 0.75-0.336 0.75-0.75s-0.336-0.75-0.75-0.75h-1.996c-0.414 0-0.75 0.336-0.75 0.75s0.336 0.75 0.75 0.75z"></path>
	<path d="m64.438 67.473h1.996c0.414 0 0.75-0.336 0.75-0.75s-0.336-0.75-0.75-0.75h-1.996c-0.414 0-0.75 0.336-0.75 0.75s0.336 0.75 0.75 0.75z"></path>
	<path d="m59.449 67.473h1.996c0.414 0 0.75-0.336 0.75-0.75s-0.336-0.75-0.75-0.75h-1.996c-0.414 0-0.75 0.336-0.75 0.75s0.336 0.75 0.75 0.75z"></path>
	<path d="m44.523 68.038c0.042 0 0.083-0.003 0.125-0.01l1.968-0.332c0.409-0.069 0.684-0.456 0.615-0.864-0.069-0.409-0.459-0.685-0.864-0.615l-1.967 0.331c-0.409 0.069-0.684 0.456-0.615 0.864 0.062 0.366 0.379 0.626 0.738 0.626z"></path>
	<path d="m16.8 80.83c0.414 0 0.75-0.336 0.75-0.75v-1.996c0-0.414-0.336-0.75-0.75-0.75s-0.75 0.336-0.75 0.75v1.996c0 0.414 0.336 0.75 0.75 0.75z"></path>
	<path d="m69.428 67.473h1.996c0.414 0 0.75-0.336 0.75-0.75s-0.336-0.75-0.75-0.75h-1.996c-0.414 0-0.75 0.336-0.75 0.75s0.336 0.75 0.75 0.75z"></path>
	<path d="m19.973 72.176c0.054 0 0.108-0.005 0.162-0.017l1.882-0.317c0.409-0.069 0.684-0.456 0.615-0.864-0.069-0.409-0.459-0.681-0.864-0.615l-1.906 0.321-0.226 0.074c-0.381 0.162-0.531 0.589-0.369 0.971 0.119 0.283 0.408 0.447 0.706 0.447z"></path>
	<path d="m29.763 70.525c0.042 0 0.083-0.003 0.125-0.01l1.968-0.332c0.409-0.069 0.684-0.456 0.615-0.864-0.069-0.409-0.462-0.683-0.864-0.615l-1.968 0.332c-0.409 0.069-0.684 0.456-0.615 0.864 0.062 0.366 0.38 0.625 0.739 0.625z"></path>
	<path d="m24.843 71.355c0.042 0 0.083-0.003 0.125-0.01l1.968-0.331c0.409-0.069 0.684-0.456 0.615-0.864-0.069-0.409-0.461-0.682-0.864-0.615l-1.968 0.331c-0.409 0.069-0.684 0.456-0.615 0.864 0.063 0.366 0.38 0.625 0.739 0.625z"></path>
</svg>
