<?xml version="1.0"?>

<!-- Generator: Adobe Illustrator 17.1.0, SVG Export Plug-In . SVG Version: 6.00 Build 0)  -->

<svg id="Layer_1" xmlns="http://www.w3.org/2000/svg" xml:space="preserve" viewBox="0 0 144 144" version="1.1" y="0px" x="0px" xmlns:xlink="http://www.w3.org/1999/xlink" enable-background="new 0 0 144 144" width="144" height="144">
	<path d="m96.593 38.794c0.009-0.958-0.458-1.859-1.249-2.414-0.781-0.545-1.817-0.666-2.676-0.344l-33.022 12.092c-1.157 0.422-1.928 1.534-1.919 2.782l0.012 37.973c-2.584-0.095-4.968 0.793-6.796 2.295 0 0-3.733 2.418-3.54 7.327 0.066 1.647 0.434 3.201 1.193 4.559-0.059-0.001 2.511 5.076 8.8 5.076 5.512 0 9.995-4.319 9.995-9.635v-34.128l19.558-7.199v21.018c-4.8-0.184-8.823 2.922-9.984 7.135-1.453 7.459 3.49 12.121 9.648 12.121 5.511 0 9.994-4.323 9.994-9.634l-0.014-49.024zm-9.982 55.215c-3.615 0-6.556-2.777-6.556-6.19 0-3.412 2.94-6.188 6.556-6.188 0.49 0 1.013 0.071 1.646 0.227l2.131 0.524v-30.135l-26.439 9.73v36.528c0 3.415-2.939 6.195-6.555 6.195-3.613 0-6.553-2.78-6.553-6.195 0-3.412 2.94-6.189 6.553-6.189 0.489 0 1.015 0.075 1.653 0.229l2.13 0.522v-41.369l-0.006-0.465 31.98-11.711 0.015 48.296c0 3.413-2.939 6.191-6.555 6.191z"></path>
</svg>
