<?xml version="1.0"?>

<!-- Generator: Adobe Illustrator 17.1.0, SVG Export Plug-In . SVG Version: 6.00 Build 0)  -->

<svg id="Layer_1" xmlns="http://www.w3.org/2000/svg" xml:space="preserve" viewBox="0 0 216 216" version="1.1" y="0px" x="0px" xmlns:xlink="http://www.w3.org/1999/xlink" enable-background="new 0 0 216 216" width="216" height="216">
<path d="m147.2 131.48l-7.787-9.717c-0.099-1.07-0.621-2.014-1.391-2.682 0.854-0.742 1.405-1.824 1.405-3.041v-34.05c0-2.232-1.814-4.049-4.047-4.049h-54.635c-2.231 0-4.047 1.816-4.047 4.049v34.049c0 1.217 0.551 2.299 1.405 3.041-0.764 0.662-1.283 1.598-1.386 2.66l-8.406 9.709c-0.157 0.182-0.243 0.414-0.243 0.654 0 2.686 1.025 4.049 3.048 4.049h73.269c2.021 0 3.048-1.363 3.048-4.049-0.01-0.22-0.08-0.44-0.23-0.62zm-68.512-15.44v-34.05c0-1.129 0.918-2.049 2.047-2.049h54.648c1.13 0 2.047 0.92 2.047 2.049v34.049c0 1.129-0.917 2.047-2.047 2.047h-54.645c-1.129 0-2.047-0.92-2.047-2.05zm65.692 18.11h-73.274c-0.438 0-0.976 0-1.043-1.684l8.381-9.68c0.157-0.182 0.244-0.414 0.244-0.654 0-1.131 0.918-2.049 2.047-2.049h54.648c1.13 0 2.047 0.918 2.047 2.049 0 0.226 0.079 0.447 0.221 0.625l7.766 9.687c-0.07 1.7-0.61 1.7-1.04 1.7zm-11.67-51.896h-23.09c0.009-0.068 0.02-0.135 0.02-0.205 0-0.869-0.703-1.574-1.572-1.574-0.87 0-1.573 0.705-1.573 1.574 0 0.07 0.011 0.137 0.02 0.205h-23.092c-1.376 0-2.497 1.199-2.497 2.67v28.57c0 1.473 1.121 2.67 2.497 2.67h49.278c1.377 0 2.496-1.197 2.496-2.67v-28.57c-0.01-1.467-1.13-2.666-2.5-2.666zm0.99 31.236c0 0.645-0.446 1.17-0.996 1.17h-49.272c-0.549 0-0.997-0.525-0.997-1.17v-28.57c0-0.645 0.448-1.17 0.997-1.17h49.278c0.55 0 0.996 0.525 0.996 1.17v28.57zm-53.426 9.1c0-0.277 0.224-0.5 0.5-0.5h54.678c0.276 0 0.5 0.223 0.5 0.5 0 0.275-0.224 0.5-0.5 0.5h-54.676c-0.276 0-0.5-0.23-0.5-0.5zm-1.787 3.37c0-0.277 0.224-0.5 0.5-0.5h57.995c0.274 0 0.5 0.223 0.5 0.5 0 0.275-0.226 0.5-0.5 0.5h-57.993c-0.276 0-0.5-0.22-0.5-0.5zm-2.432 2.88h62.859c0.276 0 0.5 0.223 0.5 0.5 0 0.275-0.224 0.5-0.5 0.5h-62.855c-0.277 0-0.5-0.225-0.5-0.5 0-0.28 0.222-0.5 0.5-0.5zm51.145-37.828c0.154 0.229 0.095 0.539-0.134 0.693l-14.396 9.668c-0.086 0.057-0.184 0.086-0.281 0.086-0.159 0-0.316-0.078-0.413-0.221-0.155-0.229-0.096-0.539 0.133-0.693l14.396-9.668c0.22-0.159 0.53-0.099 0.69 0.13zm-7.27 8.621c0.155 0.229 0.095 0.541-0.135 0.695l-11.401 7.703c-0.086 0.057-0.184 0.086-0.28 0.086-0.16 0-0.318-0.078-0.414-0.221-0.156-0.229-0.095-0.539 0.134-0.695l11.402-7.701c0.22-0.153 0.54-0.095 0.69 0.134z"></path>
</svg>
