<?xml version="1.0"?>

<!-- Generator: Adobe Illustrator 17.1.0, SVG Export Plug-In . SVG Version: 6.00 Build 0)  -->

<svg id="Layer_1" xmlns="http://www.w3.org/2000/svg" xml:space="preserve" viewBox="0 0 216 216" version="1.1" y="0px" x="0px" xmlns:xlink="http://www.w3.org/1999/xlink" enable-background="new 0 0 216 216" width="216" height="216">
	<path d="m145.11 95.428c-0.007-0.069-0.02-0.133-0.04-0.2-0.02-0.061-0.044-0.116-0.073-0.171-0.031-0.056-0.064-0.107-0.105-0.157-0.045-0.053-0.092-0.097-0.145-0.14-0.027-0.022-0.045-0.053-0.075-0.073l-11-7.072c-0.161-0.103-0.349-0.159-0.541-0.159h-9.64v-2.545c0-3.56-2.896-6.455-6.455-6.455h-17.567c-3.56 0-6.455 2.896-6.455 6.455v2.545h-10.176c-0.192 0-0.38 0.055-0.541 0.159l-11 7.072c-0.03 0.02-0.048 0.05-0.075 0.073-0.053 0.043-0.1 0.087-0.145 0.14-0.041 0.05-0.074 0.101-0.105 0.157-0.029 0.055-0.054 0.11-0.073 0.171-0.021 0.066-0.033 0.131-0.04 0.2-0.004 0.035-0.021 0.066-0.021 0.101v39.178c0 0.553 0.448 1 1 1h72.289c0.552 0 1-0.447 1-1v-39.181c0-0.035-0.02-0.066-0.02-0.101zm-50.092-10.516c0-2.456 1.999-4.455 4.455-4.455h17.572c2.456 0 4.455 1.999 4.455 4.455v4.922c0 0.322 0 0.5-1.5 0.5s-1.5-0.178-1.5-0.5v-4.922c0-0.802-0.653-1.455-1.455-1.455h-17.567c-0.802 0-1.455 0.653-1.455 1.455v4.922c0 0.322 0 0.5-1.5 0.5s-1.5-0.178-1.5-0.5v-4.922zm21.482 0.545v2h-16.482v-2h16.48zm-33.364 4h9.882v0.377c0 2.5 2.452 2.5 3.5 2.5s3.5 0 3.5-2.5v-0.377h16.48v0.377c0 2.5 2.452 2.5 3.5 2.5s3.5 0 3.5-2.5v-0.377h9.337l7.889 5.072h-65.483l7.889-5.072zm59.994 44.253h-70.288v-26.5h9.38v3.086c0 1.098 0.53 2.066 1.338 2.691-0.035 0.125-0.057 0.255-0.057 0.39v1.494c0 1.14 1.318 2 3.065 2s3.065-0.86 3.065-2v-1.494c0-0.134-0.021-0.264-0.057-0.39 0.809-0.625 1.339-1.594 1.339-2.691v-3.086h34.306v3.086c0 1.098 0.53 2.066 1.338 2.691-0.035 0.125-0.057 0.255-0.057 0.39v1.494c0 1.14 1.318 2 3.065 2s3.065-0.86 3.065-2v-1.494c0-0.134-0.021-0.264-0.057-0.39 0.809-0.625 1.339-1.594 1.339-2.691v-3.086h9.215v26.5zm-55.628-21.5h-1.866c-1.056 0-1.914-0.858-1.914-1.914v-4.672c0-1.056 0.858-1.914 1.914-1.914h1.866c1.056 0 1.914 0.858 1.914 1.914v4.672c0 1.05-0.858 1.91-1.914 1.91zm0.634 2.64c-0.047 0.143-0.6 0.515-1.567 0.515-0.968 0-1.521-0.372-1.565-0.5l-0.002-1.226c0.207 0.039 0.418 0.064 0.635 0.064h1.866c0.216 0 0.427-0.025 0.632-0.064l0.001 1.22zm42.364-2.64h-1.866c-1.056 0-1.914-0.858-1.914-1.914v-4.672c0-1.056 0.858-1.914 1.914-1.914h1.866c1.056 0 1.914 0.858 1.914 1.914v4.672c0.01 1.05-0.85 1.91-1.91 1.91zm0.64 2.64c-0.047 0.143-0.6 0.515-1.567 0.515-0.968 0-1.52-0.372-1.565-0.5l-0.002-1.226c0.207 0.039 0.418 0.064 0.635 0.064h1.866c0.216 0 0.427-0.025 0.632-0.064v1.22zm11.99-9.14h-9.215v-0.086c0-1.883-1.532-3.414-3.414-3.414h-1.866c-1.883 0-3.414 1.531-3.414 3.414v0.086h-34.314v-0.086c0-1.883-1.532-3.414-3.414-3.414h-1.866c-1.883 0-3.414 1.531-3.414 3.414v0.086h-9.38v-9.178h70.289v9.178z"></path>
</svg>
