<?xml version="1.0"?>

<!-- Generator: Adobe Illustrator 17.1.0, SVG Export Plug-In . SVG Version: 6.00 Build 0)  -->

<svg id="Layer_1" xmlns="http://www.w3.org/2000/svg" xml:space="preserve" viewBox="0 0 216 216" version="1.1" y="0px" x="0px" xmlns:xlink="http://www.w3.org/1999/xlink" enable-background="new 0 0 216 216" width="216" height="216">
<path d="m133.36 103.32c-0.041-0.005-1.758-0.187-4.824-0.396v-10.407c0-10.994-8.945-19.938-19.938-19.938s-19.938 8.944-19.938 19.938v10.408c-3.067 0.21-4.785 0.392-4.824 0.396-0.521 0.058-0.916 0.496-0.916 1.021v32.869c0 0.522 0.391 0.959 0.908 1.02 0.111 0.014 11.258 1.291 24.77 1.291s24.659-1.277 24.769-1.291c0.52-0.06 0.91-0.498 0.91-1.02v-32.869c-0.01-0.53-0.4-0.96-0.92-1.02zm-1.14 32.96c-2.908 0.299-12.445 1.18-23.624 1.18s-20.717-0.881-23.624-1.18v-31.014c0.769-0.07 2.023-0.176 3.685-0.291 0.627-0.043 1.311-0.087 2.055-0.133 1.748-0.104 3.813-0.208 6.162-0.295 0.662-0.024 1.349-0.047 2.055-0.067 2.881-0.089 6.113-0.146 9.667-0.146s6.784 0.059 9.667 0.146c0.705 0.021 1.391 0.044 2.054 0.067 2.349 0.087 4.413 0.191 6.163 0.297 0.744 0.045 1.428 0.089 2.055 0.131 1.662 0.115 2.916 0.221 3.686 0.291v31zm-13.96-33.85c-2.887-0.087-6.117-0.145-9.667-0.145s-6.78 0.058-9.667 0.145v-9.916c0-5.33 4.336-9.667 9.667-9.667 5.33 0 9.667 4.337 9.667 9.667v9.926zm-27.551-9.917c0-9.861 8.021-17.884 17.884-17.884 9.861 0 17.884 8.022 17.884 17.884v10.277c-1.754-0.104-3.826-0.207-6.163-0.293v-9.984c0-6.463-5.258-11.721-11.721-11.721s-11.719 5.255-11.719 11.718v9.984c-2.336 0.086-4.408 0.188-6.162 0.293v-10.277zm37.821 16.667h0.066c0.426 0 0.77 0.345 0.77 0.77 0 0.426-0.344 0.771-0.77 0.771h-29.152c-0.227 0-0.424-0.104-0.566-0.26-0.124-0.136-0.204-0.312-0.204-0.512 0-0.217 0.091-0.41 0.233-0.551 0.139-0.135 0.327-0.219 0.537-0.219h29.074zm-33.495 0.76c0 0.283-0.23 0.514-0.514 0.514h-6.147c-0.284 0-0.514-0.23-0.514-0.514s0.229-0.514 0.514-0.514h6.146c0.285 0 0.515 0.23 0.515 0.51zm34.335 16.44c0 0.426-0.344 0.771-0.77 0.771h-29.137c-0.424 0-0.771-0.346-0.771-0.771s0.347-0.77 0.771-0.77h29.135c0.42 0 0.77 0.35 0.77 0.77zm-34.335 0c0 0.284-0.23 0.514-0.514 0.514h-6.146c-0.284 0-0.514-0.229-0.514-0.514 0-0.283 0.229-0.514 0.514-0.514h6.146c0.284 0 0.514 0.23 0.514 0.51zm34.335 5.48c0 0.425-0.344 0.77-0.77 0.77h-29.137c-0.424 0-0.771-0.345-0.771-0.77 0-0.426 0.347-0.77 0.771-0.77h29.135c0.42 0 0.77 0.34 0.77 0.77zm-34.335 0c0 0.283-0.23 0.514-0.514 0.514h-6.146c-0.284 0-0.514-0.23-0.514-0.514s0.229-0.514 0.514-0.514h6.146c0.284-0.01 0.514 0.22 0.514 0.51zm34.335-10.96c0 0.426-0.344 0.771-0.77 0.771h-29.137c-0.424 0-0.771-0.345-0.771-0.771s0.347-0.77 0.771-0.77h29.135c0.42 0 0.77 0.35 0.77 0.77zm-34.335 0c0 0.284-0.23 0.514-0.514 0.514h-6.146c-0.284 0-0.514-0.229-0.514-0.514 0-0.283 0.229-0.514 0.514-0.514h6.146c0.284 0 0.514 0.23 0.514 0.51zm34.335-5.48c0 0.426-0.344 0.769-0.77 0.769h-29.137c-0.424 0-0.771-0.344-0.771-0.769 0-0.426 0.347-0.771 0.771-0.771h29.135c0.42 0 0.77 0.35 0.77 0.77zm-34.419-0.26c0.047 0.079 0.084 0.166 0.084 0.266 0 0.283-0.23 0.514-0.514 0.514h-6.146c-0.284 0-0.514-0.23-0.514-0.514s0.229-0.514 0.514-0.514h6.147c0.183-0.01 0.337 0.09 0.429 0.24z"></path>
</svg>
