<?xml version="1.0"?>

<!-- Generator: Adobe Illustrator 17.1.0, SVG Export Plug-In . SVG Version: 6.00 Build 0)  -->

<svg id="Layer_1" xmlns="http://www.w3.org/2000/svg" xml:space="preserve" viewBox="0 0 216 216" version="1.1" y="0px" x="0px" xmlns:xlink="http://www.w3.org/1999/xlink" enable-background="new 0 0 216 216" width="216" height="216">
		<path d="m85.817 104.46c-0.023 0-0.047-0.002-0.07-0.005-4.119-0.582-7.613-1.319-10.387-2.19-0.264-0.082-0.41-0.363-0.326-0.627 0.082-0.263 0.359-0.411 0.627-0.326 2.721 0.854 6.16 1.579 10.227 2.153 0.273 0.038 0.463 0.292 0.424 0.565-0.036 0.26-0.249 0.44-0.495 0.44z"></path>
		<path d="m106.7 106.04c-4.186 0-8.299-0.144-12.223-0.427-0.412-0.03-0.723-0.389-0.693-0.802 0.029-0.414 0.391-0.72 0.803-0.694 3.887 0.28 7.963 0.423 12.113 0.423 12.779 0 24.504-1.348 31.365-3.604 0.393-0.13 0.818 0.085 0.947 0.478 0.129 0.394-0.084 0.817-0.479 0.946-7 2.3-18.9 3.67-31.83 3.67z"></path>
		<path d="m106.7 129.22c-19.133 0-38.502-3.057-38.502-8.898v-22.926c0-5.841 19.369-8.897 38.502-8.897 19.135 0 38.504 3.056 38.504 8.897v22.924c0 5.84-19.37 8.9-38.5 8.9zm0-38.723c-22.615 0-36.502 4.017-36.502 6.897v22.924c0 2.881 13.887 6.898 36.502 6.898 22.617 0 36.504-4.018 36.504-6.898v-22.926c0-2.88-13.88-6.897-36.5-6.897z"></path>
</svg>
