<?xml version="1.0"?>

<!-- Generator: Adobe Illustrator 18.0.0, SVG Export Plug-In . SVG Version: 6.00 Build 0)  -->

<svg xmlns="http://www.w3.org/2000/svg" xml:space="preserve" version="1.0" y="0px" x="0px" xmlns:xlink="http://www.w3.org/1999/xlink" viewBox="0 0 144 144" enable-background="new 0 0 144 144" width="144" height="144">
<g id="template" display="none">
	<circle r="36" cy="72" stroke="#fff" cx="72" stroke-miterlimit="10" stroke-width=".25" display="inline" fill="none"></circle>
	<g display="inline">
			<circle r="40.5" cx="72" cy="72" stroke="#fff" stroke-linecap="round" stroke-miterlimit="10" stroke-dasharray="1.9875,1.9875" stroke-width=".25" fill="none"></circle>
	</g>
		<line y2="126" stroke-width=".25" x2="72" stroke="#fff" stroke-miterlimit="10" y1="18" x1="72" display="inline" fill="none"></line>
		<line y2="72" stroke-width=".25" x2="18" stroke="#fff" stroke-miterlimit="10" y1="72" x1="126" display="inline" fill="none"></line>
		<line y2="110.2" stroke-width=".25" x2="33.8" stroke="#fff" stroke-miterlimit="10" y1="33.8" x1="110.2" display="inline" fill="none"></line>
		<line y2="33.8" stroke-width=".25" x2="33.8" stroke="#fff" stroke-miterlimit="10" y1="110.2" x1="110.2" display="inline" fill="none"></line>
</g>
<g id="icon">
		<path d="m97.9 102.2h-1.8c-0.5 0-0.9-0.4-0.9-0.9s0.4-0.9 0.9-0.9h1.8c0.5 0 0.9 0.4 0.9 0.9s-0.4 0.9-0.9 0.9zm-5.4 0h-1.8c-0.5 0-0.9-0.4-0.9-0.9s0.4-0.9 0.9-0.9h1.8c0.5 0 0.9 0.4 0.9 0.9s-0.4 0.9-0.9 0.9zm-5.4 0h-1.8c-0.5 0-0.9-0.4-0.9-0.9s0.4-0.9 0.9-0.9h1.8c0.5 0 0.9 0.4 0.9 0.9s-0.4 0.9-0.9 0.9zm-5.3 0h-1.8c-0.5 0-0.9-0.4-0.9-0.9s0.4-0.9 0.9-0.9h1.8c0.5 0 0.9 0.4 0.9 0.9s-0.4 0.9-0.9 0.9zm-5.4 0h-1.8c-0.5 0-0.9-0.4-0.9-0.9s0.4-0.9 0.9-0.9h1.8c0.5 0 0.9 0.4 0.9 0.9s-0.4 0.9-0.9 0.9zm-5.4 0h-1.8c-0.5 0-0.9-0.4-0.9-0.9s0.4-0.9 0.9-0.9h1.8c0.5 0 0.9 0.4 0.9 0.9s-0.4 0.9-0.9 0.9zm-5.4 0h-1.8c-0.5 0-0.9-0.4-0.9-0.9s0.4-0.9 0.9-0.9h1.8c0.5 0 0.9 0.4 0.9 0.9s-0.4 0.9-0.9 0.9zm-5.4 0h-1.8c-0.5 0-0.9-0.4-0.9-0.9s0.4-0.9 0.9-0.9h1.8c0.5 0 0.9 0.4 0.9 0.9s-0.4 0.9-0.9 0.9zm-5.4 0h-1.8c-0.5 0-0.9-0.4-0.9-0.9s0.4-0.9 0.9-0.9h1.8c0.5 0 0.9 0.4 0.9 0.9s-0.4 0.9-0.9 0.9zm-5.4 0h-1.8c-0.5 0-0.9-0.4-0.9-0.9s0.4-0.9 0.9-0.9h1.8c0.5 0 0.9 0.4 0.9 0.9s-0.4 0.9-0.9 0.9zm-5.4-0.1h-0.2c-0.8-0.2-1.5-0.9-1.9-1.7-0.2-0.5 0-1 0.5-1.2s1 0 1.2 0.5c0.1 0.3 0.4 0.5 0.7 0.6 0.5 0.1 0.8 0.6 0.6 1.1-0.1 0.5-0.5 0.7-0.9 0.7zm57.2-0.9c-0.2 0-0.3 0-0.4-0.1-0.4-0.2-0.6-0.8-0.3-1.2 0.1-0.2 0.1-0.3 0.1-0.5v-0.8c0-0.5 0.4-0.9 0.9-0.9s0.9 0.4 0.9 0.9v0.8c0 0.5-0.1 1-0.4 1.4-0.2 0.2-0.5 0.4-0.8 0.4zm-58.6-3.8c-0.5 0-0.9-0.4-0.9-0.9v-1.8c0-0.5 0.4-0.9 0.9-0.9s0.9 0.4 0.9 0.9v1.8c0 0.5-0.4 0.9-0.9 0.9zm58.8-1.5c-0.5 0-0.9-0.4-0.9-0.9v-1.8c0-0.5 0.4-0.9 0.9-0.9s0.9 0.4 0.9 0.9v1.8c0 0.5-0.4 0.9-0.9 0.9zm-58.8-3.9c-0.5 0-0.9-0.4-0.9-0.9v-1.8c0-0.5 0.4-0.9 0.9-0.9s0.9 0.4 0.9 0.9v1.8c0 0.5-0.4 0.9-0.9 0.9zm58.8-1.5c-0.5 0-0.9-0.4-0.9-0.9v-1.8c0-0.5 0.4-0.9 0.9-0.9s0.9 0.4 0.9 0.9v1.8c0 0.5-0.4 0.9-0.9 0.9zm-58.8-3.9c-0.5 0-0.9-0.4-0.9-0.9v-1.8c0-0.5 0.4-0.9 0.9-0.9s0.9 0.4 0.9 0.9v1.8c0 0.5-0.4 0.9-0.9 0.9zm58.8-1.5c-0.5 0-0.9-0.4-0.9-0.9v-1.8c0-0.5 0.4-0.9 0.9-0.9s0.9 0.4 0.9 0.9v1.8c0 0.5-0.4 0.9-0.9 0.9zm-58.8-3.9c-0.5 0-0.9-0.4-0.9-0.9v-1.8c0-0.5 0.4-0.9 0.9-0.9s0.9 0.4 0.9 0.9v1.8c0 0.5-0.4 0.9-0.9 0.9zm58.8-1.5c-0.5 0-0.9-0.4-0.9-0.9v-1.8c0-0.5 0.4-0.9 0.9-0.9s0.9 0.4 0.9 0.9v1.8c0 0.5-0.4 0.9-0.9 0.9zm-58.8-3.9c-0.5 0-0.9-0.4-0.9-0.9v-1.8c0-0.5 0.4-0.9 0.9-0.9s0.9 0.4 0.9 0.9v1.8c0 0.5-0.4 0.9-0.9 0.9zm58.8-1.5c-0.5 0-0.9-0.4-0.9-0.9v-1.8c0-0.5 0.4-0.9 0.9-0.9s0.9 0.4 0.9 0.9v1.8c0 0.5-0.4 0.9-0.9 0.9zm-58.8-3.9c-0.5 0-0.9-0.4-0.9-0.9v-1.8c0-0.5 0.4-0.9 0.9-0.9s0.9 0.4 0.9 0.9v1.8c0 0.5-0.4 0.9-0.9 0.9zm58.8-1.5c-0.5 0-0.9-0.4-0.9-0.9v-1.8c0-0.5 0.4-0.9 0.9-0.9s0.9 0.4 0.9 0.9v1.8c0 0.5-0.4 0.9-0.9 0.9zm-58.8-3.8c-0.5 0-0.9-0.4-0.9-0.9v-1.8c0-0.5 0.4-0.9 0.9-0.9s0.9 0.4 0.9 0.9v1.8c0 0.5-0.4 0.9-0.9 0.9zm58.8-1.6c-0.5 0-0.9-0.4-0.9-0.9v-1.8c0-0.5 0.4-0.9 0.9-0.9s0.9 0.4 0.9 0.9v1.8c0 0.5-0.4 0.9-0.9 0.9zm-58.8-3.8c-0.5 0-0.9-0.4-0.9-0.9v-1.8c0-0.5 0.4-0.9 0.9-0.9s0.9 0.4 0.9 0.9v1.8c0 0.5-0.4 0.9-0.9 0.9zm58.8-1.6c-0.5 0-0.9-0.4-0.9-0.9v-1.8c0-0.5 0.4-0.9 0.9-0.9s0.9 0.4 0.9 0.9v1.8c0 0.5-0.4 0.9-0.9 0.9zm-58.8-3.8c-0.5 0-0.9-0.4-0.9-0.9v-1.8c0-0.5 0.4-0.9 0.9-0.9s0.9 0.4 0.9 0.9v1.8c0 0.5-0.4 0.9-0.9 0.9zm58.8-1.6c-0.5 0-0.9-0.4-0.9-0.9v-1.8c0-0.5 0.4-0.9 0.9-0.9s0.9 0.4 0.9 0.9v1.8c0 0.5-0.4 0.9-0.9 0.9zm-58.8-3.8c-0.5 0-0.9-0.4-0.9-0.9v-1.8c0-0.5 0.4-0.9 0.9-0.9s0.9 0.4 0.9 0.9v1.8c0 0.5-0.4 0.9-0.9 0.9zm58.8-1.5c-0.5 0-0.9-0.4-0.9-0.9v-1.6-0.1c-0.1-0.5 0.3-0.9 0.8-1s0.9 0.3 1 0.8v0.3 1.6c0 0.5-0.4 0.9-0.9 0.9zm-57.6-3.4c-0.3 0-0.7-0.2-0.8-0.5-0.2-0.5 0-1 0.5-1.2 0.4-0.2 0.8-0.2 1.2-0.2h1c0.5 0 0.9 0.4 0.9 0.9s-0.4 0.9-0.9 0.9h-1c-0.2 0-0.3 0-0.4 0.1h-0.5zm55.6-0.2h-1.8c-0.5 0-0.9-0.4-0.9-0.9s0.4-0.9 0.9-0.9h1.8c0.5 0 0.9 0.4 0.9 0.9s-0.4 0.9-0.9 0.9zm-5.3 0h-1.8c-0.5 0-0.9-0.4-0.9-0.9s0.4-0.9 0.9-0.9h1.8c0.5 0 0.9 0.4 0.9 0.9s-0.4 0.9-0.9 0.9zm-5.4 0h-1.8c-0.5 0-0.9-0.4-0.9-0.9s0.4-0.9 0.9-0.9h1.8c0.5 0 0.9 0.4 0.9 0.9s-0.4 0.9-0.9 0.9zm-5.4 0h-1.8c-0.5 0-0.9-0.4-0.9-0.9s0.4-0.9 0.9-0.9h1.8c0.5 0 0.9 0.4 0.9 0.9s-0.4 0.9-0.9 0.9zm-5.4 0h-1.8c-0.5 0-0.9-0.4-0.9-0.9s0.4-0.9 0.9-0.9h1.8c0.5 0 0.9 0.4 0.9 0.9s-0.4 0.9-0.9 0.9zm-5.4 0h-1.8c-0.5 0-0.9-0.4-0.9-0.9s0.4-0.9 0.9-0.9h1.8c0.5 0 0.9 0.4 0.9 0.9s-0.4 0.9-0.9 0.9zm-5.4 0h-1.8c-0.5 0-0.9-0.4-0.9-0.9s0.4-0.9 0.9-0.9h1.8c0.5 0 0.9 0.4 0.9 0.9s-0.4 0.9-0.9 0.9zm-5.4 0h-1.8c-0.5 0-0.9-0.4-0.9-0.9s0.4-0.9 0.9-0.9h1.8c0.5 0 0.9 0.4 0.9 0.9s-0.4 0.9-0.9 0.9zm-5.4 0h-1.8c-0.5 0-0.9-0.4-0.9-0.9s0.4-0.9 0.9-0.9h1.8c0.5 0 0.9 0.4 0.9 0.9s-0.4 0.9-0.9 0.9zm-5.4 0h-1.8c-0.5 0-0.9-0.4-0.9-0.9s0.4-0.9 0.9-0.9h1.8c0.5 0 0.9 0.4 0.9 0.9s-0.4 0.9-0.9 0.9z" fill="#221F1F"></path>
</g>
</svg>
