<?xml version="1.0"?>

<!-- Generator: Adobe Illustrator 17.1.0, SVG Export Plug-In . SVG Version: 6.00 Build 0)  -->

<svg id="Layer_1" xmlns="http://www.w3.org/2000/svg" xml:space="preserve" viewBox="0 0 180 180" version="1.1" y="0px" x="0px" xmlns:xlink="http://www.w3.org/1999/xlink" enable-background="new 0 0 180 180" width="180" height="180">
				<path d="m90 72.1c7.7 0 13.9-6.2 13.9-13.9s-6.2-13.9-13.9-13.9-13.9 6.2-13.9 13.9 6.2 13.9 13.9 13.9zm0-25.8c6.6 0 11.9 5.3 11.9 11.9s-5.3 11.9-11.9 11.9-11.9-5.3-11.9-11.9c0-6.5 5.3-11.9 11.9-11.9z"></path>
					<path d="m97.6 74.7h-15.2c-14.2 0-21.9 7.8-21.9 21.9v0.6c-4.4 0.9-7.8 4.8-7.8 9.5 0 5.3 4.3 9.7 9.7 9.7h0.5c1.8 2.5 4.4 4.5 7.1 6.4l0.6 0.5v5.6c0 0.2 0.1 0.5 0.2 0.7 1 1.1 5.2 4.6 19.2 4.6s18.2-3.5 19.2-4.6c0.2-0.2 0.2-0.4 0.2-0.7v-5.6l0.6-0.5c4.9-3.6 9.5-7 9.5-13.9v-12.3c0.1-14.1-7.7-21.9-21.9-21.9zm-2.7 2c-1.5 3.8-4.4 6.9-5.7 8.1-2.1-1.6-4.2-5.6-5.3-8.1h11zm-32.6 37.6h-0.7c-3.9-0.3-7-3.6-7-7.6 0-3.6 2.5-6.6 5.8-7.4 0.6-0.1 1.2-0.2 1.9-0.2h0.1c2.8 0.1 5.4 1.6 6.7 4.2 0.2 0.3 0.5 0.5 0.9 0.5h3.6c0 0.6 0.4 1 1 1h4.6l1.4 1.3c0.4 0.4 1 0.4 1.4 0l1.3-1.3h1.7l1.3 1.3c0.4 0.4 1 0.4 1.4 0l1.4-1.3h4.1l2.2 2.2-1.6 1.6h-19.3c-0.6 0-1 0.4-1 1h-0.8-1.8-1c-0.4 0-0.7 0.2-0.9 0.5-1.1 2.1-3 3.5-5.3 4-0.4 0.2-0.9 0.2-1.4 0.2zm8.7 6.8c-2.3-1.7-4.4-3.3-6-5.1 2.3-0.7 4.3-2.2 5.6-4.3h0.4v9.4zm46.6-12.3c0 5.9-4 8.9-8.7 12.3v-25.4c0-0.5-0.4-0.9-0.9-0.9s-0.9 0.4-0.9 0.9v33c-1.4 1.1-5.8 3.4-17.1 3.4-11.8 0-16-2.5-17.3-3.6v-0.2-16.6h1.8c0.6 0 1-0.4 1-1h18.7c0.3 0 0.5-0.1 0.7-0.3l2.6-2.6c0.4-0.4 0.4-1 0-1.4l-3.2-3.2c-0.2-0.2-0.4-0.3-0.7-0.3h-4.9c-0.3 0-0.5 0.1-0.7 0.3l-0.9 0.9-1.1-1.1c-0.2-0.2-0.4-0.3-0.7-0.3h-2.5c-0.3 0-0.5 0.1-0.7 0.3l-0.9 0.9-0.9-0.9c-0.2-0.2-0.4-0.3-0.7-0.3h-4c0-0.6-0.4-1-1-1h-1.8v-6c0-0.5-0.4-0.9-0.9-0.9s-0.9 0.4-0.9 0.9v6h-0.4c-1.7-2.9-4.8-4.6-8.1-4.7v-0.4c0-9 3.4-19.6 19.3-19.9 0.9 2 3.9 8.4 7.1 10.2 0.1 0.1 0.3 0.1 0.5 0.1s0.5-0.1 0.6-0.2c0.2-0.2 5.2-4.4 7.1-10.1h0.6c16.5 0 19.9 10.8 19.9 19.9v12.2z"></path>
					<path d="m58.3 108.6c-1.1 0-1.9-0.9-1.9-1.9 0-1.1 0.9-1.9 1.9-1.9 1.1 0 1.9 0.9 1.9 1.9s-0.8 1.9-1.9 1.9zm0-2.8c-0.5 0-0.9 0.4-0.9 0.9s0.4 0.9 0.9 0.9 0.9-0.4 0.9-0.9-0.4-0.9-0.9-0.9z"></path>
</svg>
