<?xml version="1.0"?>

<!-- Generator: Adobe Illustrator 17.1.0, SVG Export Plug-In . SVG Version: 6.00 Build 0)  -->

<svg id="Layer_1" xmlns="http://www.w3.org/2000/svg" xml:space="preserve" viewBox="0 0 144 144" version="1.1" y="0px" x="0px" xmlns:xlink="http://www.w3.org/1999/xlink" enable-background="new 0 0 144 144" width="144" height="144">
			<path d="m85.158 37.983c-0.189-0.194-0.447-0.304-0.719-0.304h-36.737c-0.553 0-1 0.447-1 1v66.641c0 0.553 0.447 1 1 1h48.597c0.553 0 1-0.447 1-1v-54.418c0-0.26-0.101-0.51-0.283-0.696l-11.858-12.223zm0.281 3.163l9.029 9.306h-9.029v-9.306zm-36.737-1.466h34.738v11.342c0 0.076 0.027 0.144 0.043 0.216-0.016 0.071-0.043 0.139-0.043 0.215 0 0.553 0.447 1 1 1h10.859v51.868h-46.597v-64.64z"></path>
		<path d="m87.465 61.472h-31.5c-0.414 0-0.75-0.336-0.75-0.75s0.336-0.75 0.75-0.75h31.5c0.414 0 0.75 0.336 0.75 0.75s-0.336 0.75-0.75 0.75z"></path>
		<path d="m81.047 69.222h-25.083c-0.414 0-0.75-0.336-0.75-0.75s0.336-0.75 0.75-0.75h25.082c0.414 0 0.75 0.336 0.75 0.75 0.001 0.414-0.335 0.75-0.749 0.75z"></path>
		<path d="m87.465 76.972h-31.5c-0.414 0-0.75-0.336-0.75-0.75s0.336-0.75 0.75-0.75h31.5c0.414 0 0.75 0.336 0.75 0.75s-0.336 0.75-0.75 0.75z"></path>
		<path d="m81.047 84.722h-25.083c-0.414 0-0.75-0.336-0.75-0.75s0.336-0.75 0.75-0.75h25.082c0.414 0 0.75 0.336 0.75 0.75 0.001 0.414-0.335 0.75-0.749 0.75z"></path>
		<path d="m87.465 92.472h-31.5c-0.414 0-0.75-0.336-0.75-0.75s0.336-0.75 0.75-0.75h31.5c0.414 0 0.75 0.336 0.75 0.75s-0.336 0.75-0.75 0.75z"></path>
</svg>
