<?xml version="1.0" encoding="UTF-8" standalone="no"?>
<!-- Created with Inkscape (http://www.inkscape.org/) -->
<svg xmlns:dc="http://purl.org/dc/elements/1.1/" xmlns:cc="http://web.resource.org/cc/" xmlns:rdf="http://www.w3.org/1999/02/22-rdf-syntax-ns#" xmlns:svg="http://www.w3.org/2000/svg" xmlns="http://www.w3.org/2000/svg" xmlns:sodipodi="http://sodipodi.sourceforge.net/DTD/sodipodi-0.dtd" xmlns:inkscape="http://www.inkscape.org/namespaces/inkscape" id="svg8222" sodipodi:version="0.32" inkscape:version="0.45" width="48" height="48" version="1.0" sodipodi:docname="scilab.svg" inkscape:output_extension="org.inkscape.output.svg.inkscape" sodipodi:modified="true">
  <metadata id="metadata8227">
    <rdf:RDF>
      <cc:Work rdf:about="">
        <dc:format>image/svg+xml</dc:format>
        <dc:type rdf:resource="http://purl.org/dc/dcmitype/StillImage"/>
        <cc:license rdf:resource="http://web.resource.org/cc/PublicDomain"/>
        <dc:title>logo_scilab_128</dc:title>
        <dc:date>2007-06-22</dc:date>
      </cc:Work>
      <cc:License rdf:about="http://web.resource.org/cc/PublicDomain">
        <cc:permits rdf:resource="http://web.resource.org/cc/Reproduction"/>
        <cc:permits rdf:resource="http://web.resource.org/cc/Distribution"/>
        <cc:permits rdf:resource="http://web.resource.org/cc/DerivativeWorks"/>
      </cc:License>
    </rdf:RDF>
  </metadata>
  <defs id="defs8225"/>
  <sodipodi:namedview inkscape:window-height="945" inkscape:window-width="1270" inkscape:pageshadow="2" inkscape:pageopacity="0.0" guidetolerance="10.0" gridtolerance="10.0" objecttolerance="10.0" borderopacity="1.0" bordercolor="#666666" pagecolor="#ffffff" id="base" inkscape:zoom="2" inkscape:cx="32" inkscape:cy="23.794842" inkscape:window-x="1281" inkscape:window-y="55" inkscape:current-layer="layer1" inkscape:showpageshadow="false" width="128px" height="128px"/>
  <g inkscape:groupmode="layer" id="layer1" inkscape:label="fichier" style="display:inline">
    <g id="g16235" transform="matrix(1.4948762,0,0,1.4939816,6.5004927e-2,9.6560765e-2)">
      <g id="g16223">
        <rect y="3.0825913" x="3.1381872" height="25.724346" width="25.557562" id="rect12124" style="fill:#000000;fill-opacity:1;stroke:#000000;stroke-width:0.83160913;stroke-miterlimit:4;stroke-dasharray:none;stroke-opacity:1"/>
        <g id="g16213">
          <g id="g16205">
            <rect style="fill:none;fill-opacity:1;stroke:#000000;stroke-width:0.96875;stroke-miterlimit:4;stroke-dasharray:none;stroke-opacity:1" id="rect9205" width="30.03125" height="30.03125" x="0.484375" y="0.48437476"/>
            <g id="g16199">
              <path sodipodi:nodetypes="ccc" id="rect9207" d="M 1.422758,30.080975 L 1.422758,1.3834456 L 30.022009,1.3834456" style="fill:none;fill-opacity:1;stroke:#ccccff;stroke-width:0.92414021;stroke-miterlimit:4;stroke-opacity:1"/>
              <g id="g16087">
                <path style="fill:none;fill-opacity:1;stroke:#3366cc;stroke-width:0.91024131;stroke-miterlimit:4;stroke-opacity:1" d="M 29.584193,1.8768568 L 29.584193,29.587563 L 1.8533086,29.643159" id="path10183" sodipodi:nodetypes="ccc"/>
                <path style="fill:none;fill-opacity:1;stroke:#3399cc;stroke-width:0.853576;stroke-miterlimit:4;stroke-opacity:1" d="M 2.2891955,29.270132 L 2.2891955,2.2498837 L 29.135913,2.3054793" id="rect9209" sodipodi:nodetypes="ccc"/>
              </g>
            </g>
          </g>
          <path sodipodi:nodetypes="ccc" id="rect13103" d="M 31.519007,1.8152897 L 31.519007,31.495927 L 1.893962,31.495927" style="fill:none;fill-opacity:1;stroke:#999999;stroke-width:1.00742173;stroke-miterlimit:4;stroke-opacity:1"/>
        </g>
      </g>
      <g id="g16076">
        <path sodipodi:type="arc" style="fill:#ff0000;fill-opacity:1;stroke:none;stroke-width:1;stroke-miterlimit:4;stroke-dasharray:none;stroke-opacity:1" id="path16056" sodipodi:cx="-25.53125" sodipodi:cy="16.46875" sodipodi:rx="2.46875" sodipodi:ry="2.46875" d="M -23.0625 16.46875 A 2.46875 2.46875 0 1 1  -28,16.46875 A 2.46875 2.46875 0 1 1  -23.0625 16.46875 z" transform="translate(32,0)"/>
        <path sodipodi:type="arc" style="fill:#ff3333;fill-opacity:1;stroke:none;stroke-width:1;stroke-miterlimit:4;stroke-dasharray:none;stroke-opacity:1" id="path16058" sodipodi:cx="-21.625" sodipodi:cy="20.5625" sodipodi:rx="2.5625" sodipodi:ry="2.5625" d="M -19.0625 20.5625 A 2.5625 2.5625 0 1 1  -24.1875,20.5625 A 2.5625 2.5625 0 1 1  -19.0625 20.5625 z" transform="translate(32,0)"/>
        <path sodipodi:type="arc" style="fill:#ffffff;fill-opacity:1;stroke:none;stroke-width:1;stroke-miterlimit:4;stroke-dasharray:none;stroke-opacity:1" id="path16062" sodipodi:cx="-6.0625" sodipodi:cy="21.0625" sodipodi:rx="2.125" sodipodi:ry="2.125" d="M -3.9375 21.0625 A 2.125 2.125 0 1 1  -8.1875,21.0625 A 2.125 2.125 0 1 1  -3.9375 21.0625 z" transform="translate(32,0)"/>
        <path sodipodi:type="arc" style="fill:#ffcccc;fill-opacity:1;stroke:none;stroke-width:1;stroke-miterlimit:4;stroke-dasharray:none;stroke-opacity:1" id="path16064" sodipodi:cx="-7.125" sodipodi:cy="16" sodipodi:rx="2" sodipodi:ry="2" d="M -5.125 16 A 2 2 0 1 1  -9.125,16 A 2 2 0 1 1  -5.125 16 z" transform="translate(31,0)"/>
        <path sodipodi:type="arc" style="fill:#ff9999;fill-opacity:1;stroke:none;stroke-width:1;stroke-miterlimit:4;stroke-dasharray:none;stroke-opacity:1" id="path16066" sodipodi:cx="-13.15625" sodipodi:cy="19.96875" sodipodi:rx="2.09375" sodipodi:ry="2.09375" d="M -11.0625 19.96875 A 2.09375 2.09375 0 1 1  -15.25,19.96875 A 2.09375 2.09375 0 1 1  -11.0625 19.96875 z" transform="translate(32,0)"/>
        <path sodipodi:type="arc" style="fill:#ff6666;fill-opacity:1;stroke:none;stroke-width:1;stroke-miterlimit:4;stroke-dasharray:none;stroke-opacity:1" id="path16068" sodipodi:cx="-15.40625" sodipodi:cy="15.46875" sodipodi:rx="2.34375" sodipodi:ry="2.34375" d="M -13.0625 15.46875 A 2.34375 2.34375 0 1 1  -17.75,15.46875 A 2.34375 2.34375 0 1 1  -13.0625 15.46875 z" transform="translate(31,-1)"/>
        <path sodipodi:type="arc" style="fill:#ff3333;fill-opacity:1;stroke:none;stroke-width:1;stroke-miterlimit:4;stroke-dasharray:none;stroke-opacity:1" id="path16070" sodipodi:cx="-17.96875" sodipodi:cy="10.84375" sodipodi:rx="2.15625" sodipodi:ry="2.15625" d="M -15.8125 10.84375 A 2.15625 2.15625 0 1 1  -20.125,10.84375 A 2.15625 2.15625 0 1 1  -15.8125 10.84375 z" transform="translate(30,0)"/>
        <path sodipodi:type="arc" style="fill:#ff9999;fill-opacity:1;stroke:none;stroke-width:1;stroke-miterlimit:4;stroke-dasharray:none;stroke-opacity:1" id="path16072" sodipodi:cx="-9.15625" sodipodi:cy="11.03125" sodipodi:rx="2.03125" sodipodi:ry="2.03125" d="M -7.125 11.03125 A 2.03125 2.03125 0 1 1  -11.1875,11.03125 A 2.03125 2.03125 0 1 1  -7.125 11.03125 z" transform="translate(31,0)"/>
        <path sodipodi:type="arc" style="fill:#ff6633;fill-opacity:1;stroke:none;stroke-width:1;stroke-miterlimit:4;stroke-dasharray:none;stroke-opacity:1" id="path16074" sodipodi:cx="-10.96875" sodipodi:cy="6.09375" sodipodi:rx="1.96875" sodipodi:ry="1.96875" d="M -9 6.09375 A 1.96875 1.96875 0 1 1  -12.9375,6.09375 A 1.96875 1.96875 0 1 1  -9 6.09375 z" transform="translate(30,0)"/>
      </g>
    </g>
  </g>
</svg>