<?xml version="1.0" encoding="UTF-8" standalone="no"?>
<!-- Created with Inkscape (http://www.inkscape.org/) -->

<svg
   xmlns:dc="http://purl.org/dc/elements/1.1/"
   xmlns:cc="http://creativecommons.org/ns#"
   xmlns:rdf="http://www.w3.org/1999/02/22-rdf-syntax-ns#"
   xmlns:svg="http://www.w3.org/2000/svg"
   xmlns="http://www.w3.org/2000/svg"
   xmlns:xlink="http://www.w3.org/1999/xlink"
   xmlns:sodipodi="http://sodipodi.sourceforge.net/DTD/sodipodi-0.dtd"
   xmlns:inkscape="http://www.inkscape.org/namespaces/inkscape"
   width="516.30341"
   height="777.28528"
   id="svg4312"
   version="1.1"
   inkscape:version="0.48.1 r9760"
   sodipodi:docname="stycil_tux.svg">
  <title
     id="title5291">Stycil Tux</title>
  <defs
     id="defs4314">
    <linearGradient
       id="linearGradient3910-6-0-8-7-7-8">
      <stop
         style="stop-color:#000000;stop-opacity:1;"
         offset="0"
         id="stop3912-5-9-3-8-7-4" />
      <stop
         style="stop-color:#4c4c4c;stop-opacity:1;"
         offset="1"
         id="stop3914-0-1-3-0-6-9" />
    </linearGradient>
    <linearGradient
       y2="497.71365"
       x2="140.00095"
       y1="230.00362"
       x1="140.00095"
       gradientTransform="matrix(2.8137063,0,0,2.8137063,-142.7958,-633.69995)"
       gradientUnits="userSpaceOnUse"
       id="linearGradient4970"
       xlink:href="#linearGradient3910-6-0-8-7-7-8"
       inkscape:collect="always" />
    <linearGradient
       id="linearGradient3910-6-0-8-7-81">
      <stop
         style="stop-color:#ffffff;stop-opacity:1;"
         offset="0"
         id="stop3912-5-9-3-8-5" />
      <stop
         style="stop-color:#a6a6a6;stop-opacity:1;"
         offset="1"
         id="stop3914-0-1-3-0-64" />
    </linearGradient>
    <linearGradient
       y2="497.71365"
       x2="140.00095"
       y1="230.00362"
       x1="140.00095"
       gradientTransform="matrix(2.8137063,0,0,2.8137063,-131.42674,-633.69995)"
       gradientUnits="userSpaceOnUse"
       id="linearGradient5004"
       xlink:href="#linearGradient3910-6-0-8-7-81"
       inkscape:collect="always" />
    <linearGradient
       id="linearGradient4565-3">
      <stop
         style="stop-color:#939393;stop-opacity:1;"
         offset="0"
         id="stop4567-1" />
      <stop
         style="stop-color:#000000;stop-opacity:1;"
         offset="1"
         id="stop4569-9" />
    </linearGradient>
    <linearGradient
       y2="518.87225"
       x2="140.00095"
       y1="383.11075"
       x1="140.00095"
       gradientTransform="matrix(2.8137063,0,0,-2.8137063,-131.42674,2188.2705)"
       gradientUnits="userSpaceOnUse"
       id="linearGradient4598-6"
       xlink:href="#linearGradient4617-7"
       inkscape:collect="always" />
    <linearGradient
       id="linearGradient4617-7">
      <stop
         id="stop4619-9"
         offset="0"
         style="stop-color:#ffffff;stop-opacity:0;" />
      <stop
         id="stop4621-5"
         offset="1"
         style="stop-color:#a6a6a6;stop-opacity:0.5" />
    </linearGradient>
    <radialGradient
       inkscape:collect="always"
       xlink:href="#linearGradient4575-9"
       id="radialGradient4581-2"
       cx="369.02136"
       cy="68.78437"
       fx="369.02136"
       fy="68.78437"
       r="1173.3553"
       gradientTransform="matrix(1,0,0,0.33333332,0,843.75392)"
       gradientUnits="userSpaceOnUse" />
    <linearGradient
       inkscape:collect="always"
       id="linearGradient4575-9">
      <stop
         style="stop-color:#ffffff;stop-opacity:1;"
         offset="0"
         id="stop4577-3" />
      <stop
         style="stop-color:#ffffff;stop-opacity:0;"
         offset="1"
         id="stop4579-1" />
    </linearGradient>
    <clipPath
       clipPathUnits="userSpaceOnUse"
       id="clipPath4719-2">
      <rect
         style="color:#000000;fill:#000000;fill-opacity:1;fill-rule:nonzero;stroke:none;stroke-width:15;marker:none;visibility:visible;display:inline;overflow:visible;enable-background:accumulate"
         id="rect4721-4"
         width="1352.3417"
         height="1135.7903"
         x="-490.55533"
         y="-358.505" />
    </clipPath>
    <filter
       color-interpolation-filters="sRGB"
       inkscape:collect="always"
       id="filter4731-8">
      <feGaussianBlur
         inkscape:collect="always"
         stdDeviation="16.169858"
         id="feGaussianBlur4733-7" />
    </filter>
    <linearGradient
       y2="-367.20361"
       x2="328.35989"
       y1="932.22736"
       x1="328.35989"
       gradientTransform="translate(329.24647,112.50004)"
       gradientUnits="userSpaceOnUse"
       id="linearGradient4801"
       xlink:href="#linearGradient4565-3"
       inkscape:collect="always" />
  </defs>
  <sodipodi:namedview
     id="base"
     pagecolor="#ffffff"
     bordercolor="#666666"
     borderopacity="1.0"
     inkscape:pageopacity="0.0"
     inkscape:pageshadow="2"
     inkscape:zoom="0.32"
     inkscape:cx="-279.05309"
     inkscape:cy="144.72414"
     inkscape:document-units="px"
     inkscape:current-layer="layer1"
     showgrid="false"
     fit-margin-top="0"
     fit-margin-left="0"
     fit-margin-right="0"
     fit-margin-bottom="0"
     inkscape:window-width="1276"
     inkscape:window-height="839"
     inkscape:window-x="205"
     inkscape:window-y="101"
     inkscape:window-maximized="0" />
  <metadata
     id="metadata4317">
    <rdf:RDF>
      <cc:Work
         rdf:about="">
        <dc:format>image/svg+xml</dc:format>
        <dc:type
           rdf:resource="http://purl.org/dc/dcmitype/StillImage" />
        <dc:title>Stycil Tux</dc:title>
        <dc:creator>
          <cc:Agent>
            <dc:title>Cheeseness (Josh Bush)</dc:title>
          </cc:Agent>
        </dc:creator>
        <dc:subject>
          <rdf:Bag>
            <rdf:li>tux linux icon</rdf:li>
          </rdf:Bag>
        </dc:subject>
        <dc:description>A stylised stencil (a &quot;stycil&quot; - isn't that catchy) inspired by Larry Ewing's Tux illustration.
http://en.wikipedia.org/wiki/Tux

You're under no obligation to do so, but if you do something with this, drop me a line - I'd love to hear about it.
cheese@twolofbees.com</dc:description>
        <dc:date>2012-01-02</dc:date>
        <cc:license
           rdf:resource="http://creativecommons.org/publicdomain/zero/1.0/" />
        <dc:source>http://twolofbees.com/uploads/2012/stycil_tux.svg</dc:source>
        <dc:relation>http://twolofbees.com/artwork.php?iid=870</dc:relation>
      </cc:Work>
    </rdf:RDF>
  </metadata>
  <g
     inkscape:groupmode="layer"
     id="layer1"
     inkscape:label="Background"
     style="display:none">
    <rect
       style="color:#000000;fill:url(#linearGradient4801);fill-opacity:1;fill-rule:nonzero;stroke:none;stroke-width:15;marker:none;visibility:visible;display:inline;overflow:visible;enable-background:accumulate"
       id="rect3795"
       width="2079.0068"
       height="1314.0165"
       x="-781.35175"
       y="-255.10732"
       inkscape:export-filename="/media/stuff/design/tux/tux.png"
       inkscape:export-xdpi="76.385529"
       inkscape:export-ydpi="76.385529" />
    <path
       sodipodi:type="arc"
       style="opacity:0.5;color:#000000;fill:url(#radialGradient4581-2);fill-opacity:1;fill-rule:nonzero;stroke:none;stroke-width:15;marker:none;visibility:visible;display:inline;overflow:visible;enable-background:accumulate"
       id="path4573"
       sodipodi:cx="369.02136"
       sodipodi:cy="1265.6309"
       sodipodi:rx="1173.3553"
       sodipodi:ry="391.11844"
       d="m 1542.3767,1265.6309 a 1173.3553,391.11844 0 1 1 -2346.71068,0 1173.3553,391.11844 0 1 1 2346.71068,0 z"
       transform="translate(-106.45025,-243.06788)" />
    <path
       style="color:#000000;fill:url(#linearGradient4598-6);fill-opacity:1;fill-rule:nonzero;stroke:none;stroke-width:15;marker:none;visibility:visible;display:inline;overflow:visible;enable-background:accumulate"
       d="m 258.10787,1554.5706 c -75.9831,0 -120.5899,-46.353 -128.991,-108.8552 -8.4009,-62.5023 5.1251,-73.9555 -15.9149,-137.9597 C 92.161874,1243.7526 -2.1676056,1134.0352 0.03805438,1032.804 c 0.68683,-31.5169 4.31623002,-58.80622 10.63946962,-82.65272 7.75233,12.8449 19.23844,21.8974 27.60949,25.7632 6.53512,3.0168 9.69379,4.4676 11.16704,5.0118 0.21384,1.6192 1.0422,5.3058 2.54978,12.5739 2.07089,9.98192 10.00779,25.61112 23.56479,35.87472 -0.13787,3.1094 -0.28756,6.1868 -0.35171,9.4082 -1.56583,78.5179 79.585656,163.5821 94.523056,213.2263 14.9369,49.6425 8.4392,54.7547 10.9031,67.0892 2.4637,12.3344 11.9763,26.7021 25.6751,38.1609 1.305,1.0923 2.5751,1.5706 3.8689,1.5827 12.4889,0.1182 24.9868,-45.3482 49.1517,-45.371 24.165,-0.028 36.7358,55.4249 50.6468,43.7883 13.6988,-11.4591 23.2114,-25.8265 25.675,-38.1609 2.464,-12.3345 -4.0343,-17.4467 10.9031,-67.0892 14.9374,-49.6436 96.0009,-134.7081 94.4351,-213.2263 -0.065,-3.1913 -0.2167,-6.2386 -0.3518,-9.3204 13.6173,-10.2619 21.5772,-25.9564 23.6526,-35.96252 1.5076,-7.2681 2.3362,-10.9547 2.5501,-12.5739 1.4687,-0.5434 4.6406,-2.0782 11.1667,-5.0999 8.3739,-3.8773 19.7911,-12.9129 27.5217,-25.7631 6.3402,23.8712 10.0396,51.17822 10.7273,82.74072 2.2057,101.2312 -92.2116,210.9489 -113.2517,274.9517 -21.04,64.0042 -7.4262,75.4574 -15.8271,137.9597 -8.4009,62.5022 -53.0957,108.8552 -129.0787,108.8552 z m -149.3023,-541.8143 c -3.2625,-0.1885 -6.8677,-1.0664 -10.903096,-2.7256 -25.8265,-10.62182 -14.48107,-32.99862 -25.76319,-47.12962 -11.28156,-14.1318 -33.93443,-7.3249 -41.06239,-36.2265 -7.12768,-28.9021 102.438076,-170.8043 161.348376,-146.5766 58.9105,24.2277 37.0055,202.1856 11.6065,217.7105 -25.3985,15.52462 -36.6435,-5.2709 -54.6034,-3.1654 -15.1534,1.7766 -23.0048,19.13182 -40.6228,18.11322 z m 296.7579,0 c -16.2961,-0.2814 -24.1841,-16.40252 -38.7762,-18.11322 -17.9599,-2.1055 -29.2049,18.69002 -54.6034,3.1654 -25.399,-15.5249 -47.304,-193.4825 11.6065,-217.7105 58.9103,-24.2277 168.4761,117.6745 161.3484,146.5766 -7.128,28.9016 -29.6931,22.0947 -40.9746,36.2265 -11.2821,14.131 0.065,36.5078 -25.7629,47.12962 -4.8426,1.991 -9.077,2.7903 -12.8378,2.7256 z M 254.94237,838.74628 c -1.2872,-8.3167 -3.0154,-16.4782 -5.2757,-24.3563 -3.684,-12.84 -9.0609,-25.7077 -17.0581,-36.6662 8.2881,-0.5138 16.783,-0.5813 25.4993,-0.1745 8.7163,-0.406 17.2083,-0.3382 25.4992,0.1745 -7.9972,10.9585 -13.3741,23.8262 -17.0581,36.6662 -2.2603,7.8781 -3.9885,16.0396 -5.2757,24.3563 -1.0549,-0.028 -2.1007,-0.087 -3.1654,-0.087 -1.0648,0 -2.1106,0.068 -3.1655,0.087 z"
       id="path4372-6"
       inkscape:connector-curvature="0"
       sodipodi:nodetypes="ssssccccccsccccscsccccccssssccccsssccssscccccscccscsc" />
    <path
       transform="translate(4.375e-6,3.8320313e-5)"
       style="color:#000000;fill:#000000;fill-opacity:1;fill-rule:nonzero;stroke:none;stroke-width:15;marker:none;visibility:visible;display:inline;overflow:visible;filter:url(#filter4731-8);enable-background:accumulate"
       d="M 258.10782,-1.6796874e-6 C 182.1248,-1.6796874e-6 137.51799,46.352999 129.11683,108.85526 120.71595,171.35752 134.242,182.81072 113.20194,246.81494 92.16189,310.81803 -2.16761,420.53541 0.03805,521.76666 c 0.68683,31.51688 4.31623,58.80618 10.63947,82.65262 7.75233,-12.84485 19.23844,-21.89739 27.60949,-25.76314 6.53512,-3.01686 9.69379,-4.4676 11.16704,-5.01177 0.21384,-1.61929 1.0422,-5.30581 2.54978,-12.5739 2.07089,-9.9819 10.00779,-25.61119 23.56479,-35.87475 -0.13787,-3.10943 -0.28756,-6.18678 -0.35171,-9.40819 -1.56583,-78.51788 79.58568,-163.58213 94.52309,-213.22632 14.93684,-49.6425 8.43914,-54.75472 10.90311,-67.08917 2.46368,-12.33444 11.97626,-26.70207 25.67507,-38.16089 1.30499,-1.09228 2.5751,-1.57061 3.86884,-1.58271 12.48892,-0.11817 24.98684,45.34822 49.15179,45.37102 24.16496,0.0281 36.73575,-55.42495 50.64672,-43.78831 13.69881,11.4591 23.21139,25.82645 25.67507,38.16089 2.46396,12.33445 -4.0343,17.44667 10.90311,67.08917 14.9374,49.64363 96.00084,134.70816 94.43502,213.22632 -0.0647,3.19131 -0.21666,6.23855 -0.35172,9.3204 13.61721,10.26187 21.57719,25.95644 23.65258,35.96254 1.50758,7.26809 2.33622,10.95461 2.55006,12.5739 1.46876,0.54332 4.64065,2.0782 11.16676,5.09984 8.37387,3.87729 19.79104,12.91294 27.5217,25.76314 6.34013,-23.87121 10.03959,-51.17823 10.72726,-82.74069 C 518.47103,420.53541 424.05374,310.81775 403.01369,246.81494 381.97364,182.81072 395.58748,171.35752 387.18659,108.85526 378.78571,46.352999 334.09083,-1.6796874e-6 258.10782,-1.6796874e-6 z M 108.80553,541.81431 c -3.26249,0.18852 -6.8677,1.0664 -10.90311,2.72564 -25.82645,10.62174 -14.48102,32.99858 -25.76314,47.12958 -11.28156,14.13184 -33.93443,7.32492 -41.06239,36.22647 -7.12768,28.90211 102.43804,170.80435 161.34833,146.57665 58.91057,-24.2277 37.00558,-202.18562 11.60654,-217.71052 -25.39848,-15.52463 -36.64346,5.27091 -54.60335,3.16542 -15.15349,-1.77658 -23.00486,-19.1318 -40.62288,-18.11324 z m 296.75794,0 c -16.29614,0.28137 -24.18409,16.4025 -38.77625,18.11324 -17.95988,2.10549 -29.20486,-18.69005 -54.60334,-3.16542 -25.39905,15.5249 -47.30403,193.48254 11.60653,217.71052 58.91029,24.2277 168.47601,-117.67454 161.34833,-146.57665 -7.12796,-28.90155 -29.69304,-22.09463 -40.9746,-36.22647 -11.28211,-14.131 0.0647,-36.50784 -25.76285,-47.12958 -4.84267,-1.99098 -9.07702,-2.79035 -12.83782,-2.72564 z M 254.9424,715.82432 c -1.28727,8.31675 -3.01545,16.47819 -5.2757,24.35629 -3.68399,12.84006 -9.06098,25.7077 -17.0581,36.66625 8.28806,0.51378 16.78292,0.58131 25.49922,0.17445 8.7163,0.40601 17.20834,0.3382 25.49921,-0.17445 -7.99712,-10.95855 -13.37411,-23.82619 -17.05809,-36.66625 -2.26025,-7.8781 -3.98843,-16.03954 -5.2757,-24.35629 -1.05486,0.0281 -2.10072,0.0872 -3.16542,0.0872 -1.06471,0 -2.11056,-0.0675 -3.16542,-0.0872 z"
       id="path4372-0"
       inkscape:connector-curvature="0"
       sodipodi:nodetypes="ssssccccccsccccscsccccccssssccccsssccssscccccscccscsc"
       clip-path="url(#clipPath4719-2)" />
  </g>
  <g
     inkscape:groupmode="layer"
     id="layer2"
     inkscape:label="Black"
     style="display:none"
     sodipodi:insensitive="true">
    <path
       style="color:#000000;fill:#000000;fill-opacity:1;fill-rule:nonzero;stroke:none;stroke-width:15;marker:none;visibility:visible;display:inline;overflow:visible;enable-background:accumulate"
       d="M 258.10782,-1.6796874e-6 C 182.1248,-1.6796874e-6 137.51799,46.352999 129.11683,108.85526 120.71595,171.35752 134.242,182.81072 113.20194,246.81491 92.16189,310.818 -2.16761,420.53538 0.03805,521.76663 c 0.68683,31.51688 4.31623,58.80618 10.63947,82.65262 7.75233,-12.84485 19.23844,-21.89739 27.60949,-25.76314 6.53512,-3.01685 9.69379,-4.4676 11.16704,-5.01177 0.21384,-1.61929 1.0422,-5.30581 2.54978,-12.57389 2.07089,-9.98191 10.00779,-25.6112 23.56479,-35.87476 -0.13787,-3.10943 -0.28756,-6.18678 -0.35171,-9.40819 -1.56583,-78.51788 79.58568,-163.58213 94.52309,-213.22632 14.93684,-49.6425 8.43914,-54.75472 10.90311,-67.08917 2.46368,-12.33444 11.97626,-26.70204 25.67507,-38.16086 1.30499,-1.09228 2.5751,-1.57061 3.86884,-1.58271 12.48892,-0.11817 24.98684,45.3482 49.15179,45.37099 24.16496,0.0281 36.73575,-55.42492 50.64672,-43.78828 13.69881,11.4591 23.21139,25.82642 25.67507,38.16086 2.46396,12.33445 -4.0343,17.44667 10.90311,67.08917 14.9374,49.64363 96.00084,134.70816 94.43502,213.22632 -0.0647,3.19131 -0.21666,6.23855 -0.35172,9.3204 13.61721,10.26187 21.57719,25.95644 23.65258,35.96255 1.50758,7.26808 2.33622,10.9546 2.55006,12.57389 1.46876,0.54332 4.64065,2.0782 11.16676,5.09984 8.37387,3.87729 19.79104,12.91294 27.5217,25.76314 6.34013,-23.8712 10.03959,-51.17822 10.72726,-82.74069 C 518.47103,420.53538 424.05374,310.81772 403.01369,246.81491 381.97364,182.81072 395.58748,171.35752 387.18659,108.85526 378.78571,46.352999 334.09083,-1.6796874e-6 258.10782,-1.6796874e-6 z M 108.80553,541.81429 c -3.26249,0.18851 -6.8677,1.06639 -10.90311,2.72563 -25.82645,10.62174 -14.48102,32.99859 -25.76314,47.12958 -11.28156,14.13184 -33.93443,7.32492 -41.06239,36.22647 -7.12768,28.90211 102.43804,170.80435 161.34833,146.57665 58.91057,-24.2277 37.00558,-202.18561 11.60654,-217.71052 -25.39848,-15.52462 -36.64346,5.27092 -54.60335,3.16542 -15.15349,-1.77657 -23.00486,-19.1318 -40.62288,-18.11323 z m 296.75794,0 c -16.29614,0.28137 -24.18409,16.4025 -38.77625,18.11323 -17.95988,2.1055 -29.20486,-18.69004 -54.60334,-3.16542 -25.39905,15.52491 -47.30403,193.48254 11.60653,217.71052 58.91029,24.2277 168.47601,-117.67454 161.34833,-146.57665 -7.12796,-28.90155 -29.69304,-22.09463 -40.9746,-36.22647 -11.28211,-14.13099 0.0647,-36.50784 -25.76285,-47.12958 -4.84267,-1.99098 -9.07702,-2.79035 -12.83782,-2.72563 z m -150.62107,174.01 c -1.28727,8.31675 -3.01545,16.47819 -5.2757,24.35629 -3.68399,12.84006 -9.06098,25.70771 -17.0581,36.66625 8.28806,0.51378 16.78292,0.58131 25.49922,0.17445 8.7163,0.40602 17.20834,0.33821 25.49921,-0.17445 -7.99712,-10.95854 -13.37411,-23.82619 -17.05809,-36.66625 -2.26025,-7.8781 -3.98843,-16.03954 -5.2757,-24.35629 -1.05486,0.0281 -2.10072,0.0872 -3.16542,0.0872 -1.06471,0 -2.11056,-0.0675 -3.16542,-0.0872 z"
       id="path4372-4"
       inkscape:connector-curvature="0"
       sodipodi:nodetypes="ssssccccccsccccscsccccccssssccccsssccssscccccscccscsc" />
  </g>
  <g
     inkscape:groupmode="layer"
     id="layer3"
     inkscape:label="White"
     style="display:none"
     sodipodi:insensitive="true">
    <path
       style="color:#000000;fill:#ffffff;fill-opacity:1;fill-rule:nonzero;stroke:none;stroke-width:15;marker:none;visibility:visible;display:inline;overflow:visible;enable-background:accumulate"
       d="M 258.10782,-1.6796874e-6 C 182.1248,-1.6796874e-6 137.51799,46.352999 129.11683,108.85526 120.71595,171.35752 134.242,182.81072 113.20194,246.81491 92.16189,310.818 -2.16761,420.53538 0.03805,521.76663 c 0.68683,31.51688 4.31623,58.80618 10.63947,82.65262 7.75233,-12.84485 19.23844,-21.89739 27.60949,-25.76314 6.53512,-3.01685 9.69379,-4.4676 11.16704,-5.01177 0.21384,-1.61929 1.0422,-5.30581 2.54978,-12.57389 2.07089,-9.98191 10.00779,-25.6112 23.56479,-35.87476 -0.13787,-3.10943 -0.28756,-6.18678 -0.35171,-9.40819 -1.56583,-78.51788 79.58568,-163.58213 94.52309,-213.22632 14.93684,-49.6425 8.43914,-54.75472 10.90311,-67.08917 2.46368,-12.33444 11.97626,-26.70204 25.67507,-38.16086 1.30499,-1.09228 2.5751,-1.57061 3.86884,-1.58271 12.48892,-0.11817 24.98684,45.3482 49.15179,45.37099 24.16496,0.0281 36.73575,-55.42492 50.64672,-43.78828 13.69881,11.4591 23.21139,25.82642 25.67507,38.16086 2.46396,12.33445 -4.0343,17.44667 10.90311,67.08917 14.9374,49.64363 96.00084,134.70816 94.43502,213.22632 -0.0647,3.19131 -0.21666,6.23855 -0.35172,9.3204 13.61721,10.26187 21.57719,25.95644 23.65258,35.96255 1.50758,7.26808 2.33622,10.9546 2.55006,12.57389 1.46876,0.54332 4.64065,2.0782 11.16676,5.09984 8.37387,3.87729 19.79104,12.91294 27.5217,25.76314 6.34013,-23.8712 10.03959,-51.17822 10.72726,-82.74069 C 518.47103,420.53538 424.05374,310.81772 403.01369,246.81491 381.97364,182.81072 395.58748,171.35752 387.18659,108.85526 378.78571,46.352999 334.09083,-1.6796874e-6 258.10782,-1.6796874e-6 z M 108.80553,541.81429 c -3.26249,0.18851 -6.8677,1.06639 -10.90311,2.72563 -25.82645,10.62174 -14.48102,32.99859 -25.76314,47.12958 -11.28156,14.13184 -33.93443,7.32492 -41.06239,36.22647 -7.12768,28.90211 102.43804,170.80435 161.34833,146.57665 58.91057,-24.2277 37.00558,-202.18561 11.60654,-217.71052 -25.39848,-15.52462 -36.64346,5.27092 -54.60335,3.16542 -15.15349,-1.77657 -23.00486,-19.1318 -40.62288,-18.11323 z m 296.75794,0 c -16.29614,0.28137 -24.18409,16.4025 -38.77625,18.11323 -17.95988,2.1055 -29.20486,-18.69004 -54.60334,-3.16542 -25.39905,15.52491 -47.30403,193.48254 11.60653,217.71052 58.91029,24.2277 168.47601,-117.67454 161.34833,-146.57665 -7.12796,-28.90155 -29.69304,-22.09463 -40.9746,-36.22647 -11.28211,-14.13099 0.0647,-36.50784 -25.76285,-47.12958 -4.84267,-1.99098 -9.07702,-2.79035 -12.83782,-2.72563 z m -150.62107,174.01 c -1.28727,8.31675 -3.01545,16.47819 -5.2757,24.35629 -3.68399,12.84006 -9.06098,25.70771 -17.0581,36.66625 8.28806,0.51378 16.78292,0.58131 25.49922,0.17445 8.7163,0.40602 17.20834,0.33821 25.49921,-0.17445 -7.99712,-10.95854 -13.37411,-23.82619 -17.05809,-36.66625 -2.26025,-7.8781 -3.98843,-16.03954 -5.2757,-24.35629 -1.05486,0.0281 -2.10072,0.0872 -3.16542,0.0872 -1.06471,0 -2.11056,-0.0675 -3.16542,-0.0872 z"
       id="path4372-7-7"
       inkscape:connector-curvature="0"
       sodipodi:nodetypes="ssssccccccsccccscsccccccssssccccsssccssscccccscccscsc" />
  </g>
  <g
     inkscape:groupmode="layer"
     id="layer4"
     inkscape:label="White Gradient"
     style="display:none"
     sodipodi:insensitive="true">
    <path
       style="color:#000000;fill:url(#linearGradient5004);fill-opacity:1;fill-rule:nonzero;stroke:none;stroke-width:15;marker:none;visibility:visible;display:inline;overflow:visible;enable-background:accumulate"
       d="M 258.10782,-1.6796874e-6 C 182.1248,-1.6796874e-6 137.51799,46.352999 129.11683,108.85526 120.71595,171.35752 134.242,182.81072 113.20194,246.81494 92.16189,310.81803 -2.16761,420.53541 0.03805,521.76666 c 0.68683,31.51688 4.31623,58.80618 10.63947,82.65262 7.75233,-12.84485 19.23844,-21.89739 27.60949,-25.76314 6.53512,-3.01686 9.69379,-4.4676 11.16704,-5.01177 0.21384,-1.61929 1.0422,-5.30581 2.54978,-12.5739 2.07089,-9.9819 10.00779,-25.61119 23.56479,-35.87475 -0.13787,-3.10943 -0.28756,-6.18678 -0.35171,-9.40819 -1.56583,-78.51788 79.58568,-163.58213 94.52309,-213.22632 14.93684,-49.6425 8.43914,-54.75472 10.90311,-67.08917 2.46368,-12.33444 11.97626,-26.70207 25.67507,-38.16089 1.30499,-1.09228 2.5751,-1.57061 3.86884,-1.58271 12.48892,-0.11817 24.98684,45.34822 49.15179,45.37102 24.16496,0.0281 36.73575,-55.42495 50.64672,-43.78831 13.69881,11.4591 23.21139,25.82645 25.67507,38.16089 2.46396,12.33445 -4.0343,17.44667 10.90311,67.08917 14.9374,49.64363 96.00084,134.70816 94.43502,213.22632 -0.0647,3.19131 -0.21666,6.23855 -0.35172,9.3204 13.61721,10.26187 21.57719,25.95644 23.65258,35.96254 1.50758,7.26809 2.33622,10.95461 2.55006,12.5739 1.46876,0.54332 4.64065,2.0782 11.16676,5.09984 8.37387,3.87729 19.79104,12.91294 27.5217,25.76314 6.34013,-23.87121 10.03959,-51.17823 10.72726,-82.74069 C 518.47103,420.53541 424.05374,310.81775 403.01369,246.81494 381.97364,182.81072 395.58748,171.35752 387.18659,108.85526 378.78571,46.352999 334.09083,-1.6796874e-6 258.10782,-1.6796874e-6 z M 108.80553,541.81431 c -3.26249,0.18852 -6.8677,1.0664 -10.90311,2.72564 -25.82645,10.62174 -14.48102,32.99858 -25.76314,47.12958 -11.28156,14.13184 -33.93443,7.32492 -41.06239,36.22647 -7.12768,28.90211 102.43804,170.80435 161.34833,146.57665 58.91057,-24.2277 37.00558,-202.18562 11.60654,-217.71052 -25.39848,-15.52463 -36.64346,5.27091 -54.60335,3.16542 -15.15349,-1.77658 -23.00486,-19.1318 -40.62288,-18.11324 z m 296.75794,0 c -16.29614,0.28137 -24.18409,16.4025 -38.77625,18.11324 -17.95988,2.10549 -29.20486,-18.69005 -54.60334,-3.16542 -25.39905,15.5249 -47.30403,193.48254 11.60653,217.71052 58.91029,24.2277 168.47601,-117.67454 161.34833,-146.57665 -7.12796,-28.90155 -29.69304,-22.09463 -40.9746,-36.22647 -11.28211,-14.131 0.0647,-36.50784 -25.76285,-47.12958 -4.84267,-1.99098 -9.07702,-2.79035 -12.83782,-2.72564 z M 254.9424,715.82432 c -1.28727,8.31675 -3.01545,16.47819 -5.2757,24.35629 -3.68399,12.84006 -9.06098,25.7077 -17.0581,36.66625 8.28806,0.51378 16.78292,0.58131 25.49922,0.17445 8.7163,0.40601 17.20834,0.3382 25.49921,-0.17445 -7.99712,-10.95855 -13.37411,-23.82619 -17.05809,-36.66625 -2.26025,-7.8781 -3.98843,-16.03954 -5.2757,-24.35629 -1.05486,0.0281 -2.10072,0.0872 -3.16542,0.0872 -1.06471,0 -2.11056,-0.0675 -3.16542,-0.0872 z"
       id="path4372"
       inkscape:connector-curvature="0"
       sodipodi:nodetypes="ssssccccccsccccscsccccccssssccccsssccssscccccscccscsc" />
  </g>
  <g
     inkscape:groupmode="layer"
     id="layer5"
     inkscape:label="Black Gradient"
     style="display:inline"
     sodipodi:insensitive="true">
    <path
       style="color:#000000;fill:url(#linearGradient4970);fill-opacity:1;fill-rule:nonzero;stroke:none;stroke-width:15;marker:none;visibility:visible;display:inline;overflow:visible;enable-background:accumulate"
       d="M 258.10782,-1.6796874e-6 C 182.1248,-1.6796874e-6 137.51799,46.352999 129.11683,108.85526 120.71595,171.35752 134.242,182.81072 113.20194,246.81494 92.16189,310.81803 -2.16761,420.53541 0.03805,521.76666 c 0.68683,31.51688 4.31623,58.80618 10.63947,82.65262 7.75233,-12.84485 19.23844,-21.89739 27.60949,-25.76314 6.53512,-3.01686 9.69379,-4.4676 11.16704,-5.01177 0.21384,-1.61929 1.0422,-5.30581 2.54978,-12.5739 2.07089,-9.9819 10.00779,-25.61119 23.56479,-35.87475 -0.13787,-3.10943 -0.28756,-6.18678 -0.35171,-9.40819 -1.56583,-78.51788 79.58568,-163.58213 94.52309,-213.22632 14.93684,-49.6425 8.43914,-54.75472 10.90311,-67.08917 2.46368,-12.33444 11.97626,-26.70207 25.67507,-38.16089 1.30499,-1.09228 2.5751,-1.57061 3.86884,-1.58271 12.48892,-0.11817 24.98684,45.34822 49.15179,45.37102 24.16496,0.0281 36.73575,-55.42495 50.64672,-43.78831 13.69881,11.4591 23.21139,25.82645 25.67507,38.16089 2.46396,12.33445 -4.0343,17.44667 10.90311,67.08917 14.9374,49.64363 96.00084,134.70816 94.43502,213.22632 -0.0647,3.19131 -0.21666,6.23855 -0.35172,9.3204 13.61721,10.26187 21.57719,25.95644 23.65258,35.96254 1.50758,7.26809 2.33622,10.95461 2.55006,12.5739 1.46876,0.54332 4.64065,2.0782 11.16676,5.09984 8.37387,3.87729 19.79104,12.91294 27.5217,25.76314 6.34013,-23.87121 10.03959,-51.17823 10.72726,-82.74069 C 518.47103,420.53541 424.05374,310.81775 403.01369,246.81494 381.97364,182.81072 395.58748,171.35752 387.18659,108.85526 378.78571,46.352999 334.09083,-1.6796874e-6 258.10782,-1.6796874e-6 z M 108.80553,541.81431 c -3.26249,0.18852 -6.8677,1.0664 -10.90311,2.72564 -25.82645,10.62174 -14.48102,32.99858 -25.76314,47.12958 -11.28156,14.13184 -33.93443,7.32492 -41.06239,36.22647 -7.12768,28.90211 102.43804,170.80435 161.34833,146.57665 58.91057,-24.2277 37.00558,-202.18562 11.60654,-217.71052 -25.39848,-15.52463 -36.64346,5.27091 -54.60335,3.16542 -15.15349,-1.77658 -23.00486,-19.1318 -40.62288,-18.11324 z m 296.75794,0 c -16.29614,0.28137 -24.18409,16.4025 -38.77625,18.11324 -17.95988,2.10549 -29.20486,-18.69005 -54.60334,-3.16542 -25.39905,15.5249 -47.30403,193.48254 11.60653,217.71052 58.91029,24.2277 168.47601,-117.67454 161.34833,-146.57665 -7.12796,-28.90155 -29.69304,-22.09463 -40.9746,-36.22647 -11.28211,-14.131 0.0647,-36.50784 -25.76285,-47.12958 -4.84267,-1.99098 -9.07702,-2.79035 -12.83782,-2.72564 z M 254.9424,715.82432 c -1.28727,8.31675 -3.01545,16.47819 -5.2757,24.35629 -3.68399,12.84006 -9.06098,25.7077 -17.0581,36.66625 8.28806,0.51378 16.78292,0.58131 25.49922,0.17445 8.7163,0.40601 17.20834,0.3382 25.49921,-0.17445 -7.99712,-10.95855 -13.37411,-23.82619 -17.05809,-36.66625 -2.26025,-7.8781 -3.98843,-16.03954 -5.2757,-24.35629 -1.05486,0.0281 -2.10072,0.0872 -3.16542,0.0872 -1.06471,0 -2.11056,-0.0675 -3.16542,-0.0872 z"
       id="path4372-7"
       inkscape:connector-curvature="0"
       sodipodi:nodetypes="ssssccccccsccccscsccccccssssccccsssccssscccccscccscsc" />
  </g>
</svg>
